ISO-10303-21;
HEADER;
/*Generated by software containing ST-Developer
 * from STEP Tools, Inc. (www.steptools.com) 
 */
/*OPTION: using custom renumber hook */
/*description */
/*implementation_level */
FILE_DESCRIPTION(('STEP AP242 Edition 2','STEP AP242 Edition 2''CAx-IF Rec.Pracs.---Representation and Presentation of Product Manufa
cturing Information (PMI)---4.0---2014-10-13','STEP AP242 Edition 2''CAx-IF Rec.Pracs.---Representation and Presentation of Product Manufa
cturing Information (PMI)---4.0---2014-10-13''CAx-IF Rec.Pracs.---3D Tessellated Geometry---0.4---2014-09-14','STEP AP242 Edition 2''CAx-IF Rec.Pracs.---Representation and Presentation of Product Manufa
cturing Information (PMI)---4.0---2014-10-13''CAx-IF Rec.Pracs.---3D Tessellated Geometry---0.4---2014-09-14''2;1','STEP AP242 Edition 2''CAx-IF Rec.Pracs.---Representation and Presentation of Product Manufa
cturing Information (PMI)---4.0---2014-10-13''CAx-IF Rec.Pracs.---3D Tessellated Geometry---0.4---2014-09-14''2;1''CAx-IF Rec.Pracs.---User Defined Attributes---1.5---2016-08-15'),'2;1');
/*name */
/*time_stamp */
/*author */
/*organization */
/*preprocessor_version */
/*originating_system */
/*authorisation */
FILE_NAME('/vol/tmp/translate-5915819577903005363/test_chaos - Open CASCADE STEP translator 7.9 1.step','2026-03-14T03:07:39',(''),(''),'ST-DEVELOPER v20','ONSHAPE BY PTC INC, 1.212','  ');
FILE_SCHEMA(('AP242_MANAGED_MODEL_BASED_3D_ENGINEERING_MIM_LF { 1 0 10303 442 3 1 4 }'));
ENDSEC;
DATA;
#10=SHAPE_REPRESENTATION_RELATIONSHIP('','',#729,#11);
#11=ADVANCED_BREP_SHAPE_REPRESENTATION('',(#727),#1186);
#12=CYLINDRICAL_SURFACE('',#748,2.8);
#13=CYLINDRICAL_SURFACE('',#751,3.5);
#14=CYLINDRICAL_SURFACE('',#753,2.8);
#15=CYLINDRICAL_SURFACE('',#759,3.5);
#16=CYLINDRICAL_SURFACE('',#761,3.5);
#17=CYLINDRICAL_SURFACE('',#763,3.5);
#18=CYLINDRICAL_SURFACE('',#765,2.8);
#19=CYLINDRICAL_SURFACE('',#778,4.9);
#20=CYLINDRICAL_SURFACE('',#784,0.525);
#21=CYLINDRICAL_SURFACE('',#786,2.8);
#22=CONICAL_SURFACE('',#742,3.5,1.029744258677);
#23=CONICAL_SURFACE('',#768,4.9,0.785398163397);
#24=LINE('',#1001,#89);
#25=LINE('',#1004,#90);
#26=LINE('',#1006,#91);
#27=LINE('',#1008,#92);
#28=LINE('',#1010,#93);
#29=LINE('',#1013,#94);
#30=LINE('',#1015,#95);
#31=LINE('',#1017,#96);
#32=LINE('',#1027,#97);
#33=LINE('',#1029,#98);
#34=LINE('',#1031,#99);
#35=LINE('',#1034,#100);
#36=LINE('',#1036,#101);
#37=LINE('',#1038,#102);
#38=LINE('',#1039,#103);
#39=LINE('',#1042,#104);
#40=LINE('',#1044,#105);
#41=LINE('',#1046,#106);
#42=LINE('',#1050,#107);
#43=LINE('',#1060,#108);
#44=LINE('',#1061,#109);
#45=LINE('',#1068,#110);
#46=LINE('',#1070,#111);
#47=LINE('',#1072,#112);
#48=LINE('',#1074,#113);
#49=LINE('',#1076,#114);
#50=LINE('',#1078,#115);
#51=LINE('',#1080,#116);
#52=LINE('',#1082,#117);
#53=LINE('',#1101,#118);
#54=LINE('',#1104,#119);
#55=LINE('',#1105,#120);
#56=LINE('',#1107,#121);
#57=LINE('',#1109,#122);
#58=LINE('',#1111,#123);
#59=LINE('',#1113,#124);
#60=LINE('',#1115,#125);
#61=LINE('',#1117,#126);
#62=LINE('',#1120,#127);
#63=LINE('',#1121,#128);
#64=LINE('',#1123,#129);
#65=LINE('',#1125,#130);
#66=LINE('',#1127,#131);
#67=LINE('',#1129,#132);
#68=LINE('',#1131,#133);
#69=LINE('',#1136,#134);
#70=LINE('',#1138,#135);
#71=LINE('',#1140,#136);
#72=LINE('',#1142,#137);
#73=LINE('',#1144,#138);
#74=LINE('',#1146,#139);
#75=LINE('',#1148,#140);
#76=LINE('',#1150,#141);
#77=LINE('',#1160,#142);
#78=LINE('',#1163,#143);
#79=LINE('',#1165,#144);
#80=LINE('',#1167,#145);
#81=LINE('',#1169,#146);
#82=LINE('',#1171,#147);
#83=LINE('',#1173,#148);
#84=LINE('',#1175,#149);
#85=LINE('',#1177,#150);
#86=LINE('',#1179,#151);
#87=LINE('',#1181,#152);
#88=LINE('',#1183,#153);
#89=VECTOR('',#811,1000.);
#90=VECTOR('',#812,1000.);
#91=VECTOR('',#813,1000.);
#92=VECTOR('',#814,1000.);
#93=VECTOR('',#817,1000.);
#94=VECTOR('',#818,1000.);
#95=VECTOR('',#819,1000.);
#96=VECTOR('',#820,1000.);
#97=VECTOR('',#831,1000.);
#98=VECTOR('',#832,1000.);
#99=VECTOR('',#835,1000.);
#100=VECTOR('',#836,1000.);
#101=VECTOR('',#837,1000.);
#102=VECTOR('',#838,1000.);
#103=VECTOR('',#839,1000.);
#104=VECTOR('',#840,1000.);
#105=VECTOR('',#841,1000.);
#106=VECTOR('',#842,1000.);
#107=VECTOR('',#845,1000.);
#108=VECTOR('',#858,1000.);
#109=VECTOR('',#859,1000.);
#110=VECTOR('',#868,1000.);
#111=VECTOR('',#869,1000.);
#112=VECTOR('',#870,1000.);
#113=VECTOR('',#873,1000.);
#114=VECTOR('',#874,1000.);
#115=VECTOR('',#877,1000.);
#116=VECTOR('',#878,1000.);
#117=VECTOR('',#881,1000.);
#118=VECTOR('',#906,1000.);
#119=VECTOR('',#907,1000.);
#120=VECTOR('',#908,1000.);
#121=VECTOR('',#911,1000.);
#122=VECTOR('',#912,1000.);
#123=VECTOR('',#915,1000.);
#124=VECTOR('',#916,1000.);
#125=VECTOR('',#919,1000.);
#126=VECTOR('',#922,1000.);
#127=VECTOR('',#923,1000.);
#128=VECTOR('',#924,1000.);
#129=VECTOR('',#927,1000.);
#130=VECTOR('',#928,1000.);
#131=VECTOR('',#931,1000.);
#132=VECTOR('',#932,1000.);
#133=VECTOR('',#935,1000.);
#134=VECTOR('',#942,1000.);
#135=VECTOR('',#943,1000.);
#136=VECTOR('',#944,1000.);
#137=VECTOR('',#947,1000.);
#138=VECTOR('',#948,1000.);
#139=VECTOR('',#951,1000.);
#140=VECTOR('',#952,1000.);
#141=VECTOR('',#955,1000.);
#142=VECTOR('',#968,1000.);
#143=VECTOR('',#969,1000.);
#144=VECTOR('',#970,1000.);
#145=VECTOR('',#971,1000.);
#146=VECTOR('',#974,1000.);
#147=VECTOR('',#975,1000.);
#148=VECTOR('',#976,1000.);
#149=VECTOR('',#979,1000.);
#150=VECTOR('',#980,1000.);
#151=VECTOR('',#983,1000.);
#152=VECTOR('',#984,1000.);
#153=VECTOR('',#987,1000.);
#154=ORIENTED_EDGE('',*,*,#328,.F.);
#155=ORIENTED_EDGE('',*,*,#329,.F.);
#156=ORIENTED_EDGE('',*,*,#330,.F.);
#157=ORIENTED_EDGE('',*,*,#331,.F.);
#158=ORIENTED_EDGE('',*,*,#332,.T.);
#159=ORIENTED_EDGE('',*,*,#333,.T.);
#160=ORIENTED_EDGE('',*,*,#334,.F.);
#161=ORIENTED_EDGE('',*,*,#335,.F.);
#162=ORIENTED_EDGE('',*,*,#336,.T.);
#163=ORIENTED_EDGE('',*,*,#337,.T.);
#164=ORIENTED_EDGE('',*,*,#338,.F.);
#165=ORIENTED_EDGE('',*,*,#339,.T.);
#166=ORIENTED_EDGE('',*,*,#340,.F.);
#167=ORIENTED_EDGE('',*,*,#341,.F.);
#168=ORIENTED_EDGE('',*,*,#342,.F.);
#169=ORIENTED_EDGE('',*,*,#343,.T.);
#170=ORIENTED_EDGE('',*,*,#344,.T.);
#171=ORIENTED_EDGE('',*,*,#345,.T.);
#172=ORIENTED_EDGE('',*,*,#346,.F.);
#173=ORIENTED_EDGE('',*,*,#347,.F.);
#174=ORIENTED_EDGE('',*,*,#348,.F.);
#175=ORIENTED_EDGE('',*,*,#349,.F.);
#176=ORIENTED_EDGE('',*,*,#350,.T.);
#177=ORIENTED_EDGE('',*,*,#351,.T.);
#178=ORIENTED_EDGE('',*,*,#352,.F.);
#179=ORIENTED_EDGE('',*,*,#353,.T.);
#180=ORIENTED_EDGE('',*,*,#354,.F.);
#181=ORIENTED_EDGE('',*,*,#355,.T.);
#182=ORIENTED_EDGE('',*,*,#356,.F.);
#183=ORIENTED_EDGE('',*,*,#357,.T.);
#184=ORIENTED_EDGE('',*,*,#341,.T.);
#185=ORIENTED_EDGE('',*,*,#358,.F.);
#186=ORIENTED_EDGE('',*,*,#352,.T.);
#187=ORIENTED_EDGE('',*,*,#359,.F.);
#188=ORIENTED_EDGE('',*,*,#360,.T.);
#189=ORIENTED_EDGE('',*,*,#339,.F.);
#190=ORIENTED_EDGE('',*,*,#346,.T.);
#191=ORIENTED_EDGE('',*,*,#361,.F.);
#192=ORIENTED_EDGE('',*,*,#362,.F.);
#193=ORIENTED_EDGE('',*,*,#363,.T.);
#194=ORIENTED_EDGE('',*,*,#364,.F.);
#195=ORIENTED_EDGE('',*,*,#365,.T.);
#196=ORIENTED_EDGE('',*,*,#347,.T.);
#197=ORIENTED_EDGE('',*,*,#363,.F.);
#198=ORIENTED_EDGE('',*,*,#361,.T.);
#199=ORIENTED_EDGE('',*,*,#345,.F.);
#200=ORIENTED_EDGE('',*,*,#366,.F.);
#201=ORIENTED_EDGE('',*,*,#367,.T.);
#202=ORIENTED_EDGE('',*,*,#365,.F.);
#203=ORIENTED_EDGE('',*,*,#368,.T.);
#204=ORIENTED_EDGE('',*,*,#366,.T.);
#205=ORIENTED_EDGE('',*,*,#344,.F.);
#206=ORIENTED_EDGE('',*,*,#328,.T.);
#207=ORIENTED_EDGE('',*,*,#369,.F.);
#208=ORIENTED_EDGE('',*,*,#329,.T.);
#209=ORIENTED_EDGE('',*,*,#370,.F.);
#210=ORIENTED_EDGE('',*,*,#330,.T.);
#211=ORIENTED_EDGE('',*,*,#371,.F.);
#212=ORIENTED_EDGE('',*,*,#372,.T.);
#213=ORIENTED_EDGE('',*,*,#373,.F.);
#214=ORIENTED_EDGE('',*,*,#356,.T.);
#215=ORIENTED_EDGE('',*,*,#374,.F.);
#216=ORIENTED_EDGE('',*,*,#375,.T.);
#217=ORIENTED_EDGE('',*,*,#376,.F.);
#218=ORIENTED_EDGE('',*,*,#333,.F.);
#219=ORIENTED_EDGE('',*,*,#377,.T.);
#220=ORIENTED_EDGE('',*,*,#332,.F.);
#221=ORIENTED_EDGE('',*,*,#378,.T.);
#222=ORIENTED_EDGE('',*,*,#379,.T.);
#223=ORIENTED_EDGE('',*,*,#377,.F.);
#224=ORIENTED_EDGE('',*,*,#376,.T.);
#225=ORIENTED_EDGE('',*,*,#380,.F.);
#226=ORIENTED_EDGE('',*,*,#381,.F.);
#227=ORIENTED_EDGE('',*,*,#334,.T.);
#228=ORIENTED_EDGE('',*,*,#378,.F.);
#229=ORIENTED_EDGE('',*,*,#331,.T.);
#230=ORIENTED_EDGE('',*,*,#381,.T.);
#231=ORIENTED_EDGE('',*,*,#382,.F.);
#232=ORIENTED_EDGE('',*,*,#383,.T.);
#233=ORIENTED_EDGE('',*,*,#384,.F.);
#234=ORIENTED_EDGE('',*,*,#337,.F.);
#235=ORIENTED_EDGE('',*,*,#385,.T.);
#236=ORIENTED_EDGE('',*,*,#336,.F.);
#237=ORIENTED_EDGE('',*,*,#386,.T.);
#238=ORIENTED_EDGE('',*,*,#387,.T.);
#239=ORIENTED_EDGE('',*,*,#385,.F.);
#240=ORIENTED_EDGE('',*,*,#384,.T.);
#241=ORIENTED_EDGE('',*,*,#388,.F.);
#242=ORIENTED_EDGE('',*,*,#389,.F.);
#243=ORIENTED_EDGE('',*,*,#338,.T.);
#244=ORIENTED_EDGE('',*,*,#386,.F.);
#245=ORIENTED_EDGE('',*,*,#335,.T.);
#246=ORIENTED_EDGE('',*,*,#389,.T.);
#247=ORIENTED_EDGE('',*,*,#390,.F.);
#248=ORIENTED_EDGE('',*,*,#340,.T.);
#249=ORIENTED_EDGE('',*,*,#391,.F.);
#250=ORIENTED_EDGE('',*,*,#353,.F.);
#251=ORIENTED_EDGE('',*,*,#358,.T.);
#252=ORIENTED_EDGE('',*,*,#343,.F.);
#253=ORIENTED_EDGE('',*,*,#342,.T.);
#254=ORIENTED_EDGE('',*,*,#357,.F.);
#255=ORIENTED_EDGE('',*,*,#351,.F.);
#256=ORIENTED_EDGE('',*,*,#392,.T.);
#257=ORIENTED_EDGE('',*,*,#393,.T.);
#258=ORIENTED_EDGE('',*,*,#394,.F.);
#259=ORIENTED_EDGE('',*,*,#350,.F.);
#260=ORIENTED_EDGE('',*,*,#395,.T.);
#261=ORIENTED_EDGE('',*,*,#396,.T.);
#262=ORIENTED_EDGE('',*,*,#392,.F.);
#263=ORIENTED_EDGE('',*,*,#394,.T.);
#264=ORIENTED_EDGE('',*,*,#397,.F.);
#265=ORIENTED_EDGE('',*,*,#398,.F.);
#266=ORIENTED_EDGE('',*,*,#348,.T.);
#267=ORIENTED_EDGE('',*,*,#395,.F.);
#268=ORIENTED_EDGE('',*,*,#349,.T.);
#269=ORIENTED_EDGE('',*,*,#398,.T.);
#270=ORIENTED_EDGE('',*,*,#399,.F.);
#271=ORIENTED_EDGE('',*,*,#354,.T.);
#272=ORIENTED_EDGE('',*,*,#400,.F.);
#273=ORIENTED_EDGE('',*,*,#401,.T.);
#274=ORIENTED_EDGE('',*,*,#402,.F.);
#275=ORIENTED_EDGE('',*,*,#403,.F.);
#276=ORIENTED_EDGE('',*,*,#404,.T.);
#277=ORIENTED_EDGE('',*,*,#405,.T.);
#278=ORIENTED_EDGE('',*,*,#406,.F.);
#279=ORIENTED_EDGE('',*,*,#372,.F.);
#280=ORIENTED_EDGE('',*,*,#355,.F.);
#281=ORIENTED_EDGE('',*,*,#359,.T.);
#282=ORIENTED_EDGE('',*,*,#360,.F.);
#283=ORIENTED_EDGE('',*,*,#364,.T.);
#284=ORIENTED_EDGE('',*,*,#362,.T.);
#285=ORIENTED_EDGE('',*,*,#367,.F.);
#286=ORIENTED_EDGE('',*,*,#368,.F.);
#287=ORIENTED_EDGE('',*,*,#407,.T.);
#288=ORIENTED_EDGE('',*,*,#404,.F.);
#289=ORIENTED_EDGE('',*,*,#408,.F.);
#290=ORIENTED_EDGE('',*,*,#409,.T.);
#291=ORIENTED_EDGE('',*,*,#401,.F.);
#292=ORIENTED_EDGE('',*,*,#407,.F.);
#293=ORIENTED_EDGE('',*,*,#410,.T.);
#294=ORIENTED_EDGE('',*,*,#411,.T.);
#295=ORIENTED_EDGE('',*,*,#405,.F.);
#296=ORIENTED_EDGE('',*,*,#369,.T.);
#297=ORIENTED_EDGE('',*,*,#370,.T.);
#298=ORIENTED_EDGE('',*,*,#371,.T.);
#299=ORIENTED_EDGE('',*,*,#373,.T.);
#300=ORIENTED_EDGE('',*,*,#374,.T.);
#301=ORIENTED_EDGE('',*,*,#382,.T.);
#302=ORIENTED_EDGE('',*,*,#380,.T.);
#303=ORIENTED_EDGE('',*,*,#375,.F.);
#304=ORIENTED_EDGE('',*,*,#379,.F.);
#305=ORIENTED_EDGE('',*,*,#390,.T.);
#306=ORIENTED_EDGE('',*,*,#388,.T.);
#307=ORIENTED_EDGE('',*,*,#383,.F.);
#308=ORIENTED_EDGE('',*,*,#387,.F.);
#309=ORIENTED_EDGE('',*,*,#391,.T.);
#310=ORIENTED_EDGE('',*,*,#399,.T.);
#311=ORIENTED_EDGE('',*,*,#397,.T.);
#312=ORIENTED_EDGE('',*,*,#393,.F.);
#313=ORIENTED_EDGE('',*,*,#396,.F.);
#314=ORIENTED_EDGE('',*,*,#400,.T.);
#315=ORIENTED_EDGE('',*,*,#412,.F.);
#316=ORIENTED_EDGE('',*,*,#413,.T.);
#317=ORIENTED_EDGE('',*,*,#406,.T.);
#318=ORIENTED_EDGE('',*,*,#411,.F.);
#319=ORIENTED_EDGE('',*,*,#402,.T.);
#320=ORIENTED_EDGE('',*,*,#403,.T.);
#321=ORIENTED_EDGE('',*,*,#413,.F.);
#322=ORIENTED_EDGE('',*,*,#414,.F.);
#323=ORIENTED_EDGE('',*,*,#408,.T.);
#324=ORIENTED_EDGE('',*,*,#412,.T.);
#325=ORIENTED_EDGE('',*,*,#410,.F.);
#326=ORIENTED_EDGE('',*,*,#409,.F.);
#327=ORIENTED_EDGE('',*,*,#414,.T.);
#328=EDGE_CURVE('',#415,#415,#480,.T.);
#329=EDGE_CURVE('',#416,#416,#481,.T.);
#330=EDGE_CURVE('',#417,#417,#482,.T.);
#331=EDGE_CURVE('',#418,#419,#24,.T.);
#332=EDGE_CURVE('',#418,#420,#25,.T.);
#333=EDGE_CURVE('',#420,#421,#26,.T.);
#334=EDGE_CURVE('',#419,#421,#27,.T.);
#335=EDGE_CURVE('',#422,#423,#28,.T.);
#336=EDGE_CURVE('',#422,#424,#29,.T.);
#337=EDGE_CURVE('',#424,#425,#30,.T.);
#338=EDGE_CURVE('',#423,#425,#31,.T.);
#339=EDGE_CURVE('',#426,#426,#483,.T.);
#340=EDGE_CURVE('',#427,#427,#484,.T.);
#341=EDGE_CURVE('',#428,#429,#485,.T.);
#342=EDGE_CURVE('',#430,#428,#32,.T.);
#343=EDGE_CURVE('',#430,#429,#33,.T.);
#344=EDGE_CURVE('',#431,#432,#34,.T.);
#345=EDGE_CURVE('',#432,#433,#35,.T.);
#346=EDGE_CURVE('',#434,#433,#36,.T.);
#347=EDGE_CURVE('',#431,#434,#37,.T.);
#348=EDGE_CURVE('',#435,#436,#38,.T.);
#349=EDGE_CURVE('',#437,#435,#39,.T.);
#350=EDGE_CURVE('',#437,#438,#40,.T.);
#351=EDGE_CURVE('',#438,#439,#41,.T.);
#352=EDGE_CURVE('',#440,#439,#486,.T.);
#353=EDGE_CURVE('',#440,#436,#42,.T.);
#354=EDGE_CURVE('',#441,#441,#487,.T.);
#355=EDGE_CURVE('',#442,#442,#488,.T.);
#356=EDGE_CURVE('',#443,#443,#489,.T.);
#357=EDGE_CURVE('',#439,#428,#43,.T.);
#358=EDGE_CURVE('',#440,#429,#44,.T.);
#359=EDGE_CURVE('',#444,#444,#490,.T.);
#360=EDGE_CURVE('',#445,#445,#491,.T.);
#361=EDGE_CURVE('',#446,#433,#45,.T.);
#362=EDGE_CURVE('',#447,#446,#46,.T.);
#363=EDGE_CURVE('',#447,#434,#47,.T.);
#364=EDGE_CURVE('',#448,#447,#48,.T.);
#365=EDGE_CURVE('',#448,#431,#49,.T.);
#366=EDGE_CURVE('',#449,#432,#50,.T.);
#367=EDGE_CURVE('',#449,#446,#51,.T.);
#368=EDGE_CURVE('',#448,#449,#52,.T.);
#369=EDGE_CURVE('',#450,#450,#492,.T.);
#370=EDGE_CURVE('',#451,#451,#493,.T.);
#371=EDGE_CURVE('',#452,#452,#494,.T.);
#372=EDGE_CURVE('',#453,#453,#495,.T.);
#373=EDGE_CURVE('',#454,#454,#496,.T.);
#374=EDGE_CURVE('',#455,#455,#497,.T.);
#375=EDGE_CURVE('',#456,#457,#53,.T.);
#376=EDGE_CURVE('',#421,#457,#54,.T.);
#377=EDGE_CURVE('',#420,#456,#55,.T.);
#378=EDGE_CURVE('',#418,#458,#56,.T.);
#379=EDGE_CURVE('',#458,#456,#57,.T.);
#380=EDGE_CURVE('',#459,#457,#58,.T.);
#381=EDGE_CURVE('',#419,#459,#59,.T.);
#382=EDGE_CURVE('',#458,#459,#60,.T.);
#383=EDGE_CURVE('',#460,#461,#61,.T.);
#384=EDGE_CURVE('',#425,#461,#62,.T.);
#385=EDGE_CURVE('',#424,#460,#63,.T.);
#386=EDGE_CURVE('',#422,#462,#64,.T.);
#387=EDGE_CURVE('',#462,#460,#65,.T.);
#388=EDGE_CURVE('',#463,#461,#66,.T.);
#389=EDGE_CURVE('',#423,#463,#67,.T.);
#390=EDGE_CURVE('',#462,#463,#68,.T.);
#391=EDGE_CURVE('',#464,#464,#498,.T.);
#392=EDGE_CURVE('',#438,#465,#69,.T.);
#393=EDGE_CURVE('',#465,#466,#70,.T.);
#394=EDGE_CURVE('',#436,#466,#71,.T.);
#395=EDGE_CURVE('',#437,#467,#72,.T.);
#396=EDGE_CURVE('',#467,#465,#73,.T.);
#397=EDGE_CURVE('',#468,#466,#74,.T.);
#398=EDGE_CURVE('',#435,#468,#75,.T.);
#399=EDGE_CURVE('',#467,#468,#76,.T.);
#400=EDGE_CURVE('',#469,#469,#499,.T.);
#401=EDGE_CURVE('',#470,#470,#500,.T.);
#402=EDGE_CURVE('',#471,#471,#501,.T.);
#403=EDGE_CURVE('',#472,#473,#77,.T.);
#404=EDGE_CURVE('',#472,#474,#78,.T.);
#405=EDGE_CURVE('',#474,#475,#79,.T.);
#406=EDGE_CURVE('',#473,#475,#80,.T.);
#407=EDGE_CURVE('',#476,#474,#81,.T.);
#408=EDGE_CURVE('',#477,#472,#82,.T.);
#409=EDGE_CURVE('',#477,#476,#83,.T.);
#410=EDGE_CURVE('',#476,#478,#84,.T.);
#411=EDGE_CURVE('',#478,#475,#85,.T.);
#412=EDGE_CURVE('',#479,#478,#86,.T.);
#413=EDGE_CURVE('',#479,#473,#87,.T.);
#414=EDGE_CURVE('',#477,#479,#88,.T.);
#415=VERTEX_POINT('',#993);
#416=VERTEX_POINT('',#996);
#417=VERTEX_POINT('',#999);
#418=VERTEX_POINT('',#1002);
#419=VERTEX_POINT('',#1003);
#420=VERTEX_POINT('',#1005);
#421=VERTEX_POINT('',#1007);
#422=VERTEX_POINT('',#1011);
#423=VERTEX_POINT('',#1012);
#424=VERTEX_POINT('',#1014);
#425=VERTEX_POINT('',#1016);
#426=VERTEX_POINT('',#1020);
#427=VERTEX_POINT('',#1022);
#428=VERTEX_POINT('',#1025);
#429=VERTEX_POINT('',#1026);
#430=VERTEX_POINT('',#1028);
#431=VERTEX_POINT('',#1032);
#432=VERTEX_POINT('',#1033);
#433=VERTEX_POINT('',#1035);
#434=VERTEX_POINT('',#1037);
#435=VERTEX_POINT('',#1040);
#436=VERTEX_POINT('',#1041);
#437=VERTEX_POINT('',#1043);
#438=VERTEX_POINT('',#1045);
#439=VERTEX_POINT('',#1047);
#440=VERTEX_POINT('',#1049);
#441=VERTEX_POINT('',#1053);
#442=VERTEX_POINT('',#1056);
#443=VERTEX_POINT('',#1058);
#444=VERTEX_POINT('',#1063);
#445=VERTEX_POINT('',#1066);
#446=VERTEX_POINT('',#1069);
#447=VERTEX_POINT('',#1071);
#448=VERTEX_POINT('',#1075);
#449=VERTEX_POINT('',#1079);
#450=VERTEX_POINT('',#1085);
#451=VERTEX_POINT('',#1088);
#452=VERTEX_POINT('',#1091);
#453=VERTEX_POINT('',#1094);
#454=VERTEX_POINT('',#1096);
#455=VERTEX_POINT('',#1099);
#456=VERTEX_POINT('',#1102);
#457=VERTEX_POINT('',#1103);
#458=VERTEX_POINT('',#1108);
#459=VERTEX_POINT('',#1112);
#460=VERTEX_POINT('',#1118);
#461=VERTEX_POINT('',#1119);
#462=VERTEX_POINT('',#1124);
#463=VERTEX_POINT('',#1128);
#464=VERTEX_POINT('',#1134);
#465=VERTEX_POINT('',#1137);
#466=VERTEX_POINT('',#1139);
#467=VERTEX_POINT('',#1143);
#468=VERTEX_POINT('',#1147);
#469=VERTEX_POINT('',#1153);
#470=VERTEX_POINT('',#1156);
#471=VERTEX_POINT('',#1158);
#472=VERTEX_POINT('',#1161);
#473=VERTEX_POINT('',#1162);
#474=VERTEX_POINT('',#1164);
#475=VERTEX_POINT('',#1166);
#476=VERTEX_POINT('',#1170);
#477=VERTEX_POINT('',#1172);
#478=VERTEX_POINT('',#1176);
#479=VERTEX_POINT('',#1180);
#480=CIRCLE('',#732,3.5);
#481=CIRCLE('',#734,3.5);
#482=CIRCLE('',#736,3.5);
#483=CIRCLE('',#740,2.8);
#484=CIRCLE('',#741,4.9);
#485=CIRCLE('',#743,3.5);
#486=CIRCLE('',#745,3.5);
#487=CIRCLE('',#747,0.525);
#488=CIRCLE('',#749,2.8);
#489=CIRCLE('',#750,2.8);
#490=CIRCLE('',#752,3.5);
#491=CIRCLE('',#754,2.8);
#492=CIRCLE('',#760,3.5);
#493=CIRCLE('',#762,3.5);
#494=CIRCLE('',#764,3.5);
#495=CIRCLE('',#766,2.8);
#496=CIRCLE('',#767,2.8);
#497=CIRCLE('',#769,4.9);
#498=CIRCLE('',#779,4.9);
#499=CIRCLE('',#785,0.525);
#500=CIRCLE('',#787,2.8);
#501=CIRCLE('',#788,2.8);
#502=EDGE_LOOP('',(#154));
#503=EDGE_LOOP('',(#155));
#504=EDGE_LOOP('',(#156));
#505=EDGE_LOOP('',(#157,#158,#159,#160));
#506=EDGE_LOOP('',(#161,#162,#163,#164));
#507=EDGE_LOOP('',(#165));
#508=EDGE_LOOP('',(#166));
#509=EDGE_LOOP('',(#167,#168,#169));
#510=EDGE_LOOP('',(#170,#171,#172,#173));
#511=EDGE_LOOP('',(#174,#175,#176,#177,#178,#179));
#512=EDGE_LOOP('',(#180));
#513=EDGE_LOOP('',(#181));
#514=EDGE_LOOP('',(#182));
#515=EDGE_LOOP('',(#183,#184,#185,#186));
#516=EDGE_LOOP('',(#187));
#517=EDGE_LOOP('',(#188));
#518=EDGE_LOOP('',(#189));
#519=EDGE_LOOP('',(#190,#191,#192,#193));
#520=EDGE_LOOP('',(#194,#195,#196,#197));
#521=EDGE_LOOP('',(#198,#199,#200,#201));
#522=EDGE_LOOP('',(#202,#203,#204,#205));
#523=EDGE_LOOP('',(#206));
#524=EDGE_LOOP('',(#207));
#525=EDGE_LOOP('',(#208));
#526=EDGE_LOOP('',(#209));
#527=EDGE_LOOP('',(#210));
#528=EDGE_LOOP('',(#211));
#529=EDGE_LOOP('',(#212));
#530=EDGE_LOOP('',(#213));
#531=EDGE_LOOP('',(#214));
#532=EDGE_LOOP('',(#215));
#533=EDGE_LOOP('',(#216,#217,#218,#219));
#534=EDGE_LOOP('',(#220,#221,#222,#223));
#535=EDGE_LOOP('',(#224,#225,#226,#227));
#536=EDGE_LOOP('',(#228,#229,#230,#231));
#537=EDGE_LOOP('',(#232,#233,#234,#235));
#538=EDGE_LOOP('',(#236,#237,#238,#239));
#539=EDGE_LOOP('',(#240,#241,#242,#243));
#540=EDGE_LOOP('',(#244,#245,#246,#247));
#541=EDGE_LOOP('',(#248));
#542=EDGE_LOOP('',(#249));
#543=EDGE_LOOP('',(#250,#251,#252,#253,#254,#255,#256,#257,#258));
#544=EDGE_LOOP('',(#259,#260,#261,#262));
#545=EDGE_LOOP('',(#263,#264,#265,#266));
#546=EDGE_LOOP('',(#267,#268,#269,#270));
#547=EDGE_LOOP('',(#271));
#548=EDGE_LOOP('',(#272));
#549=EDGE_LOOP('',(#273));
#550=EDGE_LOOP('',(#274));
#551=EDGE_LOOP('',(#275,#276,#277,#278));
#552=EDGE_LOOP('',(#279));
#553=EDGE_LOOP('',(#280));
#554=EDGE_LOOP('',(#281));
#555=EDGE_LOOP('',(#282));
#556=EDGE_LOOP('',(#283,#284,#285,#286));
#557=EDGE_LOOP('',(#287,#288,#289,#290));
#558=EDGE_LOOP('',(#291));
#559=EDGE_LOOP('',(#292,#293,#294,#295));
#560=EDGE_LOOP('',(#296));
#561=EDGE_LOOP('',(#297));
#562=EDGE_LOOP('',(#298));
#563=EDGE_LOOP('',(#299));
#564=EDGE_LOOP('',(#300));
#565=EDGE_LOOP('',(#301,#302,#303,#304));
#566=EDGE_LOOP('',(#305,#306,#307,#308));
#567=EDGE_LOOP('',(#309));
#568=EDGE_LOOP('',(#310,#311,#312,#313));
#569=EDGE_LOOP('',(#314));
#570=EDGE_LOOP('',(#315,#316,#317,#318));
#571=EDGE_LOOP('',(#319));
#572=EDGE_LOOP('',(#320,#321,#322,#323));
#573=EDGE_LOOP('',(#324,#325,#326,#327));
#574=FACE_BOUND('',#502,.T.);
#575=FACE_BOUND('',#503,.T.);
#576=FACE_BOUND('',#504,.T.);
#577=FACE_BOUND('',#505,.T.);
#578=FACE_BOUND('',#506,.T.);
#579=FACE_BOUND('',#507,.T.);
#580=FACE_BOUND('',#508,.T.);
#581=FACE_BOUND('',#509,.T.);
#582=FACE_BOUND('',#510,.T.);
#583=FACE_BOUND('',#511,.T.);
#584=FACE_BOUND('',#512,.T.);
#585=FACE_BOUND('',#513,.T.);
#586=FACE_BOUND('',#514,.T.);
#587=FACE_BOUND('',#515,.T.);
#588=FACE_BOUND('',#516,.T.);
#589=FACE_BOUND('',#517,.T.);
#590=FACE_BOUND('',#518,.T.);
#591=FACE_BOUND('',#519,.T.);
#592=FACE_BOUND('',#520,.T.);
#593=FACE_BOUND('',#521,.T.);
#594=FACE_BOUND('',#522,.T.);
#595=FACE_BOUND('',#523,.T.);
#596=FACE_BOUND('',#524,.T.);
#597=FACE_BOUND('',#525,.T.);
#598=FACE_BOUND('',#526,.T.);
#599=FACE_BOUND('',#527,.T.);
#600=FACE_BOUND('',#528,.T.);
#601=FACE_BOUND('',#529,.T.);
#602=FACE_BOUND('',#530,.T.);
#603=FACE_BOUND('',#531,.T.);
#604=FACE_BOUND('',#532,.T.);
#605=FACE_BOUND('',#533,.T.);
#606=FACE_BOUND('',#534,.T.);
#607=FACE_BOUND('',#535,.T.);
#608=FACE_BOUND('',#536,.T.);
#609=FACE_BOUND('',#537,.T.);
#610=FACE_BOUND('',#538,.T.);
#611=FACE_BOUND('',#539,.T.);
#612=FACE_BOUND('',#540,.T.);
#613=FACE_BOUND('',#541,.T.);
#614=FACE_BOUND('',#542,.T.);
#615=FACE_BOUND('',#543,.T.);
#616=FACE_BOUND('',#544,.T.);
#617=FACE_BOUND('',#545,.T.);
#618=FACE_BOUND('',#546,.T.);
#619=FACE_BOUND('',#547,.T.);
#620=FACE_BOUND('',#548,.T.);
#621=FACE_BOUND('',#549,.T.);
#622=FACE_BOUND('',#550,.T.);
#623=FACE_BOUND('',#551,.T.);
#624=FACE_BOUND('',#552,.T.);
#625=FACE_BOUND('',#553,.T.);
#626=FACE_BOUND('',#554,.T.);
#627=FACE_BOUND('',#555,.T.);
#628=FACE_BOUND('',#556,.T.);
#629=FACE_BOUND('',#557,.T.);
#630=FACE_BOUND('',#558,.T.);
#631=FACE_BOUND('',#559,.T.);
#632=FACE_BOUND('',#560,.T.);
#633=FACE_BOUND('',#561,.T.);
#634=FACE_BOUND('',#562,.T.);
#635=FACE_BOUND('',#563,.T.);
#636=FACE_BOUND('',#564,.T.);
#637=FACE_BOUND('',#565,.T.);
#638=FACE_BOUND('',#566,.T.);
#639=FACE_BOUND('',#567,.T.);
#640=FACE_BOUND('',#568,.T.);
#641=FACE_BOUND('',#569,.T.);
#642=FACE_BOUND('',#570,.T.);
#643=FACE_BOUND('',#571,.T.);
#644=FACE_BOUND('',#572,.T.);
#645=FACE_BOUND('',#573,.T.);
#646=PLANE('',#731);
#647=PLANE('',#733);
#648=PLANE('',#735);
#649=PLANE('',#737);
#650=PLANE('',#738);
#651=PLANE('',#739);
#652=PLANE('',#744);
#653=PLANE('',#746);
#654=PLANE('',#755);
#655=PLANE('',#756);
#656=PLANE('',#757);
#657=PLANE('',#758);
#658=PLANE('',#770);
#659=PLANE('',#771);
#660=PLANE('',#772);
#661=PLANE('',#773);
#662=PLANE('',#774);
#663=PLANE('',#775);
#664=PLANE('',#776);
#665=PLANE('',#777);
#666=PLANE('',#780);
#667=PLANE('',#781);
#668=PLANE('',#782);
#669=PLANE('',#783);
#670=PLANE('',#789);
#671=PLANE('',#790);
#672=PLANE('',#791);
#673=PLANE('',#792);
#674=PLANE('',#793);
#675=PLANE('',#794);
#676=ADVANCED_FACE('',(#574),#646,.F.);
#677=ADVANCED_FACE('',(#575),#647,.F.);
#678=ADVANCED_FACE('',(#576),#648,.F.);
#679=ADVANCED_FACE('',(#577),#649,.T.);
#680=ADVANCED_FACE('',(#578),#650,.T.);
#681=ADVANCED_FACE('',(#579,#580),#651,.F.);
#682=ADVANCED_FACE('',(#581),#22,.F.);
#683=ADVANCED_FACE('',(#582,#583),#652,.T.);
#684=ADVANCED_FACE('',(#584),#653,.F.);
#685=ADVANCED_FACE('',(#585,#586),#12,.F.);
#686=ADVANCED_FACE('',(#587,#588),#13,.F.);
#687=ADVANCED_FACE('',(#589,#590),#14,.F.);
#688=ADVANCED_FACE('',(#591),#654,.F.);
#689=ADVANCED_FACE('',(#592),#655,.T.);
#690=ADVANCED_FACE('',(#593),#656,.F.);
#691=ADVANCED_FACE('',(#594),#657,.T.);
#692=ADVANCED_FACE('',(#595,#596),#15,.F.);
#693=ADVANCED_FACE('',(#597,#598),#16,.F.);
#694=ADVANCED_FACE('',(#599,#600),#17,.F.);
#695=ADVANCED_FACE('',(#601,#602),#18,.F.);
#696=ADVANCED_FACE('',(#603,#604),#23,.F.);
#697=ADVANCED_FACE('',(#605),#658,.F.);
#698=ADVANCED_FACE('',(#606),#659,.T.);
#699=ADVANCED_FACE('',(#607),#660,.F.);
#700=ADVANCED_FACE('',(#608),#661,.T.);
#701=ADVANCED_FACE('',(#609),#662,.F.);
#702=ADVANCED_FACE('',(#610),#663,.T.);
#703=ADVANCED_FACE('',(#611),#664,.F.);
#704=ADVANCED_FACE('',(#612),#665,.T.);
#705=ADVANCED_FACE('',(#613,#614),#19,.F.);
#706=ADVANCED_FACE('',(#615),#666,.F.);
#707=ADVANCED_FACE('',(#616),#667,.T.);
#708=ADVANCED_FACE('',(#617),#668,.F.);
#709=ADVANCED_FACE('',(#618),#669,.T.);
#710=ADVANCED_FACE('',(#619,#620),#20,.F.);
#711=ADVANCED_FACE('',(#621,#622),#21,.F.);
#712=ADVANCED_FACE('',(#623),#670,.T.);
#713=ADVANCED_FACE('',(#624,#625,#626,#627,#628,#629),#671,.F.);
#714=ADVANCED_FACE('',(#630,#631),#672,.T.);
#715=ADVANCED_FACE('',(#632,#633,#634,#635,#636,#637,#638,#639,#640,#641,#642),#673,.T.);
#716=ADVANCED_FACE('',(#643,#644),#674,.F.);
#717=ADVANCED_FACE('',(#645),#675,.F.);
#718=CLOSED_SHELL('',(#676,#677,#678,#679,#680,#681,#682,#683,#684,#685,#686,#687,#688,#689,#690,#691,#692,#693,#694,#695,#696,#697,#698,#699,#700,#701,#702,#703,#704,#705,#706,#707,#708,#709,#710,#711,#712,#713,#714,#715,#716,#717));
#719=STYLED_ITEM('',(#720),#727);
#720=PRESENTATION_STYLE_ASSIGNMENT((#721));
#721=SURFACE_STYLE_USAGE(.BOTH.,#722);
#722=SURFACE_SIDE_STYLE('',(#723));
#723=SURFACE_STYLE_FILL_AREA(#724);
#724=FILL_AREA_STYLE('',(#725));
#725=FILL_AREA_STYLE_COLOUR('',#726);
#726=COLOUR_RGB('',0.917647058823529,0.917647058823529,0.917647058823529);
#727=MANIFOLD_SOLID_BREP('Open CASCADE STEP translator 7.9 1',#718);
#728=SHAPE_DEFINITION_REPRESENTATION(#1191,#729);
#729=SHAPE_REPRESENTATION('Open CASCADE STEP translator 7.9 1',(#730),#1186);
#730=AXIS2_PLACEMENT_3D('',#990,#795,#796);
#731=AXIS2_PLACEMENT_3D('',#991,#797,#798);
#732=AXIS2_PLACEMENT_3D('',#992,#799,#800);
#733=AXIS2_PLACEMENT_3D('',#994,#801,#802);
#734=AXIS2_PLACEMENT_3D('',#995,#803,#804);
#735=AXIS2_PLACEMENT_3D('',#997,#805,#806);
#736=AXIS2_PLACEMENT_3D('',#998,#807,#808);
#737=AXIS2_PLACEMENT_3D('',#1000,#809,#810);
#738=AXIS2_PLACEMENT_3D('',#1009,#815,#816);
#739=AXIS2_PLACEMENT_3D('',#1018,#821,#822);
#740=AXIS2_PLACEMENT_3D('',#1019,#823,#824);
#741=AXIS2_PLACEMENT_3D('',#1021,#825,#826);
#742=AXIS2_PLACEMENT_3D('',#1023,#827,#828);
#743=AXIS2_PLACEMENT_3D('',#1024,#829,#830);
#744=AXIS2_PLACEMENT_3D('',#1030,#833,#834);
#745=AXIS2_PLACEMENT_3D('',#1048,#843,#844);
#746=AXIS2_PLACEMENT_3D('',#1051,#846,#847);
#747=AXIS2_PLACEMENT_3D('',#1052,#848,#849);
#748=AXIS2_PLACEMENT_3D('',#1054,#850,#851);
#749=AXIS2_PLACEMENT_3D('',#1055,#852,#853);
#750=AXIS2_PLACEMENT_3D('',#1057,#854,#855);
#751=AXIS2_PLACEMENT_3D('',#1059,#856,#857);
#752=AXIS2_PLACEMENT_3D('',#1062,#860,#861);
#753=AXIS2_PLACEMENT_3D('',#1064,#862,#863);
#754=AXIS2_PLACEMENT_3D('',#1065,#864,#865);
#755=AXIS2_PLACEMENT_3D('',#1067,#866,#867);
#756=AXIS2_PLACEMENT_3D('',#1073,#871,#872);
#757=AXIS2_PLACEMENT_3D('',#1077,#875,#876);
#758=AXIS2_PLACEMENT_3D('',#1081,#879,#880);
#759=AXIS2_PLACEMENT_3D('',#1083,#882,#883);
#760=AXIS2_PLACEMENT_3D('',#1084,#884,#885);
#761=AXIS2_PLACEMENT_3D('',#1086,#886,#887);
#762=AXIS2_PLACEMENT_3D('',#1087,#888,#889);
#763=AXIS2_PLACEMENT_3D('',#1089,#890,#891);
#764=AXIS2_PLACEMENT_3D('',#1090,#892,#893);
#765=AXIS2_PLACEMENT_3D('',#1092,#894,#895);
#766=AXIS2_PLACEMENT_3D('',#1093,#896,#897);
#767=AXIS2_PLACEMENT_3D('',#1095,#898,#899);
#768=AXIS2_PLACEMENT_3D('',#1097,#900,#901);
#769=AXIS2_PLACEMENT_3D('',#1098,#902,#903);
#770=AXIS2_PLACEMENT_3D('',#1100,#904,#905);
#771=AXIS2_PLACEMENT_3D('',#1106,#909,#910);
#772=AXIS2_PLACEMENT_3D('',#1110,#913,#914);
#773=AXIS2_PLACEMENT_3D('',#1114,#917,#918);
#774=AXIS2_PLACEMENT_3D('',#1116,#920,#921);
#775=AXIS2_PLACEMENT_3D('',#1122,#925,#926);
#776=AXIS2_PLACEMENT_3D('',#1126,#929,#930);
#777=AXIS2_PLACEMENT_3D('',#1130,#933,#934);
#778=AXIS2_PLACEMENT_3D('',#1132,#936,#937);
#779=AXIS2_PLACEMENT_3D('',#1133,#938,#939);
#780=AXIS2_PLACEMENT_3D('',#1135,#940,#941);
#781=AXIS2_PLACEMENT_3D('',#1141,#945,#946);
#782=AXIS2_PLACEMENT_3D('',#1145,#949,#950);
#783=AXIS2_PLACEMENT_3D('',#1149,#953,#954);
#784=AXIS2_PLACEMENT_3D('',#1151,#956,#957);
#785=AXIS2_PLACEMENT_3D('',#1152,#958,#959);
#786=AXIS2_PLACEMENT_3D('',#1154,#960,#961);
#787=AXIS2_PLACEMENT_3D('',#1155,#962,#963);
#788=AXIS2_PLACEMENT_3D('',#1157,#964,#965);
#789=AXIS2_PLACEMENT_3D('',#1159,#966,#967);
#790=AXIS2_PLACEMENT_3D('',#1168,#972,#973);
#791=AXIS2_PLACEMENT_3D('',#1174,#977,#978);
#792=AXIS2_PLACEMENT_3D('',#1178,#981,#982);
#793=AXIS2_PLACEMENT_3D('',#1182,#985,#986);
#794=AXIS2_PLACEMENT_3D('',#1184,#988,#989);
#795=DIRECTION('',(0.,0.,1.));
#796=DIRECTION('',(1.,0.,0.));
#797=DIRECTION('',(0.,0.,-1.));
#798=DIRECTION('',(-1.,0.,0.));
#799=DIRECTION('',(0.,0.,-1.));
#800=DIRECTION('',(-1.,0.,0.));
#801=DIRECTION('',(0.,0.,-1.));
#802=DIRECTION('',(-1.,0.,0.));
#803=DIRECTION('',(0.,0.,-1.));
#804=DIRECTION('',(-1.,0.,0.));
#805=DIRECTION('',(0.,0.,-1.));
#806=DIRECTION('',(-1.,0.,0.));
#807=DIRECTION('',(0.,0.,-1.));
#808=DIRECTION('',(-1.,0.,0.));
#809=DIRECTION('',(0.,0.,1.));
#810=DIRECTION('',(1.,0.,0.));
#811=DIRECTION('',(0.,1.,0.));
#812=DIRECTION('',(1.,0.,0.));
#813=DIRECTION('',(0.,1.,0.));
#814=DIRECTION('',(1.,0.,0.));
#815=DIRECTION('',(0.,0.,1.));
#816=DIRECTION('',(1.,0.,0.));
#817=DIRECTION('',(0.,1.,0.));
#818=DIRECTION('',(1.,0.,0.));
#819=DIRECTION('',(0.,1.,0.));
#820=DIRECTION('',(1.,0.,0.));
#821=DIRECTION('',(0.,0.,-1.));
#822=DIRECTION('',(-1.,0.,0.));
#823=DIRECTION('',(0.,0.,-1.));
#824=DIRECTION('',(-1.,0.,0.));
#825=DIRECTION('',(0.,0.,-1.));
#826=DIRECTION('',(-1.,0.,0.));
#827=DIRECTION('',(0.,0.,-1.));
#828=DIRECTION('',(1.,0.,0.));
#829=DIRECTION('',(0.,0.,1.));
#830=DIRECTION('',(1.,0.,0.));
#831=DIRECTION('',(0.,-0.857167300702106,-0.515038074910064));
#832=DIRECTION('',(0.,0.857167300702106,-0.515038074910064));
#833=DIRECTION('',(0.,0.,1.));
#834=DIRECTION('',(1.,0.,0.));
#835=DIRECTION('',(0.,1.,0.));
#836=DIRECTION('',(1.,0.,0.));
#837=DIRECTION('',(0.,1.,0.));
#838=DIRECTION('',(1.,0.,0.));
#839=DIRECTION('',(1.,0.,0.));
#840=DIRECTION('',(0.,1.,0.));
#841=DIRECTION('',(1.,0.,0.));
#842=DIRECTION('',(0.,1.,0.));
#843=DIRECTION('',(0.,0.,1.));
#844=DIRECTION('',(1.,0.,0.));
#845=DIRECTION('',(0.,1.,0.));
#846=DIRECTION('',(0.,0.,-1.));
#847=DIRECTION('',(-1.,0.,0.));
#848=DIRECTION('',(0.,0.,-1.));
#849=DIRECTION('',(-1.,0.,0.));
#850=DIRECTION('',(0.,0.,-1.));
#851=DIRECTION('',(-1.,0.,0.));
#852=DIRECTION('',(0.,0.,-1.));
#853=DIRECTION('',(-1.,0.,0.));
#854=DIRECTION('',(0.,0.,-1.));
#855=DIRECTION('',(-1.,0.,0.));
#856=DIRECTION('',(0.,0.,1.));
#857=DIRECTION('',(1.,0.,0.));
#858=DIRECTION('',(0.,0.,1.));
#859=DIRECTION('',(0.,0.,1.));
#860=DIRECTION('',(0.,0.,1.));
#861=DIRECTION('',(1.,0.,0.));
#862=DIRECTION('',(0.,0.,-1.));
#863=DIRECTION('',(-1.,0.,0.));
#864=DIRECTION('',(0.,0.,-1.));
#865=DIRECTION('',(-1.,0.,0.));
#866=DIRECTION('',(1.,0.,0.));
#867=DIRECTION('',(0.,0.,1.));
#868=DIRECTION('',(0.,0.,1.));
#869=DIRECTION('',(0.,1.,0.));
#870=DIRECTION('',(0.,0.,1.));
#871=DIRECTION('',(0.,1.,0.));
#872=DIRECTION('',(0.,0.,1.));
#873=DIRECTION('',(1.,0.,0.));
#874=DIRECTION('',(0.,0.,1.));
#875=DIRECTION('',(0.,1.,0.));
#876=DIRECTION('',(0.,0.,1.));
#877=DIRECTION('',(0.,0.,1.));
#878=DIRECTION('',(1.,0.,0.));
#879=DIRECTION('',(1.,0.,0.));
#880=DIRECTION('',(0.,0.,1.));
#881=DIRECTION('',(0.,1.,0.));
#882=DIRECTION('',(0.,0.,-1.));
#883=DIRECTION('',(-1.,0.,0.));
#884=DIRECTION('',(0.,0.,-1.));
#885=DIRECTION('',(-1.,0.,0.));
#886=DIRECTION('',(0.,0.,-1.));
#887=DIRECTION('',(-1.,0.,0.));
#888=DIRECTION('',(0.,0.,-1.));
#889=DIRECTION('',(-1.,0.,0.));
#890=DIRECTION('',(0.,0.,-1.));
#891=DIRECTION('',(-1.,0.,0.));
#892=DIRECTION('',(0.,0.,-1.));
#893=DIRECTION('',(-1.,0.,0.));
#894=DIRECTION('',(0.,0.,-1.));
#895=DIRECTION('',(-1.,0.,0.));
#896=DIRECTION('',(0.,0.,-1.));
#897=DIRECTION('',(-1.,0.,0.));
#898=DIRECTION('',(0.,0.,-1.));
#899=DIRECTION('',(-1.,0.,0.));
#900=DIRECTION('',(0.,0.,1.));
#901=DIRECTION('',(-1.,0.,0.));
#902=DIRECTION('',(0.,0.,-1.));
#903=DIRECTION('',(-1.,0.,0.));
#904=DIRECTION('',(1.,0.,0.));
#905=DIRECTION('',(0.,0.,1.));
#906=DIRECTION('',(0.,1.,0.));
#907=DIRECTION('',(0.,0.,1.));
#908=DIRECTION('',(0.,0.,1.));
#909=DIRECTION('',(0.,1.,0.));
#910=DIRECTION('',(0.,0.,1.));
#911=DIRECTION('',(0.,0.,1.));
#912=DIRECTION('',(1.,0.,0.));
#913=DIRECTION('',(0.,1.,0.));
#914=DIRECTION('',(0.,0.,1.));
#915=DIRECTION('',(1.,0.,0.));
#916=DIRECTION('',(0.,0.,1.));
#917=DIRECTION('',(1.,0.,0.));
#918=DIRECTION('',(0.,0.,1.));
#919=DIRECTION('',(0.,1.,0.));
#920=DIRECTION('',(1.,0.,0.));
#921=DIRECTION('',(0.,0.,1.));
#922=DIRECTION('',(0.,1.,0.));
#923=DIRECTION('',(0.,0.,1.));
#924=DIRECTION('',(0.,0.,1.));
#925=DIRECTION('',(0.,1.,0.));
#926=DIRECTION('',(0.,0.,1.));
#927=DIRECTION('',(0.,0.,1.));
#928=DIRECTION('',(1.,0.,0.));
#929=DIRECTION('',(0.,1.,0.));
#930=DIRECTION('',(0.,0.,1.));
#931=DIRECTION('',(1.,0.,0.));
#932=DIRECTION('',(0.,0.,1.));
#933=DIRECTION('',(1.,0.,0.));
#934=DIRECTION('',(0.,0.,1.));
#935=DIRECTION('',(0.,1.,0.));
#936=DIRECTION('',(0.,0.,-1.));
#937=DIRECTION('',(-1.,0.,0.));
#938=DIRECTION('',(0.,0.,-1.));
#939=DIRECTION('',(-1.,0.,0.));
#940=DIRECTION('',(1.,0.,0.));
#941=DIRECTION('',(0.,0.,1.));
#942=DIRECTION('',(0.,0.,1.));
#943=DIRECTION('',(0.,1.,0.));
#944=DIRECTION('',(0.,0.,1.));
#945=DIRECTION('',(0.,1.,0.));
#946=DIRECTION('',(0.,0.,1.));
#947=DIRECTION('',(0.,0.,1.));
#948=DIRECTION('',(1.,0.,0.));
#949=DIRECTION('',(0.,1.,0.));
#950=DIRECTION('',(0.,0.,1.));
#951=DIRECTION('',(1.,0.,0.));
#952=DIRECTION('',(0.,0.,1.));
#953=DIRECTION('',(1.,0.,0.));
#954=DIRECTION('',(0.,0.,1.));
#955=DIRECTION('',(0.,1.,0.));
#956=DIRECTION('',(0.,0.,-1.));
#957=DIRECTION('',(-1.,0.,0.));
#958=DIRECTION('',(0.,0.,-1.));
#959=DIRECTION('',(-1.,0.,0.));
#960=DIRECTION('',(0.,1.,0.));
#961=DIRECTION('',(0.,0.,1.));
#962=DIRECTION('',(0.,1.,0.));
#963=DIRECTION('',(0.,0.,1.));
#964=DIRECTION('',(0.,1.,0.));
#965=DIRECTION('',(0.,0.,1.));
#966=DIRECTION('',(1.,0.,0.));
#967=DIRECTION('',(0.,0.,1.));
#968=DIRECTION('',(0.,0.,1.));
#969=DIRECTION('',(0.,1.,0.));
#970=DIRECTION('',(0.,0.,1.));
#971=DIRECTION('',(0.,1.,0.));
#972=DIRECTION('',(0.,0.,1.));
#973=DIRECTION('',(1.,0.,0.));
#974=DIRECTION('',(1.,0.,0.));
#975=DIRECTION('',(1.,0.,0.));
#976=DIRECTION('',(0.,1.,0.));
#977=DIRECTION('',(0.,1.,0.));
#978=DIRECTION('',(0.,0.,1.));
#979=DIRECTION('',(0.,0.,1.));
#980=DIRECTION('',(1.,0.,0.));
#981=DIRECTION('',(0.,0.,1.));
#982=DIRECTION('',(1.,0.,0.));
#983=DIRECTION('',(0.,1.,0.));
#984=DIRECTION('',(1.,0.,0.));
#985=DIRECTION('',(0.,1.,0.));
#986=DIRECTION('',(0.,0.,1.));
#987=DIRECTION('',(0.,0.,1.));
#988=DIRECTION('',(1.,0.,0.));
#989=DIRECTION('',(0.,0.,1.));
#990=CARTESIAN_POINT('',(0.,0.,0.));
#991=CARTESIAN_POINT('',(94.5,66.5,-15.35));
#992=CARTESIAN_POINT('',(94.5,66.5,-15.35));
#993=CARTESIAN_POINT('',(91.,66.5,-15.35));
#994=CARTESIAN_POINT('',(35.,74.9,-19.55));
#995=CARTESIAN_POINT('',(43.4,74.9,-19.55));
#996=CARTESIAN_POINT('',(39.9,74.9,-19.55));
#997=CARTESIAN_POINT('',(35.,74.9,-19.55));
#998=CARTESIAN_POINT('',(35.,74.9,-19.55));
#999=CARTESIAN_POINT('',(31.5,74.9,-19.55));
#1000=CARTESIAN_POINT('',(63.,14.,-16.75));
#1001=CARTESIAN_POINT('',(72.8,14.,-16.75));
#1002=CARTESIAN_POINT('',(72.8,14.,-16.75));
#1003=CARTESIAN_POINT('',(72.8,70.,-16.75));
#1004=CARTESIAN_POINT('',(72.8,14.,-16.75));
#1005=CARTESIAN_POINT('',(81.2,14.,-16.75));
#1006=CARTESIAN_POINT('',(81.2,14.,-16.75));
#1007=CARTESIAN_POINT('',(81.2,70.,-16.75));
#1008=CARTESIAN_POINT('',(72.8,70.,-16.75));
#1009=CARTESIAN_POINT('',(63.,14.,-16.75));
#1010=CARTESIAN_POINT('',(63.,14.,-16.75));
#1011=CARTESIAN_POINT('',(63.,14.,-16.75));
#1012=CARTESIAN_POINT('',(63.,70.,-16.75));
#1013=CARTESIAN_POINT('',(63.,14.,-16.75));
#1014=CARTESIAN_POINT('',(71.4,14.,-16.75));
#1015=CARTESIAN_POINT('',(71.4,14.,-16.75));
#1016=CARTESIAN_POINT('',(71.4,70.,-16.75));
#1017=CARTESIAN_POINT('',(63.,70.,-16.75));
#1018=CARTESIAN_POINT('',(10.5,10.5,-5.55));
#1019=CARTESIAN_POINT('',(94.5,17.5,-5.55));
#1020=CARTESIAN_POINT('',(91.7,17.5,-5.55));
#1021=CARTESIAN_POINT('',(94.5,17.5,-5.55));
#1022=CARTESIAN_POINT('',(89.6,17.5,-5.55));
#1023=CARTESIAN_POINT('',(56.,38.5,-20.95));
#1024=CARTESIAN_POINT('',(56.,38.5,-20.95));
#1025=CARTESIAN_POINT('',(56.,35.,-20.95));
#1026=CARTESIAN_POINT('',(56.,42.,-20.95));
#1027=CARTESIAN_POINT('',(56.,38.5,-18.846987833402));
#1028=CARTESIAN_POINT('',(56.,38.5,-18.846987833402));
#1029=CARTESIAN_POINT('',(56.,38.5,-18.846987833402));
#1030=CARTESIAN_POINT('',(14.,14.,-24.45));
#1031=CARTESIAN_POINT('',(30.8,15.4,-24.45));
#1032=CARTESIAN_POINT('',(30.8,15.4,-24.45));
#1033=CARTESIAN_POINT('',(30.8,47.6,-24.45));
#1034=CARTESIAN_POINT('',(30.8,47.6,-24.45));
#1035=CARTESIAN_POINT('',(36.4,47.6,-24.45));
#1036=CARTESIAN_POINT('',(36.4,15.4,-24.45));
#1037=CARTESIAN_POINT('',(36.4,15.4,-24.45));
#1038=CARTESIAN_POINT('',(30.8,15.4,-24.45));
#1039=CARTESIAN_POINT('',(14.,49.,-24.45));
#1040=CARTESIAN_POINT('',(14.,49.,-24.45));
#1041=CARTESIAN_POINT('',(56.,49.,-24.45));
#1042=CARTESIAN_POINT('',(14.,14.,-24.45));
#1043=CARTESIAN_POINT('',(14.,14.,-24.45));
#1044=CARTESIAN_POINT('',(14.,14.,-24.45));
#1045=CARTESIAN_POINT('',(56.,14.,-24.45));
#1046=CARTESIAN_POINT('',(56.,14.,-24.45));
#1047=CARTESIAN_POINT('',(56.,35.,-24.45));
#1048=CARTESIAN_POINT('',(56.,38.5,-24.45));
#1049=CARTESIAN_POINT('',(56.,42.,-24.45));
#1050=CARTESIAN_POINT('',(56.,14.,-24.45));
#1051=CARTESIAN_POINT('',(10.5,10.5,-5.55));
#1052=CARTESIAN_POINT('',(10.5,10.5,-5.55));
#1053=CARTESIAN_POINT('',(9.975,10.5,-5.55));
#1054=CARTESIAN_POINT('',(94.5,42.,0.049999999999989));
#1055=CARTESIAN_POINT('',(94.5,42.,-34.95));
#1056=CARTESIAN_POINT('',(91.7,42.,-34.95));
#1057=CARTESIAN_POINT('',(94.5,42.,-2.05));
#1058=CARTESIAN_POINT('',(91.7,42.,-2.05));
#1059=CARTESIAN_POINT('',(56.,38.5,-34.95));
#1060=CARTESIAN_POINT('',(56.,35.,-34.95));
#1061=CARTESIAN_POINT('',(56.,42.,-34.95));
#1062=CARTESIAN_POINT('',(56.,38.5,-34.95));
#1063=CARTESIAN_POINT('',(59.5,38.5,-34.95));
#1064=CARTESIAN_POINT('',(94.5,17.5,0.049999999999989));
#1065=CARTESIAN_POINT('',(94.5,17.5,-34.95));
#1066=CARTESIAN_POINT('',(91.7,17.5,-34.95));
#1067=CARTESIAN_POINT('',(36.4,15.4,-34.95));
#1068=CARTESIAN_POINT('',(36.4,47.6,-34.95));
#1069=CARTESIAN_POINT('',(36.4,47.6,-34.95));
#1070=CARTESIAN_POINT('',(36.4,15.4,-34.95));
#1071=CARTESIAN_POINT('',(36.4,15.4,-34.95));
#1072=CARTESIAN_POINT('',(36.4,15.4,-34.95));
#1073=CARTESIAN_POINT('',(30.8,15.4,-34.95));
#1074=CARTESIAN_POINT('',(30.8,15.4,-34.95));
#1075=CARTESIAN_POINT('',(30.8,15.4,-34.95));
#1076=CARTESIAN_POINT('',(30.8,15.4,-34.95));
#1077=CARTESIAN_POINT('',(30.8,47.6,-34.95));
#1078=CARTESIAN_POINT('',(30.8,47.6,-34.95));
#1079=CARTESIAN_POINT('',(30.8,47.6,-34.95));
#1080=CARTESIAN_POINT('',(30.8,47.6,-34.95));
#1081=CARTESIAN_POINT('',(30.8,15.4,-34.95));
#1082=CARTESIAN_POINT('',(30.8,15.4,-34.95));
#1083=CARTESIAN_POINT('',(94.5,66.5,0.049999999999989));
#1084=CARTESIAN_POINT('',(94.5,66.5,0.049999999999989));
#1085=CARTESIAN_POINT('',(91.,66.5,0.049999999999989));
#1086=CARTESIAN_POINT('',(43.4,74.9,0.049999999999989));
#1087=CARTESIAN_POINT('',(43.4,74.9,0.049999999999989));
#1088=CARTESIAN_POINT('',(39.9,74.9,0.049999999999989));
#1089=CARTESIAN_POINT('',(35.,74.9,0.049999999999989));
#1090=CARTESIAN_POINT('',(35.,74.9,0.049999999999989));
#1091=CARTESIAN_POINT('',(31.5,74.9,0.049999999999989));
#1092=CARTESIAN_POINT('',(10.5,66.5,0.049999999999989));
#1093=CARTESIAN_POINT('',(10.5,66.5,-34.95));
#1094=CARTESIAN_POINT('',(7.7,66.5,-34.95));
#1095=CARTESIAN_POINT('',(10.5,66.5,0.049999999999989));
#1096=CARTESIAN_POINT('',(7.7,66.5,0.049999999999989));
#1097=CARTESIAN_POINT('',(94.5,42.,0.049999999999989));
#1098=CARTESIAN_POINT('',(94.5,42.,0.049999999999989));
#1099=CARTESIAN_POINT('',(89.6,42.,0.049999999999989));
#1100=CARTESIAN_POINT('',(81.2,14.,-16.75));
#1101=CARTESIAN_POINT('',(81.2,14.,0.049999999999989));
#1102=CARTESIAN_POINT('',(81.2,14.,0.049999999999989));
#1103=CARTESIAN_POINT('',(81.2,70.,0.049999999999989));
#1104=CARTESIAN_POINT('',(81.2,70.,-16.75));
#1105=CARTESIAN_POINT('',(81.2,14.,-16.75));
#1106=CARTESIAN_POINT('',(14.,14.,-24.45));
#1107=CARTESIAN_POINT('',(72.8,14.,-16.75));
#1108=CARTESIAN_POINT('',(72.8,14.,0.049999999999989));
#1109=CARTESIAN_POINT('',(72.8,14.,0.049999999999989));
#1110=CARTESIAN_POINT('',(63.,70.,-16.75));
#1111=CARTESIAN_POINT('',(72.8,70.,0.049999999999989));
#1112=CARTESIAN_POINT('',(72.8,70.,0.049999999999989));
#1113=CARTESIAN_POINT('',(72.8,70.,-16.75));
#1114=CARTESIAN_POINT('',(72.8,14.,-16.75));
#1115=CARTESIAN_POINT('',(72.8,14.,0.049999999999989));
#1116=CARTESIAN_POINT('',(71.4,14.,-16.75));
#1117=CARTESIAN_POINT('',(71.4,14.,0.049999999999989));
#1118=CARTESIAN_POINT('',(71.4,14.,0.049999999999989));
#1119=CARTESIAN_POINT('',(71.4,70.,0.049999999999989));
#1120=CARTESIAN_POINT('',(71.4,70.,-16.75));
#1121=CARTESIAN_POINT('',(71.4,14.,-16.75));
#1122=CARTESIAN_POINT('',(14.,14.,-24.45));
#1123=CARTESIAN_POINT('',(63.,14.,-16.75));
#1124=CARTESIAN_POINT('',(63.,14.,0.049999999999989));
#1125=CARTESIAN_POINT('',(63.,14.,0.049999999999989));
#1126=CARTESIAN_POINT('',(63.,70.,-16.75));
#1127=CARTESIAN_POINT('',(63.,70.,0.049999999999989));
#1128=CARTESIAN_POINT('',(63.,70.,0.049999999999989));
#1129=CARTESIAN_POINT('',(63.,70.,-16.75));
#1130=CARTESIAN_POINT('',(63.,14.,-16.75));
#1131=CARTESIAN_POINT('',(63.,14.,0.049999999999989));
#1132=CARTESIAN_POINT('',(94.5,17.5,0.049999999999989));
#1133=CARTESIAN_POINT('',(94.5,17.5,0.049999999999989));
#1134=CARTESIAN_POINT('',(89.6,17.5,0.049999999999989));
#1135=CARTESIAN_POINT('',(56.,14.,-24.45));
#1136=CARTESIAN_POINT('',(56.,14.,-24.45));
#1137=CARTESIAN_POINT('',(56.,14.,0.049999999999989));
#1138=CARTESIAN_POINT('',(56.,14.,0.049999999999989));
#1139=CARTESIAN_POINT('',(56.,49.,0.049999999999989));
#1140=CARTESIAN_POINT('',(56.,49.,-24.45));
#1141=CARTESIAN_POINT('',(14.,14.,-24.45));
#1142=CARTESIAN_POINT('',(14.,14.,-24.45));
#1143=CARTESIAN_POINT('',(14.,14.,0.049999999999989));
#1144=CARTESIAN_POINT('',(14.,14.,0.049999999999989));
#1145=CARTESIAN_POINT('',(14.,49.,-24.45));
#1146=CARTESIAN_POINT('',(14.,49.,0.049999999999989));
#1147=CARTESIAN_POINT('',(14.,49.,0.049999999999989));
#1148=CARTESIAN_POINT('',(14.,49.,-24.45));
#1149=CARTESIAN_POINT('',(14.,14.,-24.45));
#1150=CARTESIAN_POINT('',(14.,14.,0.049999999999989));
#1151=CARTESIAN_POINT('',(10.5,10.5,0.049999999999989));
#1152=CARTESIAN_POINT('',(10.5,10.5,0.049999999999989));
#1153=CARTESIAN_POINT('',(9.975,10.5,0.049999999999989));
#1154=CARTESIAN_POINT('',(103.6,42.,-17.7689701921629));
#1155=CARTESIAN_POINT('',(103.6,84.,-17.7689701921629));
#1156=CARTESIAN_POINT('',(103.6,84.,-14.968970192163));
#1157=CARTESIAN_POINT('',(103.6,0.,-17.7689701921629));
#1158=CARTESIAN_POINT('',(103.6,0.,-14.968970192163));
#1159=CARTESIAN_POINT('',(112.,0.,-34.95));
#1160=CARTESIAN_POINT('',(112.,0.,-34.95));
#1161=CARTESIAN_POINT('',(112.,0.,-34.95));
#1162=CARTESIAN_POINT('',(112.,0.,0.049999999999989));
#1163=CARTESIAN_POINT('',(112.,0.,-34.95));
#1164=CARTESIAN_POINT('',(112.,84.,-34.95));
#1165=CARTESIAN_POINT('',(112.,84.,-34.95));
#1166=CARTESIAN_POINT('',(112.,84.,0.049999999999989));
#1167=CARTESIAN_POINT('',(112.,0.,0.049999999999989));
#1168=CARTESIAN_POINT('',(0.,0.,-34.95));
#1169=CARTESIAN_POINT('',(0.,84.,-34.95));
#1170=CARTESIAN_POINT('',(0.,84.,-34.95));
#1171=CARTESIAN_POINT('',(0.,0.,-34.95));
#1172=CARTESIAN_POINT('',(0.,0.,-34.95));
#1173=CARTESIAN_POINT('',(0.,0.,-34.95));
#1174=CARTESIAN_POINT('',(0.,84.,-34.95));
#1175=CARTESIAN_POINT('',(0.,84.,-34.95));
#1176=CARTESIAN_POINT('',(0.,84.,0.049999999999989));
#1177=CARTESIAN_POINT('',(0.,84.,0.049999999999989));
#1178=CARTESIAN_POINT('',(0.,0.,0.049999999999989));
#1179=CARTESIAN_POINT('',(0.,0.,0.049999999999989));
#1180=CARTESIAN_POINT('',(0.,0.,0.049999999999989));
#1181=CARTESIAN_POINT('',(0.,0.,0.049999999999989));
#1182=CARTESIAN_POINT('',(0.,0.,-34.95));
#1183=CARTESIAN_POINT('',(0.,0.,-34.95));
#1184=CARTESIAN_POINT('',(0.,0.,-34.95));
#1185=MECHANICAL_DESIGN_GEOMETRIC_PRESENTATION_REPRESENTATION('',(#719),#1186);
#1186=(
GEOMETRIC_REPRESENTATION_CONTEXT(3)
GLOBAL_UNCERTAINTY_ASSIGNED_CONTEXT((#1187))
GLOBAL_UNIT_ASSIGNED_CONTEXT((#1190,#1189,#1188))
REPRESENTATION_CONTEXT('Open CASCADE STEP translator 7.9 1','TOP_LEVEL_ASSEMBLY_PART')
);
#1187=UNCERTAINTY_MEASURE_WITH_UNIT(LENGTH_MEASURE(0.2),#1190,'DISTANCE_ACCURACY_VALUE','Maximum Tolerance applied to model');
#1188=(
NAMED_UNIT(*)
SI_UNIT($,.STERADIAN.)
SOLID_ANGLE_UNIT()
);
#1189=(
NAMED_UNIT(*)
PLANE_ANGLE_UNIT()
SI_UNIT($,.RADIAN.)
);
#1190=(
LENGTH_UNIT()
NAMED_UNIT(*)
SI_UNIT(.MILLI.,.METRE.)
);
#1191=PRODUCT_DEFINITION_SHAPE('','',#1192);
#1192=PRODUCT_DEFINITION('','',#1194,#1193);
#1193=PRODUCT_DEFINITION_CONTEXT('',#1200,'design');
#1194=PRODUCT_DEFINITION_FORMATION_WITH_SPECIFIED_SOURCE('','',#1196,.NOT_KNOWN.);
#1195=PRODUCT_RELATED_PRODUCT_CATEGORY('','',(#1196));
#1196=PRODUCT('Open CASCADE STEP translator 7.9 1','Open CASCADE STEP translator 7.9 1','Open CASCADE STEP translator 7.9 1',(#1198));
#1197=PRODUCT_CATEGORY('','');
#1198=PRODUCT_CONTEXT('',#1200,'mechanical');
#1199=APPLICATION_PROTOCOL_DEFINITION('international standard','ap242_managed_model_based_3d_engineering',2020,#1200);
#1200=APPLICATION_CONTEXT('managed model based 3d engineering');
ENDSEC;
END-ISO-10303-21;
