ISO-10303-21;
HEADER;
/*Generated by software containing ST-Developer
 * from STEP Tools, Inc. (www.steptools.com) 
 */
/*OPTION: using custom renumber hook */
/*description */
/*implementation_level */
FILE_DESCRIPTION(('STEP AP242 Edition 2','STEP AP242 Edition 2''CAx-IF Rec.Pracs.---Representation and Presentation of Product Manufa
cturing Information (PMI)---4.0---2014-10-13','STEP AP242 Edition 2''CAx-IF Rec.Pracs.---Representation and Presentation of Product Manufa
cturing Information (PMI)---4.0---2014-10-13''CAx-IF Rec.Pracs.---3D Tessellated Geometry---0.4---2014-09-14','STEP AP242 Edition 2''CAx-IF Rec.Pracs.---Representation and Presentation of Product Manufa
cturing Information (PMI)---4.0---2014-10-13''CAx-IF Rec.Pracs.---3D Tessellated Geometry---0.4---2014-09-14''2;1','STEP AP242 Edition 2''CAx-IF Rec.Pracs.---Representation and Presentation of Product Manufa
cturing Information (PMI)---4.0---2014-10-13''CAx-IF Rec.Pracs.---3D Tessellated Geometry---0.4---2014-09-14''2;1''CAx-IF Rec.Pracs.---User Defined Attributes---1.5---2016-08-15'),'2;1');
/*name */
/*time_stamp */
/*author */
/*organization */
/*preprocessor_version */
/*originating_system */
/*authorisation */
FILE_NAME('/vol/tmp/translate-2274625021317166032/BejenaruL7 - Part 1.step','2026-03-19T02:20:30',(''),(''),'ST-DEVELOPER v20','ONSHAPE BY PTC INC, 1.212','  ');
FILE_SCHEMA(('AP242_MANAGED_MODEL_BASED_3D_ENGINEERING_MIM_LF { 1 0 10303 442 3 1 4 }'));
ENDSEC;
DATA;
#10=SHAPE_REPRESENTATION_RELATIONSHIP('','',#1049,#11);
#11=ADVANCED_BREP_SHAPE_REPRESENTATION('',(#1047),#1891);
#12=VERTEX_LOOP('',#584);
#13=VERTEX_LOOP('',#586);
#14=CONICAL_SURFACE('',#1136,5.,1.02974425867665);
#15=CONICAL_SURFACE('',#1139,5.,1.02974425867665);
#16=CONICAL_SURFACE('',#1174,6.,1.02974425867665);
#17=CONICAL_SURFACE('',#1182,6.,1.02974425867665);
#18=TOROIDAL_SURFACE('',#1133,21.,4.);
#19=B_SPLINE_CURVE_WITH_KNOTS('',3,(#1591,#1592,#1593,#1594,#1595,#1596,#1597,#1598,#1599,#1600,#1601,#1602,#1603,#1604,#1605,#1606,#1607,#1608,#1609),.UNSPECIFIED.,.T.,.F.,(1,1,1,1,1,1,1,1,1,1,1,1,1,1,1,1,1,1,1,1,1,1,1),(-0.0117373653437693,-0.00782491022917952,-0.00391245511458976,0.,0.00391245511458976,0.00782491022917952,0.0117373653437693,0.015649820458359,0.0195622755729488,0.0234747306875386,0.0273871858021283,0.0312996409167181,0.0352120960313078,0.0391245511458976,0.0430370062604874,0.0469494613750771,0.0508619164896669,0.0547743716042567,0.0586868267188464,0.0625992818334362,0.0665117369480259,0.0704241920626157,0.0743366471772055),.UNSPECIFIED.);
#20=B_SPLINE_CURVE_WITH_KNOTS('',3,(#1611,#1612,#1613,#1614,#1615,#1616,#1617,#1618,#1619,#1620,#1621,#1622,#1623,#1624,#1625,#1626,#1627,#1628,#1629),.UNSPECIFIED.,.T.,.F.,(1,1,1,1,1,1,1,1,1,1,1,1,1,1,1,1,1,1,1,1,1,1,1),(-0.0117373653437693,-0.00782491022917952,-0.00391245511458976,0.,0.00391245511458976,0.00782491022917952,0.0117373653437693,0.015649820458359,0.0195622755729488,0.0234747306875386,0.0273871858021283,0.0312996409167181,0.0352120960313078,0.0391245511458976,0.0430370062604874,0.0469494613750771,0.0508619164896669,0.0547743716042567,0.0586868267188464,0.0625992818334362,0.0665117369480259,0.0704241920626157,0.0743366471772055),.UNSPECIFIED.);
#21=B_SPLINE_CURVE_WITH_KNOTS('',3,(#1738,#1739,#1740,#1741,#1742,#1743,#1744,#1745,#1746,#1747,#1748),.UNSPECIFIED.,.F.,.F.,(4,1,1,1,1,1,1,1,4),(0.,0.0014952773384349,0.0029905546768698,0.00448583201530469,0.00598110935373959,0.00747638669217449,0.00897166403060939,0.0104669413690443,0.0119622187074792),.UNSPECIFIED.);
#22=B_SPLINE_CURVE_WITH_KNOTS('',3,(#1749,#1750,#1751,#1752,#1753,#1754,#1755,#1756,#1757,#1758,#1759),.UNSPECIFIED.,.F.,.F.,(4,1,1,1,1,1,1,1,4),(0.,0.0014952773384349,0.00299055467686979,0.00448583201530469,0.00598110935373959,0.00747638669217449,0.00897166403060938,0.0104669413690443,0.0119622187074792),.UNSPECIFIED.);
#23=B_SPLINE_CURVE_WITH_KNOTS('',3,(#1776,#1777,#1778,#1779,#1780),.UNSPECIFIED.,.F.,.F.,(4,1,4),(0.,0.00183696213101506,0.00367392426203011),.UNSPECIFIED.);
#24=B_SPLINE_CURVE_WITH_KNOTS('',3,(#1781,#1782,#1783,#1784,#1785),.UNSPECIFIED.,.F.,.F.,(4,1,4),(0.,0.00183696213101506,0.00367392426203011),.UNSPECIFIED.);
#25=B_SPLINE_CURVE_WITH_KNOTS('',3,(#1847,#1848,#1849,#1850,#1851,#1852,#1853,#1854,#1855,#1856,#1857),.UNSPECIFIED.,.T.,.F.,(1,1,1,1,1,1,1,1,1,1,1,1,1,1,1),(-0.00592782843441149,-0.00395188562294099,-0.0019759428114705,0.,0.0019759428114705,0.00395188562294099,0.00592782843441149,0.00790377124588199,0.00987971405735249,0.011855656868823,0.0138315996802935,0.015807542491764,0.0177834853032345,0.019759428114705,0.0217353709261755),.UNSPECIFIED.);
#26=B_SPLINE_CURVE_WITH_KNOTS('',3,(#1871,#1872,#1873,#1874,#1875,#1876,#1877,#1878,#1879,#1880,#1881),.UNSPECIFIED.,.T.,.F.,(1,1,1,1,1,1,1,1,1,1,1,1,1,1,1),(-0.00592782843441149,-0.00395188562294099,-0.0019759428114705,0.,0.0019759428114705,0.00395188562294099,0.00592782843441149,0.00790377124588198,0.00987971405735248,0.011855656868823,0.0138315996802935,0.015807542491764,0.0177834853032345,0.019759428114705,0.0217353709261755),.UNSPECIFIED.);
#27=CYLINDRICAL_SURFACE('',#1077,71.);
#28=CYLINDRICAL_SURFACE('',#1095,8.);
#29=CYLINDRICAL_SURFACE('',#1096,47.5);
#30=CYLINDRICAL_SURFACE('',#1097,8.);
#31=CYLINDRICAL_SURFACE('',#1100,8.);
#32=CYLINDRICAL_SURFACE('',#1101,47.5);
#33=CYLINDRICAL_SURFACE('',#1102,8.);
#34=CYLINDRICAL_SURFACE('',#1105,11.);
#35=CYLINDRICAL_SURFACE('',#1108,31.);
#36=CYLINDRICAL_SURFACE('',#1111,11.);
#37=CYLINDRICAL_SURFACE('',#1114,31.);
#38=CYLINDRICAL_SURFACE('',#1124,31.);
#39=CYLINDRICAL_SURFACE('',#1125,23.);
#40=CYLINDRICAL_SURFACE('',#1129,15.);
#41=CYLINDRICAL_SURFACE('',#1135,25.);
#42=CYLINDRICAL_SURFACE('',#1138,5.);
#43=CYLINDRICAL_SURFACE('',#1141,5.);
#44=CYLINDRICAL_SURFACE('',#1142,5.5);
#45=CYLINDRICAL_SURFACE('',#1146,9.);
#46=CYLINDRICAL_SURFACE('',#1147,5.5);
#47=CYLINDRICAL_SURFACE('',#1151,9.);
#48=CYLINDRICAL_SURFACE('',#1152,5.5);
#49=CYLINDRICAL_SURFACE('',#1156,9.);
#50=CYLINDRICAL_SURFACE('',#1157,5.5);
#51=CYLINDRICAL_SURFACE('',#1161,9.);
#52=CYLINDRICAL_SURFACE('',#1162,5.5);
#53=CYLINDRICAL_SURFACE('',#1166,9.);
#54=CYLINDRICAL_SURFACE('',#1167,5.5);
#55=CYLINDRICAL_SURFACE('',#1171,9.);
#56=CYLINDRICAL_SURFACE('',#1172,10.);
#57=CYLINDRICAL_SURFACE('',#1177,6.);
#58=CYLINDRICAL_SURFACE('',#1180,10.);
#59=CYLINDRICAL_SURFACE('',#1185,6.);
#60=CYLINDRICAL_SURFACE('',#1188,2.5);
#61=CYLINDRICAL_SURFACE('',#1189,2.5);
#62=CYLINDRICAL_SURFACE('',#1190,2.5);
#63=CYLINDRICAL_SURFACE('',#1191,2.5);
#64=LINE('',#1525,#104);
#65=LINE('',#1529,#105);
#66=LINE('',#1537,#106);
#67=LINE('',#1541,#107);
#68=LINE('',#1545,#108);
#69=LINE('',#1549,#109);
#70=LINE('',#1553,#110);
#71=LINE('',#1557,#111);
#72=LINE('',#1563,#112);
#73=LINE('',#1568,#113);
#74=LINE('',#1581,#114);
#75=LINE('',#1585,#115);
#76=LINE('',#1631,#116);
#77=LINE('',#1635,#117);
#78=LINE('',#1636,#118);
#79=LINE('',#1637,#119);
#80=LINE('',#1647,#120);
#81=LINE('',#1655,#121);
#82=LINE('',#1672,#122);
#83=LINE('',#1673,#123);
#84=LINE('',#1675,#124);
#85=LINE('',#1677,#125);
#86=LINE('',#1680,#126);
#87=LINE('',#1682,#127);
#88=LINE('',#1684,#128);
#89=LINE('',#1686,#129);
#90=LINE('',#1690,#130);
#91=LINE('',#1692,#131);
#92=LINE('',#1696,#132);
#93=LINE('',#1698,#133);
#94=LINE('',#1700,#134);
#95=LINE('',#1704,#135);
#96=LINE('',#1706,#136);
#97=LINE('',#1708,#137);
#98=LINE('',#1712,#138);
#99=LINE('',#1714,#139);
#100=LINE('',#1716,#140);
#101=LINE('',#1720,#141);
#102=LINE('',#1729,#142);
#103=LINE('',#1734,#143);
#104=VECTOR('',#1202,1000.);
#105=VECTOR('',#1205,1000.);
#106=VECTOR('',#1212,1000.);
#107=VECTOR('',#1215,1000.);
#108=VECTOR('',#1218,1000.);
#109=VECTOR('',#1221,1000.);
#110=VECTOR('',#1224,1000.);
#111=VECTOR('',#1227,1000.);
#112=VECTOR('',#1234,1000.);
#113=VECTOR('',#1237,1000.);
#114=VECTOR('',#1250,1000.);
#115=VECTOR('',#1253,1000.);
#116=VECTOR('',#1260,1000.);
#117=VECTOR('',#1263,1000.);
#118=VECTOR('',#1264,1000.);
#119=VECTOR('',#1265,1000.);
#120=VECTOR('',#1276,1000.);
#121=VECTOR('',#1283,1000.);
#122=VECTOR('',#1302,1000.);
#123=VECTOR('',#1303,1000.);
#124=VECTOR('',#1306,1000.);
#125=VECTOR('',#1309,1000.);
#126=VECTOR('',#1314,1000.);
#127=VECTOR('',#1317,1000.);
#128=VECTOR('',#1320,1000.);
#129=VECTOR('',#1323,1000.);
#130=VECTOR('',#1330,1000.);
#131=VECTOR('',#1331,1000.);
#132=VECTOR('',#1336,1000.);
#133=VECTOR('',#1337,1000.);
#134=VECTOR('',#1340,1000.);
#135=VECTOR('',#1345,1000.);
#136=VECTOR('',#1346,1000.);
#137=VECTOR('',#1349,1000.);
#138=VECTOR('',#1354,1000.);
#139=VECTOR('',#1355,1000.);
#140=VECTOR('',#1358,1000.);
#141=VECTOR('',#1363,1000.);
#142=VECTOR('',#1374,1000.);
#143=VECTOR('',#1377,1000.);
#144=ORIENTED_EDGE('',*,*,#388,.T.);
#145=ORIENTED_EDGE('',*,*,#389,.T.);
#146=ORIENTED_EDGE('',*,*,#390,.F.);
#147=ORIENTED_EDGE('',*,*,#391,.F.);
#148=ORIENTED_EDGE('',*,*,#392,.T.);
#149=ORIENTED_EDGE('',*,*,#393,.T.);
#150=ORIENTED_EDGE('',*,*,#394,.F.);
#151=ORIENTED_EDGE('',*,*,#395,.T.);
#152=ORIENTED_EDGE('',*,*,#396,.T.);
#153=ORIENTED_EDGE('',*,*,#397,.T.);
#154=ORIENTED_EDGE('',*,*,#398,.T.);
#155=ORIENTED_EDGE('',*,*,#399,.F.);
#156=ORIENTED_EDGE('',*,*,#400,.F.);
#157=ORIENTED_EDGE('',*,*,#401,.T.);
#158=ORIENTED_EDGE('',*,*,#402,.F.);
#159=ORIENTED_EDGE('',*,*,#403,.F.);
#160=ORIENTED_EDGE('',*,*,#404,.F.);
#161=ORIENTED_EDGE('',*,*,#405,.T.);
#162=ORIENTED_EDGE('',*,*,#406,.F.);
#163=ORIENTED_EDGE('',*,*,#407,.F.);
#164=ORIENTED_EDGE('',*,*,#408,.F.);
#165=ORIENTED_EDGE('',*,*,#409,.F.);
#166=ORIENTED_EDGE('',*,*,#410,.F.);
#167=ORIENTED_EDGE('',*,*,#411,.F.);
#168=ORIENTED_EDGE('',*,*,#412,.F.);
#169=ORIENTED_EDGE('',*,*,#413,.T.);
#170=ORIENTED_EDGE('',*,*,#414,.F.);
#171=ORIENTED_EDGE('',*,*,#415,.F.);
#172=ORIENTED_EDGE('',*,*,#416,.F.);
#173=ORIENTED_EDGE('',*,*,#417,.F.);
#174=ORIENTED_EDGE('',*,*,#418,.T.);
#175=ORIENTED_EDGE('',*,*,#419,.T.);
#176=ORIENTED_EDGE('',*,*,#420,.T.);
#177=ORIENTED_EDGE('',*,*,#421,.T.);
#178=ORIENTED_EDGE('',*,*,#422,.T.);
#179=ORIENTED_EDGE('',*,*,#423,.T.);
#180=ORIENTED_EDGE('',*,*,#424,.T.);
#181=ORIENTED_EDGE('',*,*,#425,.T.);
#182=ORIENTED_EDGE('',*,*,#426,.F.);
#183=ORIENTED_EDGE('',*,*,#427,.F.);
#184=ORIENTED_EDGE('',*,*,#398,.F.);
#185=ORIENTED_EDGE('',*,*,#428,.T.);
#186=ORIENTED_EDGE('',*,*,#419,.F.);
#187=ORIENTED_EDGE('',*,*,#429,.F.);
#188=ORIENTED_EDGE('',*,*,#392,.F.);
#189=ORIENTED_EDGE('',*,*,#430,.T.);
#190=ORIENTED_EDGE('',*,*,#431,.F.);
#191=ORIENTED_EDGE('',*,*,#432,.F.);
#192=ORIENTED_EDGE('',*,*,#433,.F.);
#193=ORIENTED_EDGE('',*,*,#434,.F.);
#194=ORIENTED_EDGE('',*,*,#435,.F.);
#195=ORIENTED_EDGE('',*,*,#436,.T.);
#196=ORIENTED_EDGE('',*,*,#437,.T.);
#197=ORIENTED_EDGE('',*,*,#438,.F.);
#198=ORIENTED_EDGE('',*,*,#426,.T.);
#199=ORIENTED_EDGE('',*,*,#439,.T.);
#200=ORIENTED_EDGE('',*,*,#440,.T.);
#201=ORIENTED_EDGE('',*,*,#441,.T.);
#202=ORIENTED_EDGE('',*,*,#442,.T.);
#203=ORIENTED_EDGE('',*,*,#443,.T.);
#204=ORIENTED_EDGE('',*,*,#444,.T.);
#205=ORIENTED_EDGE('',*,*,#445,.T.);
#206=ORIENTED_EDGE('',*,*,#430,.F.);
#207=ORIENTED_EDGE('',*,*,#437,.F.);
#208=ORIENTED_EDGE('',*,*,#446,.F.);
#209=ORIENTED_EDGE('',*,*,#388,.F.);
#210=ORIENTED_EDGE('',*,*,#447,.T.);
#211=ORIENTED_EDGE('',*,*,#436,.F.);
#212=ORIENTED_EDGE('',*,*,#448,.F.);
#213=ORIENTED_EDGE('',*,*,#389,.F.);
#214=ORIENTED_EDGE('',*,*,#446,.T.);
#215=ORIENTED_EDGE('',*,*,#448,.T.);
#216=ORIENTED_EDGE('',*,*,#435,.T.);
#217=ORIENTED_EDGE('',*,*,#449,.F.);
#218=ORIENTED_EDGE('',*,*,#390,.T.);
#219=ORIENTED_EDGE('',*,*,#449,.T.);
#220=ORIENTED_EDGE('',*,*,#434,.T.);
#221=ORIENTED_EDGE('',*,*,#425,.F.);
#222=ORIENTED_EDGE('',*,*,#391,.T.);
#223=ORIENTED_EDGE('',*,*,#418,.F.);
#224=ORIENTED_EDGE('',*,*,#450,.F.);
#225=ORIENTED_EDGE('',*,*,#393,.F.);
#226=ORIENTED_EDGE('',*,*,#429,.T.);
#227=ORIENTED_EDGE('',*,*,#450,.T.);
#228=ORIENTED_EDGE('',*,*,#417,.T.);
#229=ORIENTED_EDGE('',*,*,#451,.F.);
#230=ORIENTED_EDGE('',*,*,#394,.T.);
#231=ORIENTED_EDGE('',*,*,#422,.F.);
#232=ORIENTED_EDGE('',*,*,#452,.F.);
#233=ORIENTED_EDGE('',*,*,#395,.F.);
#234=ORIENTED_EDGE('',*,*,#451,.T.);
#235=ORIENTED_EDGE('',*,*,#421,.F.);
#236=ORIENTED_EDGE('',*,*,#453,.F.);
#237=ORIENTED_EDGE('',*,*,#396,.F.);
#238=ORIENTED_EDGE('',*,*,#452,.T.);
#239=ORIENTED_EDGE('',*,*,#420,.F.);
#240=ORIENTED_EDGE('',*,*,#428,.F.);
#241=ORIENTED_EDGE('',*,*,#397,.F.);
#242=ORIENTED_EDGE('',*,*,#453,.T.);
#243=ORIENTED_EDGE('',*,*,#427,.T.);
#244=ORIENTED_EDGE('',*,*,#438,.T.);
#245=ORIENTED_EDGE('',*,*,#447,.F.);
#246=ORIENTED_EDGE('',*,*,#399,.T.);
#247=ORIENTED_EDGE('',*,*,#454,.T.);
#248=ORIENTED_EDGE('',*,*,#400,.T.);
#249=ORIENTED_EDGE('',*,*,#455,.F.);
#250=ORIENTED_EDGE('',*,*,#456,.F.);
#251=ORIENTED_EDGE('',*,*,#455,.T.);
#252=ORIENTED_EDGE('',*,*,#407,.T.);
#253=ORIENTED_EDGE('',*,*,#457,.F.);
#254=ORIENTED_EDGE('',*,*,#458,.F.);
#255=ORIENTED_EDGE('',*,*,#457,.T.);
#256=ORIENTED_EDGE('',*,*,#406,.T.);
#257=ORIENTED_EDGE('',*,*,#459,.F.);
#258=ORIENTED_EDGE('',*,*,#460,.F.);
#259=ORIENTED_EDGE('',*,*,#405,.F.);
#260=ORIENTED_EDGE('',*,*,#461,.F.);
#261=ORIENTED_EDGE('',*,*,#462,.T.);
#262=ORIENTED_EDGE('',*,*,#459,.T.);
#263=ORIENTED_EDGE('',*,*,#461,.T.);
#264=ORIENTED_EDGE('',*,*,#404,.T.);
#265=ORIENTED_EDGE('',*,*,#463,.F.);
#266=ORIENTED_EDGE('',*,*,#464,.F.);
#267=ORIENTED_EDGE('',*,*,#463,.T.);
#268=ORIENTED_EDGE('',*,*,#403,.T.);
#269=ORIENTED_EDGE('',*,*,#465,.F.);
#270=ORIENTED_EDGE('',*,*,#466,.F.);
#271=ORIENTED_EDGE('',*,*,#465,.T.);
#272=ORIENTED_EDGE('',*,*,#402,.T.);
#273=ORIENTED_EDGE('',*,*,#467,.F.);
#274=ORIENTED_EDGE('',*,*,#468,.F.);
#275=ORIENTED_EDGE('',*,*,#401,.F.);
#276=ORIENTED_EDGE('',*,*,#454,.F.);
#277=ORIENTED_EDGE('',*,*,#469,.T.);
#278=ORIENTED_EDGE('',*,*,#467,.T.);
#279=ORIENTED_EDGE('',*,*,#470,.F.);
#280=ORIENTED_EDGE('',*,*,#471,.F.);
#281=ORIENTED_EDGE('',*,*,#472,.F.);
#282=ORIENTED_EDGE('',*,*,#456,.T.);
#283=ORIENTED_EDGE('',*,*,#458,.T.);
#284=ORIENTED_EDGE('',*,*,#460,.T.);
#285=ORIENTED_EDGE('',*,*,#462,.F.);
#286=ORIENTED_EDGE('',*,*,#464,.T.);
#287=ORIENTED_EDGE('',*,*,#466,.T.);
#288=ORIENTED_EDGE('',*,*,#468,.T.);
#289=ORIENTED_EDGE('',*,*,#469,.F.);
#290=ORIENTED_EDGE('',*,*,#473,.F.);
#291=ORIENTED_EDGE('',*,*,#474,.F.);
#292=ORIENTED_EDGE('',*,*,#475,.F.);
#293=ORIENTED_EDGE('',*,*,#476,.T.);
#294=ORIENTED_EDGE('',*,*,#477,.F.);
#295=ORIENTED_EDGE('',*,*,#411,.T.);
#296=ORIENTED_EDGE('',*,*,#478,.F.);
#297=ORIENTED_EDGE('',*,*,#474,.T.);
#298=ORIENTED_EDGE('',*,*,#445,.F.);
#299=ORIENTED_EDGE('',*,*,#472,.T.);
#300=ORIENTED_EDGE('',*,*,#479,.F.);
#301=ORIENTED_EDGE('',*,*,#479,.T.);
#302=ORIENTED_EDGE('',*,*,#480,.F.);
#303=ORIENTED_EDGE('',*,*,#480,.T.);
#304=ORIENTED_EDGE('',*,*,#481,.F.);
#305=ORIENTED_EDGE('',*,*,#481,.T.);
#306=ORIENTED_EDGE('',*,*,#482,.F.);
#307=ORIENTED_EDGE('',*,*,#482,.T.);
#308=ORIENTED_EDGE('',*,*,#483,.F.);
#309=ORIENTED_EDGE('',*,*,#484,.F.);
#310=ORIENTED_EDGE('',*,*,#413,.F.);
#311=ORIENTED_EDGE('',*,*,#485,.F.);
#312=ORIENTED_EDGE('',*,*,#476,.F.);
#313=ORIENTED_EDGE('',*,*,#483,.T.);
#314=ORIENTED_EDGE('',*,*,#486,.T.);
#315=ORIENTED_EDGE('',*,*,#486,.F.);
#316=ORIENTED_EDGE('',*,*,#471,.T.);
#317=ORIENTED_EDGE('',*,*,#487,.T.);
#318=ORIENTED_EDGE('',*,*,#487,.F.);
#319=ORIENTED_EDGE('',*,*,#470,.T.);
#320=ORIENTED_EDGE('',*,*,#444,.F.);
#321=ORIENTED_EDGE('',*,*,#488,.T.);
#322=ORIENTED_EDGE('',*,*,#488,.F.);
#323=ORIENTED_EDGE('',*,*,#489,.T.);
#324=ORIENTED_EDGE('',*,*,#489,.F.);
#325=ORIENTED_EDGE('',*,*,#433,.T.);
#326=ORIENTED_EDGE('',*,*,#443,.F.);
#327=ORIENTED_EDGE('',*,*,#490,.T.);
#328=ORIENTED_EDGE('',*,*,#490,.F.);
#329=ORIENTED_EDGE('',*,*,#491,.T.);
#330=ORIENTED_EDGE('',*,*,#491,.F.);
#331=ORIENTED_EDGE('',*,*,#432,.T.);
#332=ORIENTED_EDGE('',*,*,#442,.F.);
#333=ORIENTED_EDGE('',*,*,#492,.T.);
#334=ORIENTED_EDGE('',*,*,#492,.F.);
#335=ORIENTED_EDGE('',*,*,#493,.T.);
#336=ORIENTED_EDGE('',*,*,#493,.F.);
#337=ORIENTED_EDGE('',*,*,#416,.T.);
#338=ORIENTED_EDGE('',*,*,#441,.F.);
#339=ORIENTED_EDGE('',*,*,#494,.T.);
#340=ORIENTED_EDGE('',*,*,#494,.F.);
#341=ORIENTED_EDGE('',*,*,#495,.T.);
#342=ORIENTED_EDGE('',*,*,#495,.F.);
#343=ORIENTED_EDGE('',*,*,#415,.T.);
#344=ORIENTED_EDGE('',*,*,#440,.F.);
#345=ORIENTED_EDGE('',*,*,#496,.T.);
#346=ORIENTED_EDGE('',*,*,#496,.F.);
#347=ORIENTED_EDGE('',*,*,#497,.T.);
#348=ORIENTED_EDGE('',*,*,#497,.F.);
#349=ORIENTED_EDGE('',*,*,#414,.T.);
#350=ORIENTED_EDGE('',*,*,#439,.F.);
#351=ORIENTED_EDGE('',*,*,#498,.T.);
#352=ORIENTED_EDGE('',*,*,#498,.F.);
#353=ORIENTED_EDGE('',*,*,#499,.T.);
#354=ORIENTED_EDGE('',*,*,#499,.F.);
#355=ORIENTED_EDGE('',*,*,#431,.T.);
#356=ORIENTED_EDGE('',*,*,#500,.F.);
#357=ORIENTED_EDGE('',*,*,#424,.F.);
#358=ORIENTED_EDGE('',*,*,#501,.T.);
#359=ORIENTED_EDGE('',*,*,#502,.T.);
#360=ORIENTED_EDGE('',*,*,#503,.T.);
#361=ORIENTED_EDGE('',*,*,#502,.F.);
#362=ORIENTED_EDGE('',*,*,#504,.T.);
#363=ORIENTED_EDGE('',*,*,#504,.F.);
#364=ORIENTED_EDGE('',*,*,#500,.T.);
#365=ORIENTED_EDGE('',*,*,#505,.F.);
#366=ORIENTED_EDGE('',*,*,#423,.F.);
#367=ORIENTED_EDGE('',*,*,#506,.T.);
#368=ORIENTED_EDGE('',*,*,#507,.T.);
#369=ORIENTED_EDGE('',*,*,#508,.T.);
#370=ORIENTED_EDGE('',*,*,#507,.F.);
#371=ORIENTED_EDGE('',*,*,#509,.T.);
#372=ORIENTED_EDGE('',*,*,#509,.F.);
#373=ORIENTED_EDGE('',*,*,#505,.T.);
#374=ORIENTED_EDGE('',*,*,#484,.T.);
#375=ORIENTED_EDGE('',*,*,#475,.T.);
#376=ORIENTED_EDGE('',*,*,#478,.T.);
#377=ORIENTED_EDGE('',*,*,#410,.T.);
#378=ORIENTED_EDGE('',*,*,#506,.F.);
#379=ORIENTED_EDGE('',*,*,#485,.T.);
#380=ORIENTED_EDGE('',*,*,#412,.T.);
#381=ORIENTED_EDGE('',*,*,#477,.T.);
#382=ORIENTED_EDGE('',*,*,#473,.T.);
#383=ORIENTED_EDGE('',*,*,#501,.F.);
#384=ORIENTED_EDGE('',*,*,#503,.F.);
#385=ORIENTED_EDGE('',*,*,#408,.T.);
#386=ORIENTED_EDGE('',*,*,#508,.F.);
#387=ORIENTED_EDGE('',*,*,#409,.T.);
#388=EDGE_CURVE('',#510,#511,#610,.T.);
#389=EDGE_CURVE('',#511,#512,#611,.T.);
#390=EDGE_CURVE('',#513,#512,#612,.T.);
#391=EDGE_CURVE('',#514,#513,#64,.T.);
#392=EDGE_CURVE('',#514,#515,#613,.T.);
#393=EDGE_CURVE('',#515,#516,#65,.T.);
#394=EDGE_CURVE('',#517,#516,#614,.T.);
#395=EDGE_CURVE('',#517,#518,#615,.T.);
#396=EDGE_CURVE('',#518,#519,#616,.T.);
#397=EDGE_CURVE('',#519,#520,#66,.T.);
#398=EDGE_CURVE('',#520,#521,#617,.T.);
#399=EDGE_CURVE('',#510,#521,#67,.T.);
#400=EDGE_CURVE('',#522,#523,#618,.F.);
#401=EDGE_CURVE('',#522,#524,#68,.T.);
#402=EDGE_CURVE('',#525,#524,#619,.F.);
#403=EDGE_CURVE('',#526,#525,#69,.T.);
#404=EDGE_CURVE('',#527,#526,#620,.F.);
#405=EDGE_CURVE('',#527,#528,#70,.T.);
#406=EDGE_CURVE('',#529,#528,#621,.F.);
#407=EDGE_CURVE('',#523,#529,#71,.T.);
#408=EDGE_CURVE('',#530,#530,#622,.T.);
#409=EDGE_CURVE('',#531,#531,#623,.T.);
#410=EDGE_CURVE('',#532,#533,#72,.T.);
#411=EDGE_CURVE('',#534,#532,#624,.T.);
#412=EDGE_CURVE('',#535,#534,#73,.T.);
#413=EDGE_CURVE('',#535,#533,#625,.T.);
#414=EDGE_CURVE('',#536,#536,#626,.T.);
#415=EDGE_CURVE('',#537,#537,#627,.T.);
#416=EDGE_CURVE('',#538,#538,#628,.T.);
#417=EDGE_CURVE('',#539,#540,#629,.F.);
#418=EDGE_CURVE('',#539,#541,#74,.T.);
#419=EDGE_CURVE('',#541,#542,#630,.T.);
#420=EDGE_CURVE('',#542,#543,#75,.T.);
#421=EDGE_CURVE('',#543,#544,#631,.T.);
#422=EDGE_CURVE('',#544,#540,#632,.F.);
#423=EDGE_CURVE('',#545,#545,#19,.T.);
#424=EDGE_CURVE('',#546,#546,#20,.T.);
#425=EDGE_CURVE('',#514,#547,#76,.T.);
#426=EDGE_CURVE('',#548,#547,#633,.T.);
#427=EDGE_CURVE('',#521,#548,#77,.T.);
#428=EDGE_CURVE('',#520,#542,#78,.T.);
#429=EDGE_CURVE('',#515,#541,#79,.T.);
#430=EDGE_CURVE('',#549,#549,#634,.T.);
#431=EDGE_CURVE('',#550,#550,#635,.T.);
#432=EDGE_CURVE('',#551,#551,#636,.T.);
#433=EDGE_CURVE('',#552,#552,#637,.T.);
#434=EDGE_CURVE('',#553,#547,#80,.T.);
#435=EDGE_CURVE('',#554,#553,#638,.F.);
#436=EDGE_CURVE('',#554,#555,#639,.F.);
#437=EDGE_CURVE('',#555,#556,#640,.T.);
#438=EDGE_CURVE('',#548,#556,#81,.T.);
#439=EDGE_CURVE('',#557,#557,#641,.T.);
#440=EDGE_CURVE('',#558,#558,#642,.T.);
#441=EDGE_CURVE('',#559,#559,#643,.T.);
#442=EDGE_CURVE('',#560,#560,#644,.T.);
#443=EDGE_CURVE('',#561,#561,#645,.T.);
#444=EDGE_CURVE('',#562,#562,#646,.T.);
#445=EDGE_CURVE('',#563,#563,#647,.T.);
#446=EDGE_CURVE('',#511,#555,#82,.T.);
#447=EDGE_CURVE('',#510,#556,#83,.T.);
#448=EDGE_CURVE('',#512,#554,#84,.T.);
#449=EDGE_CURVE('',#513,#553,#85,.T.);
#450=EDGE_CURVE('',#516,#539,#86,.T.);
#451=EDGE_CURVE('',#517,#540,#87,.T.);
#452=EDGE_CURVE('',#518,#544,#88,.T.);
#453=EDGE_CURVE('',#519,#543,#89,.T.);
#454=EDGE_CURVE('',#564,#522,#90,.T.);
#455=EDGE_CURVE('',#565,#523,#91,.T.);
#456=EDGE_CURVE('',#564,#565,#648,.T.);
#457=EDGE_CURVE('',#566,#529,#92,.T.);
#458=EDGE_CURVE('',#565,#566,#93,.T.);
#459=EDGE_CURVE('',#567,#528,#94,.T.);
#460=EDGE_CURVE('',#566,#567,#649,.T.);
#461=EDGE_CURVE('',#568,#527,#95,.T.);
#462=EDGE_CURVE('',#568,#567,#96,.T.);
#463=EDGE_CURVE('',#569,#526,#97,.T.);
#464=EDGE_CURVE('',#568,#569,#650,.T.);
#465=EDGE_CURVE('',#570,#525,#98,.T.);
#466=EDGE_CURVE('',#569,#570,#99,.T.);
#467=EDGE_CURVE('',#571,#524,#100,.T.);
#468=EDGE_CURVE('',#570,#571,#651,.T.);
#469=EDGE_CURVE('',#564,#571,#101,.T.);
#470=EDGE_CURVE('',#572,#572,#652,.T.);
#471=EDGE_CURVE('',#573,#573,#653,.T.);
#472=EDGE_CURVE('',#574,#574,#654,.T.);
#473=EDGE_CURVE('',#575,#576,#102,.F.);
#474=EDGE_CURVE('',#577,#575,#655,.T.);
#475=EDGE_CURVE('',#578,#577,#103,.F.);
#476=EDGE_CURVE('',#578,#576,#656,.T.);
#477=EDGE_CURVE('',#534,#575,#21,.T.);
#478=EDGE_CURVE('',#577,#532,#22,.T.);
#479=EDGE_CURVE('',#579,#579,#657,.T.);
#480=EDGE_CURVE('',#580,#580,#658,.T.);
#481=EDGE_CURVE('',#581,#581,#659,.T.);
#482=EDGE_CURVE('',#582,#582,#660,.T.);
#483=EDGE_CURVE('',#583,#583,#661,.T.);
#484=EDGE_CURVE('',#533,#578,#23,.T.);
#485=EDGE_CURVE('',#576,#535,#24,.T.);
#486=EDGE_CURVE('',#585,#585,#662,.T.);
#487=EDGE_CURVE('',#587,#587,#663,.T.);
#488=EDGE_CURVE('',#588,#588,#664,.T.);
#489=EDGE_CURVE('',#589,#589,#665,.T.);
#490=EDGE_CURVE('',#590,#590,#666,.T.);
#491=EDGE_CURVE('',#591,#591,#667,.T.);
#492=EDGE_CURVE('',#592,#592,#668,.T.);
#493=EDGE_CURVE('',#593,#593,#669,.T.);
#494=EDGE_CURVE('',#594,#594,#670,.T.);
#495=EDGE_CURVE('',#595,#595,#671,.T.);
#496=EDGE_CURVE('',#596,#596,#672,.T.);
#497=EDGE_CURVE('',#597,#597,#673,.T.);
#498=EDGE_CURVE('',#598,#598,#674,.T.);
#499=EDGE_CURVE('',#599,#599,#675,.T.);
#500=EDGE_CURVE('',#600,#600,#676,.T.);
#501=EDGE_CURVE('',#601,#601,#677,.F.);
#502=EDGE_CURVE('',#602,#602,#678,.T.);
#503=EDGE_CURVE('',#603,#603,#25,.T.);
#504=EDGE_CURVE('',#604,#604,#679,.T.);
#505=EDGE_CURVE('',#605,#605,#680,.T.);
#506=EDGE_CURVE('',#606,#606,#681,.F.);
#507=EDGE_CURVE('',#607,#607,#682,.T.);
#508=EDGE_CURVE('',#608,#608,#26,.T.);
#509=EDGE_CURVE('',#609,#609,#683,.T.);
#510=VERTEX_POINT('',#1519);
#511=VERTEX_POINT('',#1520);
#512=VERTEX_POINT('',#1522);
#513=VERTEX_POINT('',#1524);
#514=VERTEX_POINT('',#1526);
#515=VERTEX_POINT('',#1528);
#516=VERTEX_POINT('',#1530);
#517=VERTEX_POINT('',#1532);
#518=VERTEX_POINT('',#1534);
#519=VERTEX_POINT('',#1536);
#520=VERTEX_POINT('',#1538);
#521=VERTEX_POINT('',#1540);
#522=VERTEX_POINT('',#1543);
#523=VERTEX_POINT('',#1544);
#524=VERTEX_POINT('',#1546);
#525=VERTEX_POINT('',#1548);
#526=VERTEX_POINT('',#1550);
#527=VERTEX_POINT('',#1552);
#528=VERTEX_POINT('',#1554);
#529=VERTEX_POINT('',#1556);
#530=VERTEX_POINT('',#1559);
#531=VERTEX_POINT('',#1561);
#532=VERTEX_POINT('',#1564);
#533=VERTEX_POINT('',#1565);
#534=VERTEX_POINT('',#1567);
#535=VERTEX_POINT('',#1569);
#536=VERTEX_POINT('',#1573);
#537=VERTEX_POINT('',#1575);
#538=VERTEX_POINT('',#1577);
#539=VERTEX_POINT('',#1579);
#540=VERTEX_POINT('',#1580);
#541=VERTEX_POINT('',#1582);
#542=VERTEX_POINT('',#1584);
#543=VERTEX_POINT('',#1586);
#544=VERTEX_POINT('',#1588);
#545=VERTEX_POINT('',#1610);
#546=VERTEX_POINT('',#1630);
#547=VERTEX_POINT('',#1632);
#548=VERTEX_POINT('',#1634);
#549=VERTEX_POINT('',#1639);
#550=VERTEX_POINT('',#1642);
#551=VERTEX_POINT('',#1644);
#552=VERTEX_POINT('',#1646);
#553=VERTEX_POINT('',#1648);
#554=VERTEX_POINT('',#1650);
#555=VERTEX_POINT('',#1652);
#556=VERTEX_POINT('',#1654);
#557=VERTEX_POINT('',#1658);
#558=VERTEX_POINT('',#1660);
#559=VERTEX_POINT('',#1662);
#560=VERTEX_POINT('',#1664);
#561=VERTEX_POINT('',#1666);
#562=VERTEX_POINT('',#1668);
#563=VERTEX_POINT('',#1670);
#564=VERTEX_POINT('',#1691);
#565=VERTEX_POINT('',#1693);
#566=VERTEX_POINT('',#1697);
#567=VERTEX_POINT('',#1701);
#568=VERTEX_POINT('',#1705);
#569=VERTEX_POINT('',#1709);
#570=VERTEX_POINT('',#1713);
#571=VERTEX_POINT('',#1717);
#572=VERTEX_POINT('',#1723);
#573=VERTEX_POINT('',#1725);
#574=VERTEX_POINT('',#1727);
#575=VERTEX_POINT('',#1730);
#576=VERTEX_POINT('',#1731);
#577=VERTEX_POINT('',#1733);
#578=VERTEX_POINT('',#1735);
#579=VERTEX_POINT('',#1762);
#580=VERTEX_POINT('',#1765);
#581=VERTEX_POINT('',#1768);
#582=VERTEX_POINT('',#1771);
#583=VERTEX_POINT('',#1774);
#584=VERTEX_POINT('',#1787);
#585=VERTEX_POINT('',#1789);
#586=VERTEX_POINT('',#1792);
#587=VERTEX_POINT('',#1794);
#588=VERTEX_POINT('',#1798);
#589=VERTEX_POINT('',#1801);
#590=VERTEX_POINT('',#1805);
#591=VERTEX_POINT('',#1808);
#592=VERTEX_POINT('',#1812);
#593=VERTEX_POINT('',#1815);
#594=VERTEX_POINT('',#1819);
#595=VERTEX_POINT('',#1822);
#596=VERTEX_POINT('',#1826);
#597=VERTEX_POINT('',#1829);
#598=VERTEX_POINT('',#1833);
#599=VERTEX_POINT('',#1836);
#600=VERTEX_POINT('',#1840);
#601=VERTEX_POINT('',#1843);
#602=VERTEX_POINT('',#1845);
#603=VERTEX_POINT('',#1858);
#604=VERTEX_POINT('',#1860);
#605=VERTEX_POINT('',#1864);
#606=VERTEX_POINT('',#1867);
#607=VERTEX_POINT('',#1869);
#608=VERTEX_POINT('',#1882);
#609=VERTEX_POINT('',#1884);
#610=CIRCLE('',#1052,8.);
#611=CIRCLE('',#1053,47.5);
#612=CIRCLE('',#1054,8.);
#613=CIRCLE('',#1055,71.);
#614=CIRCLE('',#1056,8.);
#615=CIRCLE('',#1057,47.5);
#616=CIRCLE('',#1058,8.);
#617=CIRCLE('',#1059,71.);
#618=CIRCLE('',#1060,11.);
#619=CIRCLE('',#1061,31.);
#620=CIRCLE('',#1062,11.);
#621=CIRCLE('',#1063,31.);
#622=CIRCLE('',#1064,2.5);
#623=CIRCLE('',#1065,2.5);
#624=CIRCLE('',#1067,31.);
#625=CIRCLE('',#1068,25.);
#626=CIRCLE('',#1070,9.);
#627=CIRCLE('',#1071,9.);
#628=CIRCLE('',#1072,9.);
#629=CIRCLE('',#1073,8.);
#630=CIRCLE('',#1074,71.);
#631=CIRCLE('',#1075,8.);
#632=CIRCLE('',#1076,47.5);
#633=CIRCLE('',#1078,71.);
#634=CIRCLE('',#1079,71.);
#635=CIRCLE('',#1081,9.);
#636=CIRCLE('',#1082,9.);
#637=CIRCLE('',#1083,9.);
#638=CIRCLE('',#1084,8.);
#639=CIRCLE('',#1085,47.5);
#640=CIRCLE('',#1086,8.);
#641=CIRCLE('',#1088,5.5);
#642=CIRCLE('',#1089,5.5);
#643=CIRCLE('',#1090,5.5);
#644=CIRCLE('',#1091,5.5);
#645=CIRCLE('',#1092,5.5);
#646=CIRCLE('',#1093,5.5);
#647=CIRCLE('',#1094,31.);
#648=CIRCLE('',#1106,11.);
#649=CIRCLE('',#1109,31.);
#650=CIRCLE('',#1112,11.);
#651=CIRCLE('',#1115,31.);
#652=CIRCLE('',#1118,5.);
#653=CIRCLE('',#1119,5.);
#654=CIRCLE('',#1120,23.);
#655=CIRCLE('',#1122,31.);
#656=CIRCLE('',#1123,25.);
#657=CIRCLE('',#1126,23.);
#658=CIRCLE('',#1128,15.);
#659=CIRCLE('',#1130,15.);
#660=CIRCLE('',#1132,21.);
#661=CIRCLE('',#1134,25.);
#662=CIRCLE('',#1137,5.);
#663=CIRCLE('',#1140,5.);
#664=CIRCLE('',#1143,5.5);
#665=CIRCLE('',#1145,9.);
#666=CIRCLE('',#1148,5.5);
#667=CIRCLE('',#1150,9.);
#668=CIRCLE('',#1153,5.5);
#669=CIRCLE('',#1155,9.);
#670=CIRCLE('',#1158,5.5);
#671=CIRCLE('',#1160,9.);
#672=CIRCLE('',#1163,5.5);
#673=CIRCLE('',#1165,9.);
#674=CIRCLE('',#1168,5.5);
#675=CIRCLE('',#1170,9.);
#676=CIRCLE('',#1173,10.);
#677=CIRCLE('',#1175,2.5);
#678=CIRCLE('',#1176,6.);
#679=CIRCLE('',#1178,6.);
#680=CIRCLE('',#1181,10.);
#681=CIRCLE('',#1183,2.5);
#682=CIRCLE('',#1184,6.);
#683=CIRCLE('',#1186,6.);
#684=EDGE_LOOP('',(#144,#145,#146,#147,#148,#149,#150,#151,#152,#153,#154,#155));
#685=EDGE_LOOP('',(#156,#157,#158,#159,#160,#161,#162,#163));
#686=EDGE_LOOP('',(#164));
#687=EDGE_LOOP('',(#165));
#688=EDGE_LOOP('',(#166,#167,#168,#169));
#689=EDGE_LOOP('',(#170));
#690=EDGE_LOOP('',(#171));
#691=EDGE_LOOP('',(#172));
#692=EDGE_LOOP('',(#173,#174,#175,#176,#177,#178));
#693=EDGE_LOOP('',(#179));
#694=EDGE_LOOP('',(#180));
#695=EDGE_LOOP('',(#181,#182,#183,#184,#185,#186,#187,#188));
#696=EDGE_LOOP('',(#189));
#697=EDGE_LOOP('',(#190));
#698=EDGE_LOOP('',(#191));
#699=EDGE_LOOP('',(#192));
#700=EDGE_LOOP('',(#193,#194,#195,#196,#197,#198));
#701=EDGE_LOOP('',(#199));
#702=EDGE_LOOP('',(#200));
#703=EDGE_LOOP('',(#201));
#704=EDGE_LOOP('',(#202));
#705=EDGE_LOOP('',(#203));
#706=EDGE_LOOP('',(#204));
#707=EDGE_LOOP('',(#205));
#708=EDGE_LOOP('',(#206));
#709=EDGE_LOOP('',(#207,#208,#209,#210));
#710=EDGE_LOOP('',(#211,#212,#213,#214));
#711=EDGE_LOOP('',(#215,#216,#217,#218));
#712=EDGE_LOOP('',(#219,#220,#221,#222));
#713=EDGE_LOOP('',(#223,#224,#225,#226));
#714=EDGE_LOOP('',(#227,#228,#229,#230));
#715=EDGE_LOOP('',(#231,#232,#233,#234));
#716=EDGE_LOOP('',(#235,#236,#237,#238));
#717=EDGE_LOOP('',(#239,#240,#241,#242));
#718=EDGE_LOOP('',(#243,#244,#245,#246));
#719=EDGE_LOOP('',(#247,#248,#249,#250));
#720=EDGE_LOOP('',(#251,#252,#253,#254));
#721=EDGE_LOOP('',(#255,#256,#257,#258));
#722=EDGE_LOOP('',(#259,#260,#261,#262));
#723=EDGE_LOOP('',(#263,#264,#265,#266));
#724=EDGE_LOOP('',(#267,#268,#269,#270));
#725=EDGE_LOOP('',(#271,#272,#273,#274));
#726=EDGE_LOOP('',(#275,#276,#277,#278));
#727=EDGE_LOOP('',(#279));
#728=EDGE_LOOP('',(#280));
#729=EDGE_LOOP('',(#281));
#730=EDGE_LOOP('',(#282,#283,#284,#285,#286,#287,#288,#289));
#731=EDGE_LOOP('',(#290,#291,#292,#293));
#732=EDGE_LOOP('',(#294,#295,#296,#297));
#733=EDGE_LOOP('',(#298));
#734=EDGE_LOOP('',(#299));
#735=EDGE_LOOP('',(#300));
#736=EDGE_LOOP('',(#301));
#737=EDGE_LOOP('',(#302));
#738=EDGE_LOOP('',(#303));
#739=EDGE_LOOP('',(#304));
#740=EDGE_LOOP('',(#305));
#741=EDGE_LOOP('',(#306));
#742=EDGE_LOOP('',(#307));
#743=EDGE_LOOP('',(#308));
#744=EDGE_LOOP('',(#309,#310,#311,#312));
#745=EDGE_LOOP('',(#313));
#746=EDGE_LOOP('',(#314));
#747=EDGE_LOOP('',(#315));
#748=EDGE_LOOP('',(#316));
#749=EDGE_LOOP('',(#317));
#750=EDGE_LOOP('',(#318));
#751=EDGE_LOOP('',(#319));
#752=EDGE_LOOP('',(#320));
#753=EDGE_LOOP('',(#321));
#754=EDGE_LOOP('',(#322));
#755=EDGE_LOOP('',(#323));
#756=EDGE_LOOP('',(#324));
#757=EDGE_LOOP('',(#325));
#758=EDGE_LOOP('',(#326));
#759=EDGE_LOOP('',(#327));
#760=EDGE_LOOP('',(#328));
#761=EDGE_LOOP('',(#329));
#762=EDGE_LOOP('',(#330));
#763=EDGE_LOOP('',(#331));
#764=EDGE_LOOP('',(#332));
#765=EDGE_LOOP('',(#333));
#766=EDGE_LOOP('',(#334));
#767=EDGE_LOOP('',(#335));
#768=EDGE_LOOP('',(#336));
#769=EDGE_LOOP('',(#337));
#770=EDGE_LOOP('',(#338));
#771=EDGE_LOOP('',(#339));
#772=EDGE_LOOP('',(#340));
#773=EDGE_LOOP('',(#341));
#774=EDGE_LOOP('',(#342));
#775=EDGE_LOOP('',(#343));
#776=EDGE_LOOP('',(#344));
#777=EDGE_LOOP('',(#345));
#778=EDGE_LOOP('',(#346));
#779=EDGE_LOOP('',(#347));
#780=EDGE_LOOP('',(#348));
#781=EDGE_LOOP('',(#349));
#782=EDGE_LOOP('',(#350));
#783=EDGE_LOOP('',(#351));
#784=EDGE_LOOP('',(#352));
#785=EDGE_LOOP('',(#353));
#786=EDGE_LOOP('',(#354));
#787=EDGE_LOOP('',(#355));
#788=EDGE_LOOP('',(#356));
#789=EDGE_LOOP('',(#357));
#790=EDGE_LOOP('',(#358));
#791=EDGE_LOOP('',(#359));
#792=EDGE_LOOP('',(#360));
#793=EDGE_LOOP('',(#361));
#794=EDGE_LOOP('',(#362));
#795=EDGE_LOOP('',(#363));
#796=EDGE_LOOP('',(#364));
#797=EDGE_LOOP('',(#365));
#798=EDGE_LOOP('',(#366));
#799=EDGE_LOOP('',(#367));
#800=EDGE_LOOP('',(#368));
#801=EDGE_LOOP('',(#369));
#802=EDGE_LOOP('',(#370));
#803=EDGE_LOOP('',(#371));
#804=EDGE_LOOP('',(#372));
#805=EDGE_LOOP('',(#373));
#806=EDGE_LOOP('',(#374,#375,#376,#377));
#807=EDGE_LOOP('',(#378));
#808=EDGE_LOOP('',(#379,#380,#381,#382));
#809=EDGE_LOOP('',(#383));
#810=EDGE_LOOP('',(#384));
#811=EDGE_LOOP('',(#385));
#812=EDGE_LOOP('',(#386));
#813=EDGE_LOOP('',(#387));
#814=FACE_BOUND('',#684,.T.);
#815=FACE_BOUND('',#685,.T.);
#816=FACE_BOUND('',#686,.T.);
#817=FACE_BOUND('',#687,.T.);
#818=FACE_BOUND('',#688,.T.);
#819=FACE_BOUND('',#689,.T.);
#820=FACE_BOUND('',#690,.T.);
#821=FACE_BOUND('',#691,.T.);
#822=FACE_BOUND('',#692,.T.);
#823=FACE_BOUND('',#693,.T.);
#824=FACE_BOUND('',#694,.T.);
#825=FACE_BOUND('',#695,.T.);
#826=FACE_BOUND('',#696,.T.);
#827=FACE_BOUND('',#697,.T.);
#828=FACE_BOUND('',#698,.T.);
#829=FACE_BOUND('',#699,.T.);
#830=FACE_BOUND('',#700,.T.);
#831=FACE_BOUND('',#701,.T.);
#832=FACE_BOUND('',#702,.T.);
#833=FACE_BOUND('',#703,.T.);
#834=FACE_BOUND('',#704,.T.);
#835=FACE_BOUND('',#705,.T.);
#836=FACE_BOUND('',#706,.T.);
#837=FACE_BOUND('',#707,.T.);
#838=FACE_BOUND('',#708,.T.);
#839=FACE_BOUND('',#709,.T.);
#840=FACE_BOUND('',#710,.T.);
#841=FACE_BOUND('',#711,.T.);
#842=FACE_BOUND('',#712,.T.);
#843=FACE_BOUND('',#713,.T.);
#844=FACE_BOUND('',#714,.T.);
#845=FACE_BOUND('',#715,.T.);
#846=FACE_BOUND('',#716,.T.);
#847=FACE_BOUND('',#717,.T.);
#848=FACE_BOUND('',#718,.T.);
#849=FACE_BOUND('',#719,.T.);
#850=FACE_BOUND('',#720,.T.);
#851=FACE_BOUND('',#721,.T.);
#852=FACE_BOUND('',#722,.T.);
#853=FACE_BOUND('',#723,.T.);
#854=FACE_BOUND('',#724,.T.);
#855=FACE_BOUND('',#725,.T.);
#856=FACE_BOUND('',#726,.T.);
#857=FACE_BOUND('',#727,.T.);
#858=FACE_BOUND('',#728,.T.);
#859=FACE_BOUND('',#729,.T.);
#860=FACE_BOUND('',#730,.T.);
#861=FACE_BOUND('',#731,.T.);
#862=FACE_BOUND('',#732,.T.);
#863=FACE_BOUND('',#733,.T.);
#864=FACE_BOUND('',#734,.T.);
#865=FACE_BOUND('',#735,.T.);
#866=FACE_BOUND('',#736,.T.);
#867=FACE_BOUND('',#737,.T.);
#868=FACE_BOUND('',#738,.T.);
#869=FACE_BOUND('',#739,.T.);
#870=FACE_BOUND('',#740,.T.);
#871=FACE_BOUND('',#741,.T.);
#872=FACE_BOUND('',#742,.T.);
#873=FACE_BOUND('',#743,.T.);
#874=FACE_BOUND('',#744,.T.);
#875=FACE_BOUND('',#745,.T.);
#876=FACE_BOUND('',#12,.T.);
#877=FACE_BOUND('',#746,.T.);
#878=FACE_BOUND('',#747,.T.);
#879=FACE_BOUND('',#748,.T.);
#880=FACE_BOUND('',#13,.T.);
#881=FACE_BOUND('',#749,.T.);
#882=FACE_BOUND('',#750,.T.);
#883=FACE_BOUND('',#751,.T.);
#884=FACE_BOUND('',#752,.T.);
#885=FACE_BOUND('',#753,.T.);
#886=FACE_BOUND('',#754,.T.);
#887=FACE_BOUND('',#755,.T.);
#888=FACE_BOUND('',#756,.T.);
#889=FACE_BOUND('',#757,.T.);
#890=FACE_BOUND('',#758,.T.);
#891=FACE_BOUND('',#759,.T.);
#892=FACE_BOUND('',#760,.T.);
#893=FACE_BOUND('',#761,.T.);
#894=FACE_BOUND('',#762,.T.);
#895=FACE_BOUND('',#763,.T.);
#896=FACE_BOUND('',#764,.T.);
#897=FACE_BOUND('',#765,.T.);
#898=FACE_BOUND('',#766,.T.);
#899=FACE_BOUND('',#767,.T.);
#900=FACE_BOUND('',#768,.T.);
#901=FACE_BOUND('',#769,.T.);
#902=FACE_BOUND('',#770,.T.);
#903=FACE_BOUND('',#771,.T.);
#904=FACE_BOUND('',#772,.T.);
#905=FACE_BOUND('',#773,.T.);
#906=FACE_BOUND('',#774,.T.);
#907=FACE_BOUND('',#775,.T.);
#908=FACE_BOUND('',#776,.T.);
#909=FACE_BOUND('',#777,.T.);
#910=FACE_BOUND('',#778,.T.);
#911=FACE_BOUND('',#779,.T.);
#912=FACE_BOUND('',#780,.T.);
#913=FACE_BOUND('',#781,.T.);
#914=FACE_BOUND('',#782,.T.);
#915=FACE_BOUND('',#783,.T.);
#916=FACE_BOUND('',#784,.T.);
#917=FACE_BOUND('',#785,.T.);
#918=FACE_BOUND('',#786,.T.);
#919=FACE_BOUND('',#787,.T.);
#920=FACE_BOUND('',#788,.T.);
#921=FACE_BOUND('',#789,.T.);
#922=FACE_BOUND('',#790,.T.);
#923=FACE_BOUND('',#791,.T.);
#924=FACE_BOUND('',#792,.T.);
#925=FACE_BOUND('',#793,.T.);
#926=FACE_BOUND('',#794,.T.);
#927=FACE_BOUND('',#795,.T.);
#928=FACE_BOUND('',#796,.T.);
#929=FACE_BOUND('',#797,.T.);
#930=FACE_BOUND('',#798,.T.);
#931=FACE_BOUND('',#799,.T.);
#932=FACE_BOUND('',#800,.T.);
#933=FACE_BOUND('',#801,.T.);
#934=FACE_BOUND('',#802,.T.);
#935=FACE_BOUND('',#803,.T.);
#936=FACE_BOUND('',#804,.T.);
#937=FACE_BOUND('',#805,.T.);
#938=FACE_BOUND('',#806,.T.);
#939=FACE_BOUND('',#807,.T.);
#940=FACE_BOUND('',#808,.T.);
#941=FACE_BOUND('',#809,.T.);
#942=FACE_BOUND('',#810,.T.);
#943=FACE_BOUND('',#811,.T.);
#944=FACE_BOUND('',#812,.T.);
#945=FACE_BOUND('',#813,.T.);
#946=PLANE('',#1051);
#947=PLANE('',#1066);
#948=PLANE('',#1069);
#949=PLANE('',#1080);
#950=PLANE('',#1087);
#951=PLANE('',#1098);
#952=PLANE('',#1099);
#953=PLANE('',#1103);
#954=PLANE('',#1104);
#955=PLANE('',#1107);
#956=PLANE('',#1110);
#957=PLANE('',#1113);
#958=PLANE('',#1116);
#959=PLANE('',#1117);
#960=PLANE('',#1121);
#961=PLANE('',#1127);
#962=PLANE('',#1131);
#963=PLANE('',#1144);
#964=PLANE('',#1149);
#965=PLANE('',#1154);
#966=PLANE('',#1159);
#967=PLANE('',#1164);
#968=PLANE('',#1169);
#969=PLANE('',#1179);
#970=PLANE('',#1187);
#971=ADVANCED_FACE('',(#814,#815,#816,#817),#946,.F.);
#972=ADVANCED_FACE('',(#818),#947,.T.);
#973=ADVANCED_FACE('',(#819,#820,#821,#822),#948,.T.);
#974=ADVANCED_FACE('',(#823,#824,#825,#826),#27,.T.);
#975=ADVANCED_FACE('',(#827,#828,#829,#830),#949,.T.);
#976=ADVANCED_FACE('',(#831,#832,#833,#834,#835,#836,#837,#838),#950,.F.);
#977=ADVANCED_FACE('',(#839),#28,.F.);
#978=ADVANCED_FACE('',(#840),#29,.T.);
#979=ADVANCED_FACE('',(#841),#30,.F.);
#980=ADVANCED_FACE('',(#842),#951,.T.);
#981=ADVANCED_FACE('',(#843),#952,.F.);
#982=ADVANCED_FACE('',(#844),#31,.F.);
#983=ADVANCED_FACE('',(#845),#32,.T.);
#984=ADVANCED_FACE('',(#846),#33,.F.);
#985=ADVANCED_FACE('',(#847),#953,.F.);
#986=ADVANCED_FACE('',(#848),#954,.T.);
#987=ADVANCED_FACE('',(#849),#34,.T.);
#988=ADVANCED_FACE('',(#850),#955,.F.);
#989=ADVANCED_FACE('',(#851),#35,.T.);
#990=ADVANCED_FACE('',(#852),#956,.T.);
#991=ADVANCED_FACE('',(#853),#36,.T.);
#992=ADVANCED_FACE('',(#854),#957,.F.);
#993=ADVANCED_FACE('',(#855),#37,.T.);
#994=ADVANCED_FACE('',(#856),#958,.T.);
#995=ADVANCED_FACE('',(#857,#858,#859,#860),#959,.T.);
#996=ADVANCED_FACE('',(#861),#960,.T.);
#997=ADVANCED_FACE('',(#862,#863),#38,.F.);
#998=ADVANCED_FACE('',(#864,#865),#39,.F.);
#999=ADVANCED_FACE('',(#866,#867),#961,.T.);
#1000=ADVANCED_FACE('',(#868,#869),#40,.F.);
#1001=ADVANCED_FACE('',(#870,#871),#962,.T.);
#1002=ADVANCED_FACE('',(#872,#873),#18,.F.);
#1003=ADVANCED_FACE('',(#874,#875),#41,.F.);
#1004=ADVANCED_FACE('',(#876,#877),#14,.F.);
#1005=ADVANCED_FACE('',(#878,#879),#42,.F.);
#1006=ADVANCED_FACE('',(#880,#881),#15,.F.);
#1007=ADVANCED_FACE('',(#882,#883),#43,.F.);
#1008=ADVANCED_FACE('',(#884,#885),#44,.F.);
#1009=ADVANCED_FACE('',(#886,#887),#963,.F.);
#1010=ADVANCED_FACE('',(#888,#889),#45,.F.);
#1011=ADVANCED_FACE('',(#890,#891),#46,.F.);
#1012=ADVANCED_FACE('',(#892,#893),#964,.F.);
#1013=ADVANCED_FACE('',(#894,#895),#47,.F.);
#1014=ADVANCED_FACE('',(#896,#897),#48,.F.);
#1015=ADVANCED_FACE('',(#898,#899),#965,.F.);
#1016=ADVANCED_FACE('',(#900,#901),#49,.F.);
#1017=ADVANCED_FACE('',(#902,#903),#50,.F.);
#1018=ADVANCED_FACE('',(#904,#905),#966,.F.);
#1019=ADVANCED_FACE('',(#906,#907),#51,.F.);
#1020=ADVANCED_FACE('',(#908,#909),#52,.F.);
#1021=ADVANCED_FACE('',(#910,#911),#967,.F.);
#1022=ADVANCED_FACE('',(#912,#913),#53,.F.);
#1023=ADVANCED_FACE('',(#914,#915),#54,.F.);
#1024=ADVANCED_FACE('',(#916,#917),#968,.F.);
#1025=ADVANCED_FACE('',(#918,#919),#55,.F.);
#1026=ADVANCED_FACE('',(#920,#921),#56,.F.);
#1027=ADVANCED_FACE('',(#922,#923),#16,.F.);
#1028=ADVANCED_FACE('',(#924,#925,#926),#57,.F.);
#1029=ADVANCED_FACE('',(#927,#928),#969,.F.);
#1030=ADVANCED_FACE('',(#929,#930),#58,.F.);
#1031=ADVANCED_FACE('',(#931,#932),#17,.F.);
#1032=ADVANCED_FACE('',(#933,#934,#935),#59,.F.);
#1033=ADVANCED_FACE('',(#936,#937),#970,.F.);
#1034=ADVANCED_FACE('',(#938,#939),#60,.F.);
#1035=ADVANCED_FACE('',(#940,#941),#61,.F.);
#1036=ADVANCED_FACE('',(#942,#943),#62,.F.);
#1037=ADVANCED_FACE('',(#944,#945),#63,.F.);
#1038=CLOSED_SHELL('',(#971,#972,#973,#974,#975,#976,#977,#978,#979,#980,#981,#982,#983,#984,#985,#986,#987,#988,#989,#990,#991,#992,#993,#994,#995,#996,#997,#998,#999,#1000,#1001,#1002,#1003,#1004,#1005,#1006,#1007,#1008,#1009,#1010,#1011,#1012,#1013,#1014,#1015,#1016,#1017,#1018,#1019,#1020,#1021,#1022,#1023,#1024,#1025,#1026,#1027,#1028,#1029,#1030,#1031,#1032,#1033,#1034,#1035,#1036,#1037));
#1039=STYLED_ITEM('',(#1040),#1047);
#1040=PRESENTATION_STYLE_ASSIGNMENT((#1041));
#1041=SURFACE_STYLE_USAGE(.BOTH.,#1042);
#1042=SURFACE_SIDE_STYLE('',(#1043));
#1043=SURFACE_STYLE_FILL_AREA(#1044);
#1044=FILL_AREA_STYLE('',(#1045));
#1045=FILL_AREA_STYLE_COLOUR('',#1046);
#1046=COLOUR_RGB('',0.796078431372549,0.823529411764706,0.937254901960784);
#1047=MANIFOLD_SOLID_BREP('Part 1',#1038);
#1048=SHAPE_DEFINITION_REPRESENTATION(#1896,#1049);
#1049=SHAPE_REPRESENTATION('Part 1',(#1050),#1891);
#1050=AXIS2_PLACEMENT_3D('',#1516,#1192,#1193);
#1051=AXIS2_PLACEMENT_3D('',#1517,#1194,#1195);
#1052=AXIS2_PLACEMENT_3D('',#1518,#1196,#1197);
#1053=AXIS2_PLACEMENT_3D('',#1521,#1198,#1199);
#1054=AXIS2_PLACEMENT_3D('',#1523,#1200,#1201);
#1055=AXIS2_PLACEMENT_3D('',#1527,#1203,#1204);
#1056=AXIS2_PLACEMENT_3D('',#1531,#1206,#1207);
#1057=AXIS2_PLACEMENT_3D('',#1533,#1208,#1209);
#1058=AXIS2_PLACEMENT_3D('',#1535,#1210,#1211);
#1059=AXIS2_PLACEMENT_3D('',#1539,#1213,#1214);
#1060=AXIS2_PLACEMENT_3D('',#1542,#1216,#1217);
#1061=AXIS2_PLACEMENT_3D('',#1547,#1219,#1220);
#1062=AXIS2_PLACEMENT_3D('',#1551,#1222,#1223);
#1063=AXIS2_PLACEMENT_3D('',#1555,#1225,#1226);
#1064=AXIS2_PLACEMENT_3D('',#1558,#1228,#1229);
#1065=AXIS2_PLACEMENT_3D('',#1560,#1230,#1231);
#1066=AXIS2_PLACEMENT_3D('',#1562,#1232,#1233);
#1067=AXIS2_PLACEMENT_3D('',#1566,#1235,#1236);
#1068=AXIS2_PLACEMENT_3D('',#1570,#1238,#1239);
#1069=AXIS2_PLACEMENT_3D('',#1571,#1240,#1241);
#1070=AXIS2_PLACEMENT_3D('',#1572,#1242,#1243);
#1071=AXIS2_PLACEMENT_3D('',#1574,#1244,#1245);
#1072=AXIS2_PLACEMENT_3D('',#1576,#1246,#1247);
#1073=AXIS2_PLACEMENT_3D('',#1578,#1248,#1249);
#1074=AXIS2_PLACEMENT_3D('',#1583,#1251,#1252);
#1075=AXIS2_PLACEMENT_3D('',#1587,#1254,#1255);
#1076=AXIS2_PLACEMENT_3D('',#1589,#1256,#1257);
#1077=AXIS2_PLACEMENT_3D('',#1590,#1258,#1259);
#1078=AXIS2_PLACEMENT_3D('',#1633,#1261,#1262);
#1079=AXIS2_PLACEMENT_3D('',#1638,#1266,#1267);
#1080=AXIS2_PLACEMENT_3D('',#1640,#1268,#1269);
#1081=AXIS2_PLACEMENT_3D('',#1641,#1270,#1271);
#1082=AXIS2_PLACEMENT_3D('',#1643,#1272,#1273);
#1083=AXIS2_PLACEMENT_3D('',#1645,#1274,#1275);
#1084=AXIS2_PLACEMENT_3D('',#1649,#1277,#1278);
#1085=AXIS2_PLACEMENT_3D('',#1651,#1279,#1280);
#1086=AXIS2_PLACEMENT_3D('',#1653,#1281,#1282);
#1087=AXIS2_PLACEMENT_3D('',#1656,#1284,#1285);
#1088=AXIS2_PLACEMENT_3D('',#1657,#1286,#1287);
#1089=AXIS2_PLACEMENT_3D('',#1659,#1288,#1289);
#1090=AXIS2_PLACEMENT_3D('',#1661,#1290,#1291);
#1091=AXIS2_PLACEMENT_3D('',#1663,#1292,#1293);
#1092=AXIS2_PLACEMENT_3D('',#1665,#1294,#1295);
#1093=AXIS2_PLACEMENT_3D('',#1667,#1296,#1297);
#1094=AXIS2_PLACEMENT_3D('',#1669,#1298,#1299);
#1095=AXIS2_PLACEMENT_3D('',#1671,#1300,#1301);
#1096=AXIS2_PLACEMENT_3D('',#1674,#1304,#1305);
#1097=AXIS2_PLACEMENT_3D('',#1676,#1307,#1308);
#1098=AXIS2_PLACEMENT_3D('',#1678,#1310,#1311);
#1099=AXIS2_PLACEMENT_3D('',#1679,#1312,#1313);
#1100=AXIS2_PLACEMENT_3D('',#1681,#1315,#1316);
#1101=AXIS2_PLACEMENT_3D('',#1683,#1318,#1319);
#1102=AXIS2_PLACEMENT_3D('',#1685,#1321,#1322);
#1103=AXIS2_PLACEMENT_3D('',#1687,#1324,#1325);
#1104=AXIS2_PLACEMENT_3D('',#1688,#1326,#1327);
#1105=AXIS2_PLACEMENT_3D('',#1689,#1328,#1329);
#1106=AXIS2_PLACEMENT_3D('',#1694,#1332,#1333);
#1107=AXIS2_PLACEMENT_3D('',#1695,#1334,#1335);
#1108=AXIS2_PLACEMENT_3D('',#1699,#1338,#1339);
#1109=AXIS2_PLACEMENT_3D('',#1702,#1341,#1342);
#1110=AXIS2_PLACEMENT_3D('',#1703,#1343,#1344);
#1111=AXIS2_PLACEMENT_3D('',#1707,#1347,#1348);
#1112=AXIS2_PLACEMENT_3D('',#1710,#1350,#1351);
#1113=AXIS2_PLACEMENT_3D('',#1711,#1352,#1353);
#1114=AXIS2_PLACEMENT_3D('',#1715,#1356,#1357);
#1115=AXIS2_PLACEMENT_3D('',#1718,#1359,#1360);
#1116=AXIS2_PLACEMENT_3D('',#1719,#1361,#1362);
#1117=AXIS2_PLACEMENT_3D('',#1721,#1364,#1365);
#1118=AXIS2_PLACEMENT_3D('',#1722,#1366,#1367);
#1119=AXIS2_PLACEMENT_3D('',#1724,#1368,#1369);
#1120=AXIS2_PLACEMENT_3D('',#1726,#1370,#1371);
#1121=AXIS2_PLACEMENT_3D('',#1728,#1372,#1373);
#1122=AXIS2_PLACEMENT_3D('',#1732,#1375,#1376);
#1123=AXIS2_PLACEMENT_3D('',#1736,#1378,#1379);
#1124=AXIS2_PLACEMENT_3D('',#1737,#1380,#1381);
#1125=AXIS2_PLACEMENT_3D('',#1760,#1382,#1383);
#1126=AXIS2_PLACEMENT_3D('',#1761,#1384,#1385);
#1127=AXIS2_PLACEMENT_3D('',#1763,#1386,#1387);
#1128=AXIS2_PLACEMENT_3D('',#1764,#1388,#1389);
#1129=AXIS2_PLACEMENT_3D('',#1766,#1390,#1391);
#1130=AXIS2_PLACEMENT_3D('',#1767,#1392,#1393);
#1131=AXIS2_PLACEMENT_3D('',#1769,#1394,#1395);
#1132=AXIS2_PLACEMENT_3D('',#1770,#1396,#1397);
#1133=AXIS2_PLACEMENT_3D('',#1772,#1398,#1399);
#1134=AXIS2_PLACEMENT_3D('',#1773,#1400,#1401);
#1135=AXIS2_PLACEMENT_3D('',#1775,#1402,#1403);
#1136=AXIS2_PLACEMENT_3D('',#1786,#1404,#1405);
#1137=AXIS2_PLACEMENT_3D('',#1788,#1406,#1407);
#1138=AXIS2_PLACEMENT_3D('',#1790,#1408,#1409);
#1139=AXIS2_PLACEMENT_3D('',#1791,#1410,#1411);
#1140=AXIS2_PLACEMENT_3D('',#1793,#1412,#1413);
#1141=AXIS2_PLACEMENT_3D('',#1795,#1414,#1415);
#1142=AXIS2_PLACEMENT_3D('',#1796,#1416,#1417);
#1143=AXIS2_PLACEMENT_3D('',#1797,#1418,#1419);
#1144=AXIS2_PLACEMENT_3D('',#1799,#1420,#1421);
#1145=AXIS2_PLACEMENT_3D('',#1800,#1422,#1423);
#1146=AXIS2_PLACEMENT_3D('',#1802,#1424,#1425);
#1147=AXIS2_PLACEMENT_3D('',#1803,#1426,#1427);
#1148=AXIS2_PLACEMENT_3D('',#1804,#1428,#1429);
#1149=AXIS2_PLACEMENT_3D('',#1806,#1430,#1431);
#1150=AXIS2_PLACEMENT_3D('',#1807,#1432,#1433);
#1151=AXIS2_PLACEMENT_3D('',#1809,#1434,#1435);
#1152=AXIS2_PLACEMENT_3D('',#1810,#1436,#1437);
#1153=AXIS2_PLACEMENT_3D('',#1811,#1438,#1439);
#1154=AXIS2_PLACEMENT_3D('',#1813,#1440,#1441);
#1155=AXIS2_PLACEMENT_3D('',#1814,#1442,#1443);
#1156=AXIS2_PLACEMENT_3D('',#1816,#1444,#1445);
#1157=AXIS2_PLACEMENT_3D('',#1817,#1446,#1447);
#1158=AXIS2_PLACEMENT_3D('',#1818,#1448,#1449);
#1159=AXIS2_PLACEMENT_3D('',#1820,#1450,#1451);
#1160=AXIS2_PLACEMENT_3D('',#1821,#1452,#1453);
#1161=AXIS2_PLACEMENT_3D('',#1823,#1454,#1455);
#1162=AXIS2_PLACEMENT_3D('',#1824,#1456,#1457);
#1163=AXIS2_PLACEMENT_3D('',#1825,#1458,#1459);
#1164=AXIS2_PLACEMENT_3D('',#1827,#1460,#1461);
#1165=AXIS2_PLACEMENT_3D('',#1828,#1462,#1463);
#1166=AXIS2_PLACEMENT_3D('',#1830,#1464,#1465);
#1167=AXIS2_PLACEMENT_3D('',#1831,#1466,#1467);
#1168=AXIS2_PLACEMENT_3D('',#1832,#1468,#1469);
#1169=AXIS2_PLACEMENT_3D('',#1834,#1470,#1471);
#1170=AXIS2_PLACEMENT_3D('',#1835,#1472,#1473);
#1171=AXIS2_PLACEMENT_3D('',#1837,#1474,#1475);
#1172=AXIS2_PLACEMENT_3D('',#1838,#1476,#1477);
#1173=AXIS2_PLACEMENT_3D('',#1839,#1478,#1479);
#1174=AXIS2_PLACEMENT_3D('',#1841,#1480,#1481);
#1175=AXIS2_PLACEMENT_3D('',#1842,#1482,#1483);
#1176=AXIS2_PLACEMENT_3D('',#1844,#1484,#1485);
#1177=AXIS2_PLACEMENT_3D('',#1846,#1486,#1487);
#1178=AXIS2_PLACEMENT_3D('',#1859,#1488,#1489);
#1179=AXIS2_PLACEMENT_3D('',#1861,#1490,#1491);
#1180=AXIS2_PLACEMENT_3D('',#1862,#1492,#1493);
#1181=AXIS2_PLACEMENT_3D('',#1863,#1494,#1495);
#1182=AXIS2_PLACEMENT_3D('',#1865,#1496,#1497);
#1183=AXIS2_PLACEMENT_3D('',#1866,#1498,#1499);
#1184=AXIS2_PLACEMENT_3D('',#1868,#1500,#1501);
#1185=AXIS2_PLACEMENT_3D('',#1870,#1502,#1503);
#1186=AXIS2_PLACEMENT_3D('',#1883,#1504,#1505);
#1187=AXIS2_PLACEMENT_3D('',#1885,#1506,#1507);
#1188=AXIS2_PLACEMENT_3D('',#1886,#1508,#1509);
#1189=AXIS2_PLACEMENT_3D('',#1887,#1510,#1511);
#1190=AXIS2_PLACEMENT_3D('',#1888,#1512,#1513);
#1191=AXIS2_PLACEMENT_3D('',#1889,#1514,#1515);
#1192=DIRECTION('',(0.,0.,1.));
#1193=DIRECTION('',(1.,0.,0.));
#1194=DIRECTION('',(0.,-1.,0.));
#1195=DIRECTION('',(0.,0.,-1.));
#1196=DIRECTION('',(0.,-1.,0.));
#1197=DIRECTION('',(0.,0.,-1.));
#1198=DIRECTION('',(0.,1.,0.));
#1199=DIRECTION('',(0.,0.,1.));
#1200=DIRECTION('',(0.,1.,0.));
#1201=DIRECTION('',(0.,0.,1.));
#1202=DIRECTION('',(1.,0.,0.));
#1203=DIRECTION('',(0.,1.,0.));
#1204=DIRECTION('',(0.,0.,1.));
#1205=DIRECTION('',(1.,0.,9.1845024483645E-17));
#1206=DIRECTION('',(0.,1.,0.));
#1207=DIRECTION('',(0.,0.,1.));
#1208=DIRECTION('',(0.,1.,0.));
#1209=DIRECTION('',(0.,0.,1.));
#1210=DIRECTION('',(0.,-1.,0.));
#1211=DIRECTION('',(0.,0.,-1.));
#1212=DIRECTION('',(1.,0.,-9.1845024483645E-17));
#1213=DIRECTION('',(0.,1.,0.));
#1214=DIRECTION('',(0.,0.,1.));
#1215=DIRECTION('',(1.,0.,0.));
#1216=DIRECTION('',(0.,-1.,0.));
#1217=DIRECTION('',(0.,0.,-1.));
#1218=DIRECTION('',(0.571428571428571,0.,0.82065180664829));
#1219=DIRECTION('',(0.,-1.,0.));
#1220=DIRECTION('',(0.,0.,-1.));
#1221=DIRECTION('',(0.571428571428571,0.,-0.82065180664829));
#1222=DIRECTION('',(0.,-1.,0.));
#1223=DIRECTION('',(0.,0.,-1.));
#1224=DIRECTION('',(-0.571428571428572,0.,-0.82065180664829));
#1225=DIRECTION('',(0.,-1.,0.));
#1226=DIRECTION('',(0.,0.,-1.));
#1227=DIRECTION('',(-0.571428571428572,0.,0.82065180664829));
#1228=DIRECTION('',(0.,1.,0.));
#1229=DIRECTION('',(0.,0.,1.));
#1230=DIRECTION('',(0.,1.,0.));
#1231=DIRECTION('',(0.,0.,1.));
#1232=DIRECTION('',(0.,-1.,0.));
#1233=DIRECTION('',(0.,0.,-1.));
#1234=DIRECTION('',(-1.,0.,-3.3690166589284E-15));
#1235=DIRECTION('',(0.,1.,0.));
#1236=DIRECTION('',(0.,0.,1.));
#1237=DIRECTION('',(-1.,0.,-3.3690166589284E-15));
#1238=DIRECTION('',(0.,1.,0.));
#1239=DIRECTION('',(0.,0.,1.));
#1240=DIRECTION('',(0.,1.,0.));
#1241=DIRECTION('',(0.,0.,1.));
#1242=DIRECTION('',(0.,1.,0.));
#1243=DIRECTION('',(0.,0.,1.));
#1244=DIRECTION('',(0.,1.,0.));
#1245=DIRECTION('',(0.,0.,1.));
#1246=DIRECTION('',(0.,1.,0.));
#1247=DIRECTION('',(0.,0.,1.));
#1248=DIRECTION('',(0.,1.,0.));
#1249=DIRECTION('',(0.,0.,1.));
#1250=DIRECTION('',(-1.,0.,-9.1845024483645E-17));
#1251=DIRECTION('',(0.,1.,0.));
#1252=DIRECTION('',(0.,0.,1.));
#1253=DIRECTION('',(-1.,0.,9.1845024483645E-17));
#1254=DIRECTION('',(0.,1.,0.));
#1255=DIRECTION('',(0.,0.,1.));
#1256=DIRECTION('',(0.,1.,0.));
#1257=DIRECTION('',(0.,0.,1.));
#1258=DIRECTION('',(0.,-1.,0.));
#1259=DIRECTION('',(0.,0.,-1.));
#1260=DIRECTION('',(0.,-1.,0.));
#1261=DIRECTION('',(0.,1.,0.));
#1262=DIRECTION('',(0.,0.,1.));
#1263=DIRECTION('',(0.,-1.,0.));
#1264=DIRECTION('',(0.,-1.,0.));
#1265=DIRECTION('',(0.,-1.,0.));
#1266=DIRECTION('',(0.,1.,0.));
#1267=DIRECTION('',(0.,0.,1.));
#1268=DIRECTION('',(0.,1.,0.));
#1269=DIRECTION('',(0.,0.,1.));
#1270=DIRECTION('',(0.,1.,0.));
#1271=DIRECTION('',(0.,0.,1.));
#1272=DIRECTION('',(0.,1.,0.));
#1273=DIRECTION('',(0.,0.,1.));
#1274=DIRECTION('',(0.,1.,0.));
#1275=DIRECTION('',(0.,0.,1.));
#1276=DIRECTION('',(-1.,0.,0.));
#1277=DIRECTION('',(0.,1.,0.));
#1278=DIRECTION('',(0.,0.,1.));
#1279=DIRECTION('',(0.,1.,0.));
#1280=DIRECTION('',(0.,0.,1.));
#1281=DIRECTION('',(0.,1.,0.));
#1282=DIRECTION('',(0.,0.,1.));
#1283=DIRECTION('',(-1.,0.,0.));
#1284=DIRECTION('',(0.,1.,0.));
#1285=DIRECTION('',(0.,0.,1.));
#1286=DIRECTION('',(0.,1.,0.));
#1287=DIRECTION('',(0.,0.,1.));
#1288=DIRECTION('',(0.,1.,0.));
#1289=DIRECTION('',(0.,0.,1.));
#1290=DIRECTION('',(0.,1.,0.));
#1291=DIRECTION('',(0.,0.,1.));
#1292=DIRECTION('',(0.,1.,0.));
#1293=DIRECTION('',(0.,0.,1.));
#1294=DIRECTION('',(0.,1.,0.));
#1295=DIRECTION('',(0.,0.,1.));
#1296=DIRECTION('',(0.,1.,0.));
#1297=DIRECTION('',(0.,0.,1.));
#1298=DIRECTION('',(0.,1.,0.));
#1299=DIRECTION('',(0.,0.,1.));
#1300=DIRECTION('',(0.,-1.,0.));
#1301=DIRECTION('',(0.,0.,-1.));
#1302=DIRECTION('',(0.,-1.,0.));
#1303=DIRECTION('',(0.,-1.,0.));
#1304=DIRECTION('',(0.,-1.,0.));
#1305=DIRECTION('',(0.,0.,-1.));
#1306=DIRECTION('',(0.,-1.,0.));
#1307=DIRECTION('',(0.,-1.,0.));
#1308=DIRECTION('',(0.,0.,-1.));
#1309=DIRECTION('',(0.,-1.,0.));
#1310=DIRECTION('',(0.,0.,-1.));
#1311=DIRECTION('',(-1.,0.,0.));
#1312=DIRECTION('',(9.1845024483645E-17,0.,-1.));
#1313=DIRECTION('',(-1.,0.,-9.1845024483645E-17));
#1314=DIRECTION('',(0.,-1.,0.));
#1315=DIRECTION('',(0.,-1.,0.));
#1316=DIRECTION('',(0.,0.,-1.));
#1317=DIRECTION('',(0.,-1.,0.));
#1318=DIRECTION('',(0.,-1.,0.));
#1319=DIRECTION('',(0.,0.,-1.));
#1320=DIRECTION('',(0.,-1.,0.));
#1321=DIRECTION('',(0.,-1.,0.));
#1322=DIRECTION('',(0.,0.,-1.));
#1323=DIRECTION('',(0.,-1.,0.));
#1324=DIRECTION('',(-9.1845024483645E-17,0.,-1.));
#1325=DIRECTION('',(-1.,0.,9.1845024483645E-17));
#1326=DIRECTION('',(0.,0.,-1.));
#1327=DIRECTION('',(-1.,0.,0.));
#1328=DIRECTION('',(0.,-1.,0.));
#1329=DIRECTION('',(0.,0.,-1.));
#1330=DIRECTION('',(0.,-1.,0.));
#1331=DIRECTION('',(0.,-1.,0.));
#1332=DIRECTION('',(0.,1.,0.));
#1333=DIRECTION('',(0.,0.,1.));
#1334=DIRECTION('',(0.82065180664829,0.,0.571428571428572));
#1335=DIRECTION('',(0.571428571428572,0.,-0.82065180664829));
#1336=DIRECTION('',(0.,-1.,0.));
#1337=DIRECTION('',(-0.571428571428572,0.,0.82065180664829));
#1338=DIRECTION('',(0.,-1.,0.));
#1339=DIRECTION('',(0.,0.,-1.));
#1340=DIRECTION('',(0.,-1.,0.));
#1341=DIRECTION('',(0.,1.,0.));
#1342=DIRECTION('',(0.,0.,1.));
#1343=DIRECTION('',(-0.82065180664829,0.,0.571428571428572));
#1344=DIRECTION('',(0.571428571428572,0.,0.82065180664829));
#1345=DIRECTION('',(0.,-1.,0.));
#1346=DIRECTION('',(-0.571428571428572,0.,-0.82065180664829));
#1347=DIRECTION('',(0.,-1.,0.));
#1348=DIRECTION('',(0.,0.,-1.));
#1349=DIRECTION('',(0.,-1.,0.));
#1350=DIRECTION('',(0.,1.,0.));
#1351=DIRECTION('',(0.,0.,1.));
#1352=DIRECTION('',(-0.82065180664829,0.,-0.571428571428571));
#1353=DIRECTION('',(-0.571428571428571,0.,0.82065180664829));
#1354=DIRECTION('',(0.,-1.,0.));
#1355=DIRECTION('',(0.571428571428571,0.,-0.82065180664829));
#1356=DIRECTION('',(0.,-1.,0.));
#1357=DIRECTION('',(0.,0.,-1.));
#1358=DIRECTION('',(0.,-1.,0.));
#1359=DIRECTION('',(0.,1.,0.));
#1360=DIRECTION('',(0.,0.,1.));
#1361=DIRECTION('',(0.82065180664829,0.,-0.571428571428571));
#1362=DIRECTION('',(-0.571428571428571,0.,-0.82065180664829));
#1363=DIRECTION('',(0.571428571428571,0.,0.82065180664829));
#1364=DIRECTION('',(0.,1.,0.));
#1365=DIRECTION('',(0.,0.,1.));
#1366=DIRECTION('',(0.,1.,0.));
#1367=DIRECTION('',(0.,0.,1.));
#1368=DIRECTION('',(0.,1.,0.));
#1369=DIRECTION('',(0.,0.,1.));
#1370=DIRECTION('',(0.,1.,0.));
#1371=DIRECTION('',(0.,0.,1.));
#1372=DIRECTION('',(0.,-1.,0.));
#1373=DIRECTION('',(0.,0.,-1.));
#1374=DIRECTION('',(-1.,0.,-3.3690166589284E-15));
#1375=DIRECTION('',(0.,1.,0.));
#1376=DIRECTION('',(0.,0.,1.));
#1377=DIRECTION('',(-1.,0.,-3.3690166589284E-15));
#1378=DIRECTION('',(0.,1.,0.));
#1379=DIRECTION('',(0.,0.,1.));
#1380=DIRECTION('',(0.,1.,0.));
#1381=DIRECTION('',(0.,0.,1.));
#1382=DIRECTION('',(0.,1.,0.));
#1383=DIRECTION('',(0.,0.,1.));
#1384=DIRECTION('',(0.,1.,0.));
#1385=DIRECTION('',(0.,0.,1.));
#1386=DIRECTION('',(0.,1.,0.));
#1387=DIRECTION('',(0.,0.,1.));
#1388=DIRECTION('',(0.,1.,0.));
#1389=DIRECTION('',(0.,0.,1.));
#1390=DIRECTION('',(0.,1.,0.));
#1391=DIRECTION('',(0.,0.,1.));
#1392=DIRECTION('',(0.,1.,0.));
#1393=DIRECTION('',(0.,0.,1.));
#1394=DIRECTION('',(0.,-1.,0.));
#1395=DIRECTION('',(0.,0.,-1.));
#1396=DIRECTION('',(0.,1.,0.));
#1397=DIRECTION('',(0.,0.,1.));
#1398=DIRECTION('',(0.,1.,0.));
#1399=DIRECTION('',(0.,0.,1.));
#1400=DIRECTION('',(0.,1.,0.));
#1401=DIRECTION('',(0.,0.,1.));
#1402=DIRECTION('',(0.,1.,0.));
#1403=DIRECTION('',(0.,0.,1.));
#1404=DIRECTION('',(0.,1.,0.));
#1405=DIRECTION('',(0.,0.,1.));
#1406=DIRECTION('',(0.,1.,0.));
#1407=DIRECTION('',(0.,0.,1.));
#1408=DIRECTION('',(0.,1.,0.));
#1409=DIRECTION('',(0.,0.,1.));
#1410=DIRECTION('',(0.,1.,0.));
#1411=DIRECTION('',(0.,0.,1.));
#1412=DIRECTION('',(0.,1.,0.));
#1413=DIRECTION('',(0.,0.,1.));
#1414=DIRECTION('',(0.,1.,0.));
#1415=DIRECTION('',(0.,0.,1.));
#1416=DIRECTION('',(0.,1.,0.));
#1417=DIRECTION('',(0.,0.,1.));
#1418=DIRECTION('',(0.,1.,0.));
#1419=DIRECTION('',(0.,0.,1.));
#1420=DIRECTION('',(0.,-1.,0.));
#1421=DIRECTION('',(0.,0.,-1.));
#1422=DIRECTION('',(0.,1.,0.));
#1423=DIRECTION('',(0.,0.,1.));
#1424=DIRECTION('',(0.,1.,0.));
#1425=DIRECTION('',(0.,0.,1.));
#1426=DIRECTION('',(0.,1.,0.));
#1427=DIRECTION('',(0.,0.,1.));
#1428=DIRECTION('',(0.,1.,0.));
#1429=DIRECTION('',(0.,0.,1.));
#1430=DIRECTION('',(0.,-1.,0.));
#1431=DIRECTION('',(0.,0.,-1.));
#1432=DIRECTION('',(0.,1.,0.));
#1433=DIRECTION('',(0.,0.,1.));
#1434=DIRECTION('',(0.,1.,0.));
#1435=DIRECTION('',(0.,0.,1.));
#1436=DIRECTION('',(0.,1.,0.));
#1437=DIRECTION('',(0.,0.,1.));
#1438=DIRECTION('',(0.,1.,0.));
#1439=DIRECTION('',(0.,0.,1.));
#1440=DIRECTION('',(0.,-1.,0.));
#1441=DIRECTION('',(0.,0.,-1.));
#1442=DIRECTION('',(0.,1.,0.));
#1443=DIRECTION('',(0.,0.,1.));
#1444=DIRECTION('',(0.,1.,0.));
#1445=DIRECTION('',(0.,0.,1.));
#1446=DIRECTION('',(0.,1.,0.));
#1447=DIRECTION('',(0.,0.,1.));
#1448=DIRECTION('',(0.,1.,0.));
#1449=DIRECTION('',(0.,0.,1.));
#1450=DIRECTION('',(0.,-1.,0.));
#1451=DIRECTION('',(0.,0.,-1.));
#1452=DIRECTION('',(0.,1.,0.));
#1453=DIRECTION('',(0.,0.,1.));
#1454=DIRECTION('',(0.,1.,0.));
#1455=DIRECTION('',(0.,0.,1.));
#1456=DIRECTION('',(0.,1.,0.));
#1457=DIRECTION('',(0.,0.,1.));
#1458=DIRECTION('',(0.,1.,0.));
#1459=DIRECTION('',(0.,0.,1.));
#1460=DIRECTION('',(0.,-1.,0.));
#1461=DIRECTION('',(0.,0.,-1.));
#1462=DIRECTION('',(0.,1.,0.));
#1463=DIRECTION('',(0.,0.,1.));
#1464=DIRECTION('',(0.,1.,0.));
#1465=DIRECTION('',(0.,0.,1.));
#1466=DIRECTION('',(0.,1.,0.));
#1467=DIRECTION('',(0.,0.,1.));
#1468=DIRECTION('',(0.,1.,0.));
#1469=DIRECTION('',(0.,0.,1.));
#1470=DIRECTION('',(0.,-1.,0.));
#1471=DIRECTION('',(0.,0.,-1.));
#1472=DIRECTION('',(0.,1.,0.));
#1473=DIRECTION('',(0.,0.,1.));
#1474=DIRECTION('',(0.,1.,0.));
#1475=DIRECTION('',(0.,0.,1.));
#1476=DIRECTION('',(-1.,0.,-3.3690166589284E-15));
#1477=DIRECTION('',(-3.3690166589284E-15,0.,1.));
#1478=DIRECTION('',(-1.,0.,-3.3690166589284E-15));
#1479=DIRECTION('',(-3.3690166589284E-15,0.,1.));
#1480=DIRECTION('',(-1.,0.,-3.3690166589284E-15));
#1481=DIRECTION('',(-3.3690166589284E-15,0.,1.));
#1482=DIRECTION('',(-1.,0.,-3.3690166589284E-15));
#1483=DIRECTION('',(-3.3690166589284E-15,0.,1.));
#1484=DIRECTION('',(-1.,0.,-3.3690166589284E-15));
#1485=DIRECTION('',(-3.3690166589284E-15,0.,1.));
#1486=DIRECTION('',(-1.,0.,-3.3690166589284E-15));
#1487=DIRECTION('',(-3.3690166589284E-15,0.,1.));
#1488=DIRECTION('',(-1.,0.,-3.3690166589284E-15));
#1489=DIRECTION('',(-3.3690166589284E-15,0.,1.));
#1490=DIRECTION('',(1.,0.,3.3690166589284E-15));
#1491=DIRECTION('',(3.3690166589284E-15,0.,-1.));
#1492=DIRECTION('',(1.,0.,3.3690166589284E-15));
#1493=DIRECTION('',(3.3690166589284E-15,0.,-1.));
#1494=DIRECTION('',(1.,0.,3.3690166589284E-15));
#1495=DIRECTION('',(3.3690166589284E-15,0.,-1.));
#1496=DIRECTION('',(1.,0.,3.3690166589284E-15));
#1497=DIRECTION('',(3.3690166589284E-15,0.,-1.));
#1498=DIRECTION('',(1.,0.,3.3690166589284E-15));
#1499=DIRECTION('',(3.3690166589284E-15,0.,-1.));
#1500=DIRECTION('',(1.,0.,3.3690166589284E-15));
#1501=DIRECTION('',(3.3690166589284E-15,0.,-1.));
#1502=DIRECTION('',(1.,0.,3.3690166589284E-15));
#1503=DIRECTION('',(3.3690166589284E-15,0.,-1.));
#1504=DIRECTION('',(1.,0.,3.3690166589284E-15));
#1505=DIRECTION('',(3.3690166589284E-15,0.,-1.));
#1506=DIRECTION('',(-1.,0.,-3.3690166589284E-15));
#1507=DIRECTION('',(-3.3690166589284E-15,0.,1.));
#1508=DIRECTION('',(-1.,0.,-3.3690166589284E-15));
#1509=DIRECTION('',(-3.3690166589284E-15,0.,1.));
#1510=DIRECTION('',(-1.,0.,-3.3690166589284E-15));
#1511=DIRECTION('',(-3.3690166589284E-15,0.,1.));
#1512=DIRECTION('',(0.,1.,0.));
#1513=DIRECTION('',(0.,0.,1.));
#1514=DIRECTION('',(0.,1.,0.));
#1515=DIRECTION('',(0.,0.,1.));
#1516=CARTESIAN_POINT('',(0.,0.,0.));
#1517=CARTESIAN_POINT('',(50.5099000196991,41.,-23.));
#1518=CARTESIAN_POINT('',(50.5099000196991,41.,-23.));
#1519=CARTESIAN_POINT('',(50.5099000196991,41.,-15.));
#1520=CARTESIAN_POINT('',(43.2291937105533,41.,-19.6846846846847));
#1521=CARTESIAN_POINT('',(0.,41.,0.));
#1522=CARTESIAN_POINT('',(-43.2291937105533,41.,-19.6846846846847));
#1523=CARTESIAN_POINT('',(-50.5099000196991,41.,-23.));
#1524=CARTESIAN_POINT('',(-50.5099000196991,41.,-15.));
#1525=CARTESIAN_POINT('',(-69.3974062915899,41.,-15.));
#1526=CARTESIAN_POINT('',(-69.3974062915899,41.,-15.));
#1527=CARTESIAN_POINT('',(0.,41.,0.));
#1528=CARTESIAN_POINT('',(-69.3974062915899,41.,15.));
#1529=CARTESIAN_POINT('',(-69.3974062915899,41.,15.));
#1530=CARTESIAN_POINT('',(-50.5099000196991,41.,15.));
#1531=CARTESIAN_POINT('',(-50.5099000196991,41.,23.));
#1532=CARTESIAN_POINT('',(-43.2291937105533,41.,19.6846846846847));
#1533=CARTESIAN_POINT('',(0.,41.,0.));
#1534=CARTESIAN_POINT('',(43.2291937105533,41.,19.6846846846847));
#1535=CARTESIAN_POINT('',(50.5099000196991,41.,23.));
#1536=CARTESIAN_POINT('',(50.5099000196991,41.,15.));
#1537=CARTESIAN_POINT('',(50.5099000196991,41.,15.));
#1538=CARTESIAN_POINT('',(69.3974062915899,41.,15.));
#1539=CARTESIAN_POINT('',(0.,41.,0.));
#1540=CARTESIAN_POINT('',(69.3974062915899,41.,-15.));
#1541=CARTESIAN_POINT('',(50.5099000196991,41.,-15.));
#1542=CARTESIAN_POINT('',(4.40872847693047E-15,41.,-35.));
#1543=CARTESIAN_POINT('',(9.02716987313119,41.,-41.2857142857143));
#1544=CARTESIAN_POINT('',(-9.02716987313118,41.,-41.2857142857143));
#1545=CARTESIAN_POINT('',(31.1475251251518,41.,-9.51777265848702));
#1546=CARTESIAN_POINT('',(25.440206006097,41.,-17.7142857142857));
#1547=CARTESIAN_POINT('',(0.,41.,0.));
#1548=CARTESIAN_POINT('',(25.440206006097,41.,17.7142857142857));
#1549=CARTESIAN_POINT('',(52.718944042764,41.,-21.4618191782477));
#1550=CARTESIAN_POINT('',(9.02716987313119,41.,41.2857142857143));
#1551=CARTESIAN_POINT('',(1.29812560709619E-14,41.,35.));
#1552=CARTESIAN_POINT('',(-9.02716987313118,41.,41.2857142857143));
#1553=CARTESIAN_POINT('',(-19.7328868870421,41.,25.9107987700845));
#1554=CARTESIAN_POINT('',(-25.440206006097,41.,17.7142857142857));
#1555=CARTESIAN_POINT('',(0.,41.,0.));
#1556=CARTESIAN_POINT('',(-25.440206006097,41.,-17.7142857142857));
#1557=CARTESIAN_POINT('',(1.83853203057006,41.,-56.8903906068191));
#1558=CARTESIAN_POINT('',(-49.7030934388351,41.,-3.4192403547208E-14));
#1559=CARTESIAN_POINT('',(-49.7030934388351,41.,2.49999999999997));
#1560=CARTESIAN_POINT('',(42.2969065611649,41.,-4.02253261733007E-14));
#1561=CARTESIAN_POINT('',(42.2969065611649,41.,2.49999999999996));
#1562=CARTESIAN_POINT('',(25.,18.,0.));
#1563=CARTESIAN_POINT('',(-67.,18.,1.68270828863633));
#1564=CARTESIAN_POINT('',(30.9542968392977,18.,1.68270828863666));
#1565=CARTESIAN_POINT('',(24.9433055711418,18.,1.68270828863664));
#1566=CARTESIAN_POINT('',(0.,18.,0.));
#1567=CARTESIAN_POINT('',(-30.9542968392977,18.,1.68270828863646));
#1568=CARTESIAN_POINT('',(-67.,18.,1.68270828863633));
#1569=CARTESIAN_POINT('',(-24.9433055711418,18.,1.68270828863647));
#1570=CARTESIAN_POINT('',(0.,18.,0.));
#1571=CARTESIAN_POINT('',(0.,18.,0.));
#1572=CARTESIAN_POINT('',(51.0954988232822,18.,29.4999999999995));
#1573=CARTESIAN_POINT('',(51.0954988232822,18.,38.4999999999995));
#1574=CARTESIAN_POINT('',(0.,18.,59.));
#1575=CARTESIAN_POINT('',(0.,18.,68.));
#1576=CARTESIAN_POINT('',(-51.0954988232818,18.,29.5));
#1577=CARTESIAN_POINT('',(-51.0954988232818,18.,38.5));
#1578=CARTESIAN_POINT('',(-50.5099000196991,18.,23.));
#1579=CARTESIAN_POINT('',(-50.5099000196991,18.,15.));
#1580=CARTESIAN_POINT('',(-43.2291937105533,18.,19.6846846846847));
#1581=CARTESIAN_POINT('',(-1.37767536725468E-15,18.,15.));
#1582=CARTESIAN_POINT('',(-69.3974062915899,18.,15.));
#1583=CARTESIAN_POINT('',(0.,18.,0.));
#1584=CARTESIAN_POINT('',(69.3974062915899,18.,15.));
#1585=CARTESIAN_POINT('',(1.37767536725468E-15,18.,15.));
#1586=CARTESIAN_POINT('',(50.5099000196991,18.,15.));
#1587=CARTESIAN_POINT('',(50.5099000196991,18.,23.));
#1588=CARTESIAN_POINT('',(43.2291937105533,18.,19.6846846846847));
#1589=CARTESIAN_POINT('',(0.,18.,0.));
#1590=CARTESIAN_POINT('',(0.,18.,0.));
#1591=CARTESIAN_POINT('',(70.370292665804,20.0972098477621,-9.47205113186859));
#1592=CARTESIAN_POINT('',(70.253362390193,16.1478066125053,-10.2629769994551));
#1593=CARTESIAN_POINT('',(70.3697402723834,12.2180637426575,-9.47604087030955));
#1594=CARTESIAN_POINT('',(70.647337767506,8.89560908281949,-7.25326879849825));
#1595=CARTESIAN_POINT('',(70.9234287601568,6.67498715157573,-3.93268436306184));
#1596=CARTESIAN_POINT('',(71.0381306081453,5.89028118691072,-0.00621593390989931));
#1597=CARTESIAN_POINT('',(70.9240474738694,6.67039760830962,3.92384275229379));
#1598=CARTESIAN_POINT('',(70.6474748882531,8.89392269953234,7.25268768385552));
#1599=CARTESIAN_POINT('',(70.3695992018961,12.2191491235063,9.47695254063971));
#1600=CARTESIAN_POINT('',(70.2536727928291,16.1472966206442,10.2608012861974));
#1601=CARTESIAN_POINT('',(70.3691927462179,20.075287111523,9.47983795313956));
#1602=CARTESIAN_POINT('',(70.6464682615891,23.3983214029819,7.26120489465898));
#1603=CARTESIAN_POINT('',(70.9229613554905,25.624032338986,3.94201294124961));
#1604=CARTESIAN_POINT('',(71.0382760072848,26.4127988884089,0.00890609248800216));
#1605=CARTESIAN_POINT('',(70.9239314259881,25.6312495032009,-3.92550906822756));
#1606=CARTESIAN_POINT('',(70.6477756623245,23.4092706100823,-7.24904666724517));
#1607=CARTESIAN_POINT('',(70.370292665804,20.0972098477621,-9.47205113186859));
#1608=CARTESIAN_POINT('',(70.253362390193,16.1478066125053,-10.2629769994551));
#1609=CARTESIAN_POINT('',(70.3697402723834,12.2180637426575,-9.47604087030955));
#1610=CARTESIAN_POINT('',(70.2922470831599,16.1510833400735,-9.99999999999975));
#1611=CARTESIAN_POINT('',(-70.370292665804,20.0972098477621,9.47205113186859));
#1612=CARTESIAN_POINT('',(-70.253362390193,16.1478066125053,10.2629769994551));
#1613=CARTESIAN_POINT('',(-70.3697402723834,12.2180637426575,9.47604087030955));
#1614=CARTESIAN_POINT('',(-70.647337767506,8.89560908281949,7.25326879849825));
#1615=CARTESIAN_POINT('',(-70.9234287601568,6.67498715157573,3.93268436306184));
#1616=CARTESIAN_POINT('',(-71.0381306081453,5.89028118691072,0.00621593390989931));
#1617=CARTESIAN_POINT('',(-70.9240474738694,6.67039760830962,-3.92384275229379));
#1618=CARTESIAN_POINT('',(-70.6474748882531,8.89392269953234,-7.25268768385552));
#1619=CARTESIAN_POINT('',(-70.3695992018961,12.2191491235063,-9.47695254063971));
#1620=CARTESIAN_POINT('',(-70.2536727928291,16.1472966206442,-10.2608012861974));
#1621=CARTESIAN_POINT('',(-70.3691927462179,20.075287111523,-9.47983795313956));
#1622=CARTESIAN_POINT('',(-70.6464682615891,23.3983214029819,-7.26120489465898));
#1623=CARTESIAN_POINT('',(-70.9229613554905,25.624032338986,-3.94201294124961));
#1624=CARTESIAN_POINT('',(-71.0382760072848,26.4127988884089,-0.00890609248800216));
#1625=CARTESIAN_POINT('',(-70.9239314259881,25.6312495032009,3.92550906822756));
#1626=CARTESIAN_POINT('',(-70.6477756623245,23.4092706100823,7.24904666724517));
#1627=CARTESIAN_POINT('',(-70.370292665804,20.0972098477621,9.47205113186859));
#1628=CARTESIAN_POINT('',(-70.253362390193,16.1478066125053,10.2629769994551));
#1629=CARTESIAN_POINT('',(-70.3697402723834,12.2180637426575,9.47604087030955));
#1630=CARTESIAN_POINT('',(-70.2922470831599,16.1510833400735,9.99999999999975));
#1631=CARTESIAN_POINT('',(-69.3974062915899,41.,-15.));
#1632=CARTESIAN_POINT('',(-69.3974062915899,18.,-15.));
#1633=CARTESIAN_POINT('',(0.,18.,0.));
#1634=CARTESIAN_POINT('',(69.3974062915899,18.,-15.));
#1635=CARTESIAN_POINT('',(69.3974062915899,41.,-15.));
#1636=CARTESIAN_POINT('',(69.3974062915899,41.,15.));
#1637=CARTESIAN_POINT('',(-69.3974062915899,41.,15.));
#1638=CARTESIAN_POINT('',(0.,0.,0.));
#1639=CARTESIAN_POINT('',(0.,0.,71.));
#1640=CARTESIAN_POINT('',(0.,18.,0.));
#1641=CARTESIAN_POINT('',(51.0954988232815,18.,-29.5000000000006));
#1642=CARTESIAN_POINT('',(51.0954988232815,18.,-20.5000000000006));
#1643=CARTESIAN_POINT('',(-51.095498823282,18.,-29.5));
#1644=CARTESIAN_POINT('',(-51.095498823282,18.,-20.5));
#1645=CARTESIAN_POINT('',(0.,18.,-59.));
#1646=CARTESIAN_POINT('',(0.,18.,-50.));
#1647=CARTESIAN_POINT('',(0.,18.,-15.));
#1648=CARTESIAN_POINT('',(-50.5099000196991,18.,-15.));
#1649=CARTESIAN_POINT('',(-50.5099000196991,18.,-23.));
#1650=CARTESIAN_POINT('',(-43.2291937105533,18.,-19.6846846846847));
#1651=CARTESIAN_POINT('',(0.,18.,0.));
#1652=CARTESIAN_POINT('',(43.2291937105533,18.,-19.6846846846847));
#1653=CARTESIAN_POINT('',(50.5099000196991,18.,-23.));
#1654=CARTESIAN_POINT('',(50.5099000196991,18.,-15.));
#1655=CARTESIAN_POINT('',(0.,18.,-15.));
#1656=CARTESIAN_POINT('',(0.,0.,0.));
#1657=CARTESIAN_POINT('',(51.0954988232815,-3.46944695195361E-15,-29.5000000000006));
#1658=CARTESIAN_POINT('',(51.0954988232815,-3.46944695195361E-15,-24.0000000000006));
#1659=CARTESIAN_POINT('',(51.0954988232822,-3.46944695195361E-15,29.4999999999995));
#1660=CARTESIAN_POINT('',(51.0954988232822,-3.46944695195361E-15,34.9999999999995));
#1661=CARTESIAN_POINT('',(0.,-3.46944695195361E-15,59.));
#1662=CARTESIAN_POINT('',(0.,-3.46944695195361E-15,64.5));
#1663=CARTESIAN_POINT('',(-51.0954988232818,-3.46944695195361E-15,29.5));
#1664=CARTESIAN_POINT('',(-51.0954988232818,-3.46944695195361E-15,35.));
#1665=CARTESIAN_POINT('',(-51.095498823282,-3.46944695195361E-15,-29.5));
#1666=CARTESIAN_POINT('',(-51.095498823282,-3.46944695195361E-15,-24.));
#1667=CARTESIAN_POINT('',(0.,-3.46944695195361E-15,-59.));
#1668=CARTESIAN_POINT('',(0.,-3.46944695195361E-15,-53.5));
#1669=CARTESIAN_POINT('',(0.,0.,0.));
#1670=CARTESIAN_POINT('',(0.,0.,31.));
#1671=CARTESIAN_POINT('',(50.5099000196991,41.,-23.));
#1672=CARTESIAN_POINT('',(43.2291937105533,41.,-19.6846846846847));
#1673=CARTESIAN_POINT('',(50.5099000196991,41.,-15.));
#1674=CARTESIAN_POINT('',(0.,41.,0.));
#1675=CARTESIAN_POINT('',(-43.2291937105533,41.,-19.6846846846847));
#1676=CARTESIAN_POINT('',(-50.5099000196991,41.,-23.));
#1677=CARTESIAN_POINT('',(-50.5099000196991,41.,-15.));
#1678=CARTESIAN_POINT('',(-69.3974062915899,41.,-15.));
#1679=CARTESIAN_POINT('',(-69.3974062915899,41.,15.));
#1680=CARTESIAN_POINT('',(-50.5099000196991,41.,15.));
#1681=CARTESIAN_POINT('',(-50.5099000196991,41.,23.));
#1682=CARTESIAN_POINT('',(-43.2291937105533,41.,19.6846846846847));
#1683=CARTESIAN_POINT('',(0.,41.,0.));
#1684=CARTESIAN_POINT('',(43.2291937105533,41.,19.6846846846847));
#1685=CARTESIAN_POINT('',(50.5099000196991,41.,23.));
#1686=CARTESIAN_POINT('',(50.5099000196991,41.,15.));
#1687=CARTESIAN_POINT('',(50.5099000196991,41.,15.));
#1688=CARTESIAN_POINT('',(50.5099000196991,41.,-15.));
#1689=CARTESIAN_POINT('',(4.40872847693047E-15,78.,-35.));
#1690=CARTESIAN_POINT('',(9.02716987313119,78.,-41.2857142857143));
#1691=CARTESIAN_POINT('',(9.02716987313119,78.,-41.2857142857143));
#1692=CARTESIAN_POINT('',(-9.02716987313118,78.,-41.2857142857143));
#1693=CARTESIAN_POINT('',(-9.02716987313118,78.,-41.2857142857143));
#1694=CARTESIAN_POINT('',(4.40872847693047E-15,78.,-35.));
#1695=CARTESIAN_POINT('',(-9.02716987313118,78.,-41.2857142857143));
#1696=CARTESIAN_POINT('',(-25.440206006097,78.,-17.7142857142857));
#1697=CARTESIAN_POINT('',(-25.440206006097,78.,-17.7142857142857));
#1698=CARTESIAN_POINT('',(-9.02716987313118,78.,-41.2857142857143));
#1699=CARTESIAN_POINT('',(0.,78.,0.));
#1700=CARTESIAN_POINT('',(-25.440206006097,78.,17.7142857142857));
#1701=CARTESIAN_POINT('',(-25.440206006097,78.,17.7142857142857));
#1702=CARTESIAN_POINT('',(0.,78.,0.));
#1703=CARTESIAN_POINT('',(-9.02716987313118,78.,41.2857142857143));
#1704=CARTESIAN_POINT('',(-9.02716987313118,78.,41.2857142857143));
#1705=CARTESIAN_POINT('',(-9.02716987313118,78.,41.2857142857143));
#1706=CARTESIAN_POINT('',(-9.02716987313118,78.,41.2857142857143));
#1707=CARTESIAN_POINT('',(1.29812560709619E-14,78.,35.));
#1708=CARTESIAN_POINT('',(9.02716987313119,78.,41.2857142857143));
#1709=CARTESIAN_POINT('',(9.02716987313119,78.,41.2857142857143));
#1710=CARTESIAN_POINT('',(1.29812560709619E-14,78.,35.));
#1711=CARTESIAN_POINT('',(9.02716987313119,78.,41.2857142857143));
#1712=CARTESIAN_POINT('',(25.440206006097,78.,17.7142857142857));
#1713=CARTESIAN_POINT('',(25.440206006097,78.,17.7142857142857));
#1714=CARTESIAN_POINT('',(9.02716987313119,78.,41.2857142857143));
#1715=CARTESIAN_POINT('',(0.,78.,0.));
#1716=CARTESIAN_POINT('',(25.440206006097,78.,-17.7142857142857));
#1717=CARTESIAN_POINT('',(25.440206006097,78.,-17.7142857142857));
#1718=CARTESIAN_POINT('',(0.,78.,0.));
#1719=CARTESIAN_POINT('',(9.02716987313119,78.,-41.2857142857143));
#1720=CARTESIAN_POINT('',(9.02716987313119,78.,-41.2857142857143));
#1721=CARTESIAN_POINT('',(4.40872847693047E-15,78.,-35.));
#1722=CARTESIAN_POINT('',(0.,78.,-35.1610577660524));
#1723=CARTESIAN_POINT('',(0.,78.,-30.1610577660524));
#1724=CARTESIAN_POINT('',(0.,78.,34.8389422339476));
#1725=CARTESIAN_POINT('',(0.,78.,39.8389422339476));
#1726=CARTESIAN_POINT('',(0.,78.,0.));
#1727=CARTESIAN_POINT('',(0.,78.,23.));
#1728=CARTESIAN_POINT('',(25.,18.,0.));
#1729=CARTESIAN_POINT('',(-67.,18.,-1.68270828863681));
#1730=CARTESIAN_POINT('',(-30.9542968392977,18.,-1.68270828863669));
#1731=CARTESIAN_POINT('',(-24.9433055711418,18.,-1.68270828863667));
#1732=CARTESIAN_POINT('',(0.,18.,0.));
#1733=CARTESIAN_POINT('',(30.9542968392977,18.,-1.68270828863648));
#1734=CARTESIAN_POINT('',(-67.,18.,-1.68270828863681));
#1735=CARTESIAN_POINT('',(24.9433055711418,18.,-1.6827082886365));
#1736=CARTESIAN_POINT('',(0.,18.,0.));
#1737=CARTESIAN_POINT('',(0.,18.,0.));
#1738=CARTESIAN_POINT('',(-30.9542968392977,18.,1.68270828863646));
#1739=CARTESIAN_POINT('',(-30.9339867165606,17.659970845807,2.05632359218825));
#1740=CARTESIAN_POINT('',(-30.8923750856291,16.7641797909751,2.58179176510181));
#1741=CARTESIAN_POINT('',(-30.9019956877201,15.1927825065248,2.47689769831147));
#1742=CARTESIAN_POINT('',(-30.9727286585138,13.9614015037956,1.50112086395917));
#1743=CARTESIAN_POINT('',(-31.0136164454461,13.4961517185175,4.62435142131003E-05));
#1744=CARTESIAN_POINT('',(-30.9728055466739,13.9604918241204,-1.49910439468833));
#1745=CARTESIAN_POINT('',(-30.9021268329535,15.1898344489203,-2.47543984377706));
#1746=CARTESIAN_POINT('',(-30.8922530729468,16.7604685499781,-2.58328201244031));
#1747=CARTESIAN_POINT('',(-30.9339866986907,17.6599705466328,-2.05632392091344));
#1748=CARTESIAN_POINT('',(-30.9542968392977,18.,-1.68270828863669));
#1749=CARTESIAN_POINT('',(30.9542968392977,18.,-1.68270828863648));
#1750=CARTESIAN_POINT('',(30.9339867165606,17.659970845807,-2.05632359218827));
#1751=CARTESIAN_POINT('',(30.8923750856291,16.7641797909751,-2.58179176510184));
#1752=CARTESIAN_POINT('',(30.9019956877201,15.1927825065248,-2.4768976983115));
#1753=CARTESIAN_POINT('',(30.9727286585138,13.9614015037956,-1.5011208639592));
#1754=CARTESIAN_POINT('',(31.0136164454461,13.4961517185175,-4.62435142429075E-05));
#1755=CARTESIAN_POINT('',(30.9728055466739,13.9604918241204,1.4991043946883));
#1756=CARTESIAN_POINT('',(30.9021268329535,15.1898344489203,2.47543984377703));
#1757=CARTESIAN_POINT('',(30.8922530729468,16.7604685499781,2.58328201244028));
#1758=CARTESIAN_POINT('',(30.9339866986907,17.6599705466328,2.05632392091341));
#1759=CARTESIAN_POINT('',(30.9542968392977,18.,1.68270828863666));
#1760=CARTESIAN_POINT('',(0.,18.,0.));
#1761=CARTESIAN_POINT('',(0.,41.,0.));
#1762=CARTESIAN_POINT('',(0.,41.,23.));
#1763=CARTESIAN_POINT('',(23.,41.,0.));
#1764=CARTESIAN_POINT('',(0.,41.,0.));
#1765=CARTESIAN_POINT('',(0.,41.,15.));
#1766=CARTESIAN_POINT('',(0.,18.,0.));
#1767=CARTESIAN_POINT('',(0.,32.,0.));
#1768=CARTESIAN_POINT('',(0.,32.,15.));
#1769=CARTESIAN_POINT('',(15.,32.,0.));
#1770=CARTESIAN_POINT('',(0.,32.,0.));
#1771=CARTESIAN_POINT('',(0.,32.,21.));
#1772=CARTESIAN_POINT('',(0.,28.,0.));
#1773=CARTESIAN_POINT('',(0.,28.,0.));
#1774=CARTESIAN_POINT('',(0.,28.,25.));
#1775=CARTESIAN_POINT('',(0.,18.,0.));
#1776=CARTESIAN_POINT('',(24.9433055711418,18.,1.68270828863664));
#1777=CARTESIAN_POINT('',(24.9742553376184,18.4175361168589,1.22393032468721));
#1778=CARTESIAN_POINT('',(25.0257445275999,18.8846287957275,0.00120394057949945));
#1779=CARTESIAN_POINT('',(24.9742555781064,18.4175393612264,-1.22392675985937));
#1780=CARTESIAN_POINT('',(24.9433055711418,18.,-1.6827082886365));
#1781=CARTESIAN_POINT('',(-24.9433055711418,18.,-1.68270828863667));
#1782=CARTESIAN_POINT('',(-24.9742553376184,18.4175361168589,-1.22393032468724));
#1783=CARTESIAN_POINT('',(-25.0257445275999,18.8846287957275,-0.00120394057952743));
#1784=CARTESIAN_POINT('',(-24.9742555781064,18.4175393612264,1.22392675985934));
#1785=CARTESIAN_POINT('',(-24.9433055711418,18.,1.68270828863647));
#1786=CARTESIAN_POINT('',(0.,63.,34.8389422339476));
#1787=CARTESIAN_POINT('',(-4.40978243126785E-15,59.9956969048622,34.8389422339476));
#1788=CARTESIAN_POINT('',(0.,63.,34.8389422339476));
#1789=CARTESIAN_POINT('',(0.,63.,39.8389422339476));
#1790=CARTESIAN_POINT('',(0.,78.,34.8389422339476));
#1791=CARTESIAN_POINT('',(0.,63.,-35.1610577660524));
#1792=CARTESIAN_POINT('',(-4.40978243126785E-15,59.9956969048622,-35.1610577660524));
#1793=CARTESIAN_POINT('',(0.,63.,-35.1610577660524));
#1794=CARTESIAN_POINT('',(0.,63.,-30.1610577660524));
#1795=CARTESIAN_POINT('',(0.,78.,-35.1610577660524));
#1796=CARTESIAN_POINT('',(0.,18.,-59.));
#1797=CARTESIAN_POINT('',(0.,7.,-59.));
#1798=CARTESIAN_POINT('',(0.,7.,-53.5));
#1799=CARTESIAN_POINT('',(5.5,7.,-59.));
#1800=CARTESIAN_POINT('',(0.,7.,-59.));
#1801=CARTESIAN_POINT('',(0.,7.,-50.));
#1802=CARTESIAN_POINT('',(0.,18.,-59.));
#1803=CARTESIAN_POINT('',(-51.095498823282,18.,-29.5));
#1804=CARTESIAN_POINT('',(-51.095498823282,7.,-29.5));
#1805=CARTESIAN_POINT('',(-51.095498823282,7.,-24.));
#1806=CARTESIAN_POINT('',(-45.595498823282,7.,-29.5));
#1807=CARTESIAN_POINT('',(-51.095498823282,7.,-29.5));
#1808=CARTESIAN_POINT('',(-51.095498823282,7.,-20.5));
#1809=CARTESIAN_POINT('',(-51.095498823282,18.,-29.5));
#1810=CARTESIAN_POINT('',(-51.0954988232818,18.,29.5));
#1811=CARTESIAN_POINT('',(-51.0954988232818,7.,29.5));
#1812=CARTESIAN_POINT('',(-51.0954988232818,7.,35.));
#1813=CARTESIAN_POINT('',(-45.5954988232818,7.,29.5));
#1814=CARTESIAN_POINT('',(-51.0954988232818,7.,29.5));
#1815=CARTESIAN_POINT('',(-51.0954988232818,7.,38.5));
#1816=CARTESIAN_POINT('',(-51.0954988232818,18.,29.5));
#1817=CARTESIAN_POINT('',(0.,18.,59.));
#1818=CARTESIAN_POINT('',(0.,7.,59.));
#1819=CARTESIAN_POINT('',(0.,7.,64.5));
#1820=CARTESIAN_POINT('',(5.5,7.,59.));
#1821=CARTESIAN_POINT('',(0.,7.,59.));
#1822=CARTESIAN_POINT('',(0.,7.,68.));
#1823=CARTESIAN_POINT('',(0.,18.,59.));
#1824=CARTESIAN_POINT('',(51.0954988232822,18.,29.4999999999995));
#1825=CARTESIAN_POINT('',(51.0954988232822,7.,29.4999999999995));
#1826=CARTESIAN_POINT('',(51.0954988232822,7.,34.9999999999995));
#1827=CARTESIAN_POINT('',(56.5954988232822,7.,29.4999999999995));
#1828=CARTESIAN_POINT('',(51.0954988232822,7.,29.4999999999995));
#1829=CARTESIAN_POINT('',(51.0954988232822,7.,38.4999999999995));
#1830=CARTESIAN_POINT('',(51.0954988232822,18.,29.4999999999995));
#1831=CARTESIAN_POINT('',(51.0954988232815,18.,-29.5000000000006));
#1832=CARTESIAN_POINT('',(51.0954988232815,7.,-29.5000000000006));
#1833=CARTESIAN_POINT('',(51.0954988232815,7.,-24.0000000000006));
#1834=CARTESIAN_POINT('',(56.5954988232815,7.,-29.5000000000006));
#1835=CARTESIAN_POINT('',(51.0954988232815,7.,-29.5000000000006));
#1836=CARTESIAN_POINT('',(51.0954988232815,7.,-20.5000000000006));
#1837=CARTESIAN_POINT('',(51.0954988232815,18.,-29.5000000000006));
#1838=CARTESIAN_POINT('',(-71.,16.1510833400735,-2.52242671194836E-13));
#1839=CARTESIAN_POINT('',(-67.,16.1510833400735,-2.38766604559122E-13));
#1840=CARTESIAN_POINT('',(-67.,16.1510833400735,9.99999999999976));
#1841=CARTESIAN_POINT('',(-39.,16.1510833400735,-1.44434138109127E-13));
#1842=CARTESIAN_POINT('',(-36.8969878334035,16.1510833400735,-1.37349055085934E-13));
#1843=CARTESIAN_POINT('',(-36.8969878334035,16.1510833400735,2.49999999999986));
#1844=CARTESIAN_POINT('',(-39.,16.1510833400735,-1.44434138109127E-13));
#1845=CARTESIAN_POINT('',(-39.,16.1510833400735,5.99999999999986));
#1846=CARTESIAN_POINT('',(-71.,16.1510833400735,-2.52242671194836E-13));
#1847=CARTESIAN_POINT('',(-51.662404651814,21.8912587712728,1.95947647875004));
#1848=CARTESIAN_POINT('',(-49.7027580790355,21.4626053849896,2.77048446566591));
#1849=CARTESIAN_POINT('',(-47.7451236650548,21.8909560731167,1.95858565858607));
#1850=CARTESIAN_POINT('',(-46.9318840311224,22.2811255446303,0.0049515211172613));
#1851=CARTESIAN_POINT('',(-47.745911067404,21.89103752883,-1.96087837573374));
#1852=CARTESIAN_POINT('',(-49.6980594557609,21.4627570456431,-2.76966832716734));
#1853=CARTESIAN_POINT('',(-51.6614876248961,21.8905761444474,-1.96043637818472));
#1854=CARTESIAN_POINT('',(-52.4736659607654,22.2811658110512,-0.00266903218237505));
#1855=CARTESIAN_POINT('',(-51.662404651814,21.8912587712728,1.95947647875004));
#1856=CARTESIAN_POINT('',(-49.7027580790355,21.4626053849896,2.77048446566591));
#1857=CARTESIAN_POINT('',(-47.7451236650548,21.8909560731167,1.95858565858607));
#1858=CARTESIAN_POINT('',(-49.7030934388351,21.6054393973913,2.49999999999996));
#1859=CARTESIAN_POINT('',(-67.,16.1510833400735,-2.38766604559122E-13));
#1860=CARTESIAN_POINT('',(-67.,16.1510833400735,5.99999999999976));
#1861=CARTESIAN_POINT('',(-67.,22.1510833400735,-2.38766604559122E-13));
#1862=CARTESIAN_POINT('',(71.,16.1510833400735,2.52242671194836E-13));
#1863=CARTESIAN_POINT('',(67.,16.1510833400735,2.38766604559122E-13));
#1864=CARTESIAN_POINT('',(67.,16.1510833400735,-9.99999999999976));
#1865=CARTESIAN_POINT('',(39.,16.1510833400735,1.44434138109127E-13));
#1866=CARTESIAN_POINT('',(36.8969878334035,16.1510833400735,1.37349055085934E-13));
#1867=CARTESIAN_POINT('',(36.8969878334035,16.1510833400735,-2.49999999999986));
#1868=CARTESIAN_POINT('',(39.,16.1510833400735,1.44434138109127E-13));
#1869=CARTESIAN_POINT('',(39.,16.1510833400735,-5.99999999999986));
#1870=CARTESIAN_POINT('',(71.,16.1510833400735,2.52242671194836E-13));
#1871=CARTESIAN_POINT('',(40.337595348186,21.8912587712729,1.95947647875004));
#1872=CARTESIAN_POINT('',(42.2972419209646,21.4626053849898,2.7704844656659));
#1873=CARTESIAN_POINT('',(44.2548763349452,21.8909560731169,1.95858565858605));
#1874=CARTESIAN_POINT('',(45.0681159688776,22.2811255446303,0.00495152111721183));
#1875=CARTESIAN_POINT('',(44.2540889325959,21.8910375288299,-1.96087837573375));
#1876=CARTESIAN_POINT('',(42.3019405442391,21.462757045643,-2.76966832716734));
#1877=CARTESIAN_POINT('',(40.3385123751039,21.8905761444473,-1.96043637818472));
#1878=CARTESIAN_POINT('',(39.5263340392347,22.2811658110512,-0.00266903218242064));
#1879=CARTESIAN_POINT('',(40.337595348186,21.8912587712729,1.95947647875004));
#1880=CARTESIAN_POINT('',(42.2972419209646,21.4626053849898,2.7704844656659));
#1881=CARTESIAN_POINT('',(44.2548763349452,21.8909560731169,1.95858565858605));
#1882=CARTESIAN_POINT('',(42.2969065611649,21.6054393973915,2.49999999999995));
#1883=CARTESIAN_POINT('',(67.,16.1510833400735,2.38766604559122E-13));
#1884=CARTESIAN_POINT('',(67.,16.1510833400735,-5.99999999999976));
#1885=CARTESIAN_POINT('',(67.,22.1510833400735,2.38766604559122E-13));
#1886=CARTESIAN_POINT('',(-67.,16.1510833400735,-2.38766604559122E-13));
#1887=CARTESIAN_POINT('',(-67.,16.1510833400735,-2.38766604559122E-13));
#1888=CARTESIAN_POINT('',(-49.7030934388351,41.,-3.4192403547208E-14));
#1889=CARTESIAN_POINT('',(42.2969065611649,41.,-4.02253261733007E-14));
#1890=MECHANICAL_DESIGN_GEOMETRIC_PRESENTATION_REPRESENTATION('',(#1039),#1891);
#1891=(
GEOMETRIC_REPRESENTATION_CONTEXT(3)
GLOBAL_UNCERTAINTY_ASSIGNED_CONTEXT((#1892))
GLOBAL_UNIT_ASSIGNED_CONTEXT((#1895,#1894,#1893))
REPRESENTATION_CONTEXT('Part 1','TOP_LEVEL_ASSEMBLY_PART')
);
#1892=UNCERTAINTY_MEASURE_WITH_UNIT(LENGTH_MEASURE(1.E-05),#1895,'DISTANCE_ACCURACY_VALUE','Maximum Tolerance applied to model');
#1893=(
NAMED_UNIT(*)
SI_UNIT($,.STERADIAN.)
SOLID_ANGLE_UNIT()
);
#1894=(
NAMED_UNIT(*)
PLANE_ANGLE_UNIT()
SI_UNIT($,.RADIAN.)
);
#1895=(
LENGTH_UNIT()
NAMED_UNIT(*)
SI_UNIT(.MILLI.,.METRE.)
);
#1896=PRODUCT_DEFINITION_SHAPE('','',#1897);
#1897=PRODUCT_DEFINITION('','',#1899,#1898);
#1898=PRODUCT_DEFINITION_CONTEXT('',#1905,'design');
#1899=PRODUCT_DEFINITION_FORMATION_WITH_SPECIFIED_SOURCE('','',#1901,.NOT_KNOWN.);
#1900=PRODUCT_RELATED_PRODUCT_CATEGORY('','',(#1901));
#1901=PRODUCT('Part 1','Part 1','Part 1',(#1903));
#1902=PRODUCT_CATEGORY('','');
#1903=PRODUCT_CONTEXT('',#1905,'mechanical');
#1904=APPLICATION_PROTOCOL_DEFINITION('international standard','ap242_managed_model_based_3d_engineering',2020,#1905);
#1905=APPLICATION_CONTEXT('managed model based 3d engineering');
ENDSEC;
END-ISO-10303-21;
